<svg xmlns="http://www.w3.org/2000/svg" xmlns:xlink="http://www.w3.org/1999/xlink" width="360" zoomAndPan="magnify" viewBox="0 0 270 615.000004" height="820" preserveAspectRatio="xMidYMid meet" version="1.0"><defs><clipPath id="dca011c2d0"><path d="M 143 259.632812 L 162 259.632812 L 162 280 L 143 280 Z M 143 259.632812 " clip-rule="nonzero"/></clipPath><clipPath id="61151e7f66"><path d="M 107 259.632812 L 127 259.632812 L 127 280 L 107 280 Z M 107 259.632812 " clip-rule="nonzero"/></clipPath><clipPath id="a218b3a894"><path d="M 128 264 L 178 264 L 178 541.175781 L 128 541.175781 Z M 128 264 " clip-rule="nonzero"/></clipPath><clipPath id="6b70482e09"><path d="M 92 264 L 144 264 L 144 541.175781 L 92 541.175781 Z M 92 264 " clip-rule="nonzero"/></clipPath><clipPath id="b19e3f9185"><path d="M 162 471 L 193 471 L 193 541.175781 L 162 541.175781 Z M 162 471 " clip-rule="nonzero"/></clipPath><clipPath id="e0b7bcbee3"><path d="M 77 471 L 107 471 L 107 541.175781 L 77 541.175781 Z M 77 471 " clip-rule="nonzero"/></clipPath><clipPath id="23a1476e5d"><path d="M 116 259.632812 L 154 259.632812 L 154 271 L 116 271 Z M 116 259.632812 " clip-rule="nonzero"/></clipPath><clipPath id="863c4b8642"><path d="M 11.320312 272 L 136 272 L 136 541 L 11.320312 541 Z M 11.320312 272 " clip-rule="nonzero"/></clipPath><clipPath id="43e6610c72"><path d="M 137 272 L 258.417969 272 L 258.417969 541 L 137 541 Z M 137 272 " clip-rule="nonzero"/></clipPath></defs><g clip-path="url(#dca011c2d0)"><path stroke-linecap="butt" transform="matrix(0.748003, 0, 0, 0.748938, -55.051357, 210.226233)" fill="none" stroke-linejoin="miter" d="M 278.340752 67.361438 C 278.398197 68.894859 278.523531 70.230083 278.304197 71.737426 C 277.839418 74.908582 277.244083 77.928483 276.528636 80.791912 " stroke="#f4f4f4" stroke-width="2" stroke-opacity="1" stroke-miterlimit="4"/></g><path stroke-linecap="butt" transform="matrix(0.748003, 0, 0, 0.748938, -55.051357, 210.226233)" fill="none" stroke-linejoin="miter" d="M 276.528636 80.791912 L 265.572384 80.802344 " stroke="#d8d8d8" stroke-width="2" stroke-opacity="1" stroke-miterlimit="4"/><path stroke-linecap="butt" transform="matrix(0.748003, 0, 0, 0.748938, -55.051357, 210.226233)" fill="none" stroke-linejoin="miter" d="M 265.572384 80.802344 L 242.275987 80.948384 " stroke="#f4f4f4" stroke-width="2" stroke-opacity="1" stroke-miterlimit="4"/><path stroke-linecap="butt" transform="matrix(0.748003, 0, 0, 0.748938, -55.051357, 210.226233)" fill="none" stroke-linejoin="miter" d="M 242.275987 80.948384 C 242.187209 80.708461 241.905208 80.593715 241.429985 80.598931 C 236.609861 80.671951 233.283296 80.698029 231.455513 80.682382 " stroke="#d8d8d8" stroke-width="2" stroke-opacity="1" stroke-miterlimit="4"/><g clip-path="url(#61151e7f66)"><path stroke-linecap="butt" transform="matrix(0.748003, 0, 0, 0.748938, -55.051357, 210.226233)" fill="none" stroke-linejoin="miter" d="M 231.455513 80.682382 C 230.28051 76.332473 229.523286 71.998212 229.178618 67.679597 " stroke="#f4f4f4" stroke-width="2" stroke-opacity="1" stroke-miterlimit="4"/></g><path stroke-linecap="butt" transform="matrix(0.748003, 0, 0, 0.748938, -55.051357, 210.226233)" fill="none" stroke-linejoin="miter" d="M 231.455513 80.682382 C 232.207515 84.056952 233.05874 87.441953 234.009187 90.837385 C 235.434857 95.901847 236.353971 99.271201 236.766528 100.935015 C 237.821419 105.191041 238.980756 109.420988 240.260204 113.614425 C 240.458649 114.271606 241.335985 117.432331 242.897433 123.091385 C 246.39111 135.786443 249.900452 148.465853 253.425462 161.129616 " stroke="#e4e4e4" stroke-width="2" stroke-opacity="1" stroke-miterlimit="4"/><path stroke-linecap="butt" transform="matrix(0.748003, 0, 0, 0.748938, -55.051357, 210.226233)" fill="none" stroke-linejoin="miter" d="M 253.425462 161.129616 L 254.600465 169.902454 C 254.605688 169.965042 254.579576 170.006768 254.522132 170.032847 C 254.464687 170.05371 254.417687 170.048494 254.375909 170.001553 L 219.809926 129.584954 C 219.465258 129.188559 219.392147 128.745223 219.595814 128.254946 L 226.316832 111.914101 C 226.35861 111.815003 226.353388 111.715904 226.295944 111.622021 C 226.238499 111.528138 226.154943 111.475981 226.045276 111.460334 C 224.149604 111.272568 221.89882 110.839663 219.298147 110.151189 C 216.389361 109.389694 213.830465 108.795102 211.626681 108.367413 C 211.517014 108.34655 211.428236 108.289177 211.365569 108.20051 C 211.29768 108.111843 211.271569 108.012744 211.282014 107.903214 C 211.663237 104.53386 212.034016 100.569915 212.399572 96.000946 C 212.446572 95.359412 212.749462 93.241831 213.308241 89.653417 C 213.699909 87.097715 213.893132 84.463778 213.882687 81.75682 " stroke="#f4f4f4" stroke-width="2" stroke-opacity="1" stroke-miterlimit="4"/><path stroke-linecap="butt" transform="matrix(0.748003, 0, 0, 0.748938, -55.051357, 210.226233)" fill="none" stroke-linejoin="miter" d="M 254.569132 160.10212 C 254.616132 160.587182 254.234909 160.931419 253.425462 161.129616 " stroke="#d8d8d8" stroke-width="2" stroke-opacity="1" stroke-miterlimit="4"/><path stroke-linecap="butt" transform="matrix(0.748003, 0, 0, 0.748938, -55.051357, 210.226233)" fill="none" stroke-linejoin="miter" d="M 242.275987 80.948384 L 242.11932 86.680458 C 242.11932 86.769125 242.145431 86.842145 242.202876 86.904734 C 242.265543 86.962107 242.338654 86.993401 242.42221 86.993401 L 265.405273 86.993401 C 265.556717 86.993401 265.629829 86.920381 265.624606 86.769125 L 265.572384 80.802344 " stroke="#e4e4e4" stroke-width="2" stroke-opacity="1" stroke-miterlimit="4"/><path stroke-linecap="butt" transform="matrix(0.748003, 0, 0, 0.748938, -55.051357, 210.226233)" fill="none" stroke-linejoin="miter" d="M 294.252907 82.147999 C 293.923906 83.321535 293.892573 84.870604 294.164129 86.795204 C 295.109354 93.570421 295.882245 100.585562 296.472357 107.851057 C 296.488024 108.033607 296.409691 108.148353 296.226912 108.195294 L 281.839651 111.841081 C 281.709095 111.872376 281.620317 111.950611 281.55765 112.065357 C 281.500205 112.185319 281.494983 112.30528 281.547206 112.430457 L 288.242113 128.562673 C 288.357002 128.83389 288.320446 129.084245 288.127224 129.308521 C 279.092754 139.90686 271.515289 149.143896 263.332045 158.146226 C 261.702707 159.940433 259.692146 162.360526 257.289917 165.401289 C 257.096694 165.651644 256.819916 165.855057 256.464804 166.016744 C 256.318581 166.084548 256.224581 166.037607 256.182803 165.886351 L 254.569132 160.10212 " stroke="#f4f4f4" stroke-width="2" stroke-opacity="1" stroke-miterlimit="4"/><path stroke-linecap="butt" transform="matrix(0.748003, 0, 0, 0.748938, -55.051357, 210.226233)" fill="none" stroke-linejoin="miter" d="M 254.569132 160.10212 C 254.746688 158.459169 255.122689 156.748413 255.702357 154.959422 C 256.746804 151.715245 257.269028 150.07751 257.279473 150.051431 C 263.728935 126.977095 270.220175 104.02272 276.528636 80.791912 " stroke="#e4e4e4" stroke-width="2" stroke-opacity="1" stroke-miterlimit="4"/><g clip-path="url(#a218b3a894)"><path stroke-linecap="butt" transform="matrix(0.748003, 0, 0, 0.748938, -55.051357, 210.226233)" fill="none" stroke-linejoin="miter" d="M 296.190357 83.629263 L 299.276698 109.624401 C 299.308032 109.874756 299.198365 110.031227 298.95292 110.093816 L 285.385549 113.530974 C 285.234104 113.5727 285.119215 113.661367 285.046104 113.802191 C 284.972993 113.943016 284.96777 114.089056 285.030437 114.235096 L 291.093454 128.849538 C 291.260565 129.245932 291.203121 129.605817 290.926342 129.929191 L 257.216806 169.026213 C 256.99225 169.292215 256.882583 169.599942 256.898249 169.949395 C 256.981805 171.566268 257.159361 172.750236 257.096694 174.12197 C 257.028805 175.707548 256.99225 177.851208 256.99225 180.547734 C 256.955694 208.003274 256.945249 223.420936 256.960916 226.795506 C 257.044472 243.798746 256.934805 254.527478 256.971361 269.61655 C 257.018361 292.529199 257.03925 315.45228 257.034027 338.401439 C 257.034027 344.25869 257.028805 350.042922 257.023583 355.759348 C 256.997472 376.799555 257.013139 399.576595 257.065361 424.085254 C 257.070583 427.511981 256.893027 433.995118 257.091472 438.965697 C 257.122805 439.794997 257.034027 440.613864 256.83036 441.422301 " stroke="#f4f4f4" stroke-width="2" stroke-opacity="1" stroke-miterlimit="4"/></g><g clip-path="url(#6b70482e09)"><path stroke-linecap="butt" transform="matrix(0.748003, 0, 0, 0.748938, -55.051357, 210.226233)" fill="none" stroke-linejoin="miter" d="M 254.689243 441.406653 L 254.422909 174.471423 C 254.422909 174.372324 254.407243 174.273226 254.381131 174.179343 C 254.16702 173.370906 253.697018 172.546823 252.955461 171.701877 C 242.484877 159.637921 237.544641 153.759807 230.614733 145.93623 C 225.523053 140.183293 222.875379 136.975626 216.540806 129.496287 C 216.399805 129.329384 216.373694 129.152049 216.462472 128.953852 C 218.18581 124.979475 219.940482 120.744312 221.716042 116.253579 C 222.039821 115.42428 222.687378 114.33941 222.99549 113.786544 C 223.04249 113.697877 223.047712 113.603994 223.005935 113.504895 C 222.958934 113.411012 222.885823 113.348424 222.786601 113.327561 L 208.932007 110.224209 C 208.806674 110.192914 208.702229 110.12511 208.629117 110.020796 C 208.556006 109.911266 208.524673 109.79652 208.540339 109.666127 L 211.449125 83.618831 " stroke="#f4f4f4" stroke-width="2" stroke-opacity="1" stroke-miterlimit="4"/></g><path stroke-linecap="butt" transform="matrix(0.748003, 0, 0, 0.748938, -55.051357, 210.226233)" fill="none" stroke-linejoin="miter" d="M 393.820068 327.171998 C 390.190613 323.828723 387.328828 320.469801 385.234711 317.095231 C 382.43037 312.573204 380.315364 308.739651 378.894916 305.594573 C 371.57334 289.431063 365.160434 275.31733 359.64053 263.248159 C 357.666525 258.939976 355.488852 253.792062 354.266849 250.370551 C 353.14929 247.235904 352.329399 244.189925 351.812397 241.237829 C 350.559061 234.066217 351.650508 227.426608 355.091962 221.319002 C 356.454966 218.893693 358.047748 216.463168 359.865086 214.032644 C 360.141865 213.667543 360.345532 213.17205 360.48131 212.540948 C 360.496977 212.462713 360.48131 212.389693 360.423865 212.33232 C 360.366421 212.269731 360.298532 212.243652 360.214976 212.254084 C 357.666525 212.58789 354.940517 213.891819 352.412955 214.867159 C 349.028945 216.176304 344.689267 217.485449 341.394036 215.915518 C 339.393919 214.961042 339.837809 212.170632 340.219032 210.512034 C 341.284369 205.927418 342.788373 201.942609 344.689267 196.257477 C 345.660603 193.373185 346.699828 189.612652 346.40216 186.389338 C 346.386494 186.243298 346.344716 186.112905 346.271605 185.987728 C 346.198493 185.862551 346.104493 185.758237 345.989604 185.674785 C 345.869492 185.591334 345.744159 185.533961 345.603158 185.507882 C 345.462158 185.476588 345.321157 185.481803 345.180157 185.513098 C 344.046932 185.789531 343.101707 186.404986 342.334038 187.359462 C 341.075479 188.934609 339.597586 190.619286 337.895137 192.418708 C 337.252802 193.091536 336.568689 193.576598 335.832354 193.873894 C 335.550353 193.993855 335.257908 193.999071 334.970685 193.889541 C 334.67824 193.785227 334.458906 193.592245 334.317905 193.315812 C 333.048902 190.90615 333.059346 187.458561 332.892235 184.782897 C 331.931343 169.427824 332.4379 152.226386 332.709456 135.932483 " stroke="#f4f4f4" stroke-width="2" stroke-opacity="1" stroke-miterlimit="4"/><path stroke-linecap="butt" transform="matrix(0.748003, 0, 0, 0.748938, -55.051357, 210.226233)" fill="none" stroke-linejoin="miter" d="M 332.709456 135.932483 C 333.127235 128.682635 333.853126 121.469297 334.881907 114.287253 C 334.887129 114.255959 334.876685 114.240312 334.845351 114.235096 L 334.720017 114.203802 C 334.605128 114.182939 334.532017 114.224664 334.505906 114.33941 C 331.659787 125.641871 329.649226 136.427976 328.484667 146.692509 C 327.826665 152.497603 326.714329 163.523631 325.15288 179.781024 " stroke="#e4e4e4" stroke-width="2" stroke-opacity="1" stroke-miterlimit="4"/><path stroke-linecap="butt" transform="matrix(0.748003, 0, 0, 0.748938, -55.051357, 210.226233)" fill="none" stroke-linejoin="miter" d="M 325.15288 179.781024 C 324.84999 180.980639 324.682879 181.736918 324.646323 182.049861 C 323.91521 188.011427 323.267653 192.924633 322.698429 196.773833 C 321.935983 201.999982 321.53387 206.970562 320.64609 213.24507 C 320.186533 216.499678 318.839196 228.777478 316.614524 250.078471 C 315.120964 264.385185 315.966966 281.769173 316.2333 291.360879 C 316.238523 291.642527 316.301189 292.106726 316.421301 292.74826 C 316.562301 293.530617 316.426523 293.906149 316.003522 293.869639 " stroke="#f4f4f4" stroke-width="2" stroke-opacity="1" stroke-miterlimit="4"/><path stroke-linecap="butt" transform="matrix(0.748003, 0, 0, 0.748938, -55.051357, 210.226233)" fill="none" stroke-linejoin="miter" d="M 316.003522 293.869639 L 285.328105 293.963522 C 285.234104 293.963522 285.155771 293.994816 285.093104 294.057405 C 285.025215 294.125209 284.993882 294.203445 284.993882 294.292112 C 285.030437 313.52768 285.014771 329.341737 284.952104 341.744714 C 284.905104 350.110726 288.722558 357.412731 297.177359 359.968433 C 299.208809 360.583888 301.417815 360.875968 303.8096 360.839458 C 308.55139 360.761222 313.31407 360.698633 318.108083 360.667339 " stroke="#e4e4e4" stroke-width="2" stroke-opacity="1" stroke-miterlimit="4"/><g clip-path="url(#b19e3f9185)"><path stroke-linecap="butt" transform="matrix(0.748003, 0, 0, 0.748938, -55.051357, 210.226233)" fill="none" stroke-linejoin="miter" d="M 318.108083 360.667339 C 317.993194 363.473395 317.982749 365.893489 318.061083 367.911971 C 318.682529 383.392222 319.079419 396.786186 319.241308 408.099078 C 319.377087 417.304821 318.75564 426.025501 311.799621 432.743346 C 309.674171 434.793123 307.684499 436.342191 305.830605 437.395766 C 304.478046 438.162477 303.428376 438.970913 302.676374 439.810644 " stroke="#f4f4f4" stroke-width="2" stroke-opacity="1" stroke-miterlimit="4"/></g><g clip-path="url(#e0b7bcbee3)"><path stroke-linecap="butt" transform="matrix(0.748003, 0, 0, 0.748938, -55.051357, 210.226233)" fill="none" stroke-linejoin="miter" d="M 204.399106 439.685467 C 203.156214 438.407616 201.469431 437.02545 199.338759 435.544186 C 194.262745 431.997498 190.98318 427.146881 189.51051 420.987118 C 188.674952 417.508234 188.71673 413.398248 188.742841 409.825481 C 188.779397 405.652907 188.878619 401.475117 189.030064 397.297326 C 189.526176 384.294542 189.865622 373.972636 190.0484 366.331609 C 190.069289 365.606624 190.058845 364.678226 190.011844 363.546415 C 189.980511 362.612802 189.964844 361.684404 189.970067 360.766438 " stroke="#f4f4f4" stroke-width="2" stroke-opacity="1" stroke-miterlimit="4"/></g><path stroke-linecap="butt" transform="matrix(0.748003, 0, 0, 0.748938, -55.051357, 210.226233)" fill="none" stroke-linejoin="miter" d="M 189.970067 360.766438 C 195.547415 360.782085 201.004652 360.745575 206.336556 360.667339 C 215.945471 360.521299 222.880601 352.181366 222.85449 342.860878 C 222.828378 333.675999 222.812712 317.564646 222.812712 294.532035 C 222.812712 294.401642 222.765712 294.286896 222.671711 294.198229 C 222.577711 294.104346 222.468044 294.057405 222.332266 294.057405 L 191.317404 293.822697 " stroke="#e4e4e4" stroke-width="2" stroke-opacity="1" stroke-miterlimit="4"/><path stroke-linecap="butt" transform="matrix(0.748003, 0, 0, 0.748938, -55.051357, 210.226233)" fill="none" stroke-linejoin="miter" d="M 191.317404 293.822697 C 192.064183 282.102979 192.267851 270.435418 191.933627 258.830445 C 191.860516 256.285175 191.604627 253.739905 191.479293 251.231144 C 191.390515 249.556899 191.249514 247.658378 191.056292 245.53558 C 189.134509 224.917847 186.706169 204.373134 183.776494 183.896225 C 183.572827 182.472334 183.155048 180.412126 182.512713 177.720815 " stroke="#f4f4f4" stroke-width="2" stroke-opacity="1" stroke-miterlimit="4"/><path stroke-linecap="butt" transform="matrix(0.748003, 0, 0, 0.748938, -55.051357, 210.226233)" fill="none" stroke-linejoin="miter" d="M 182.512713 177.720815 C 181.473488 167.299811 180.580485 156.831865 179.212259 146.457802 C 178.663925 142.285227 178.214812 138.968031 177.8597 136.506212 C 177.055476 130.993198 175.629805 123.863311 173.582688 115.116552 C 173.551355 114.980944 173.467799 114.928786 173.326799 114.949649 L 173.316354 114.949649 C 173.154465 114.980944 173.081354 115.074826 173.107465 115.241729 C 174.026579 121.735298 174.695025 128.24973 175.112804 134.785025 " stroke="#e4e4e4" stroke-width="2" stroke-opacity="1" stroke-miterlimit="4"/><path stroke-linecap="butt" transform="matrix(0.748003, 0, 0, 0.748938, -55.051357, 210.226233)" fill="none" stroke-linejoin="miter" d="M 175.112804 134.785025 C 175.232915 141.189926 175.614138 148.074674 175.593249 153.968435 C 175.551472 166.564394 175.285138 176.828927 174.79947 184.76725 C 174.601025 187.886249 174.313802 190.269833 173.937801 191.928431 C 173.781133 192.622121 173.441688 193.221929 172.919464 193.727854 C 172.736686 193.915619 172.506908 194.009502 172.245796 194.019934 C 171.984684 194.02515 171.754906 193.946914 171.551238 193.774795 C 169.613789 192.110981 167.822562 190.21246 166.172335 188.074015 C 165.336777 186.999577 163.524661 185.273175 162.297435 185.356626 C 162.057213 185.372273 161.853545 185.481803 161.681211 185.685216 C 161.508878 185.88863 161.414877 186.133768 161.393988 186.425848 C 161.195543 189.565711 162.224324 193.169772 163.273994 196.466106 C 164.668331 200.836877 165.947779 204.806039 167.107115 208.368374 C 167.46745 209.463675 167.697228 211.054469 167.806895 213.151187 C 168.062784 217.996589 160.725542 216.43709 158.213646 215.654732 C 158.098757 215.618222 155.247416 214.637667 149.659623 212.718283 C 149.017288 212.494007 148.39062 212.420987 147.78484 212.488791 C 147.659507 212.504438 147.570729 212.567027 147.513284 212.681773 C 147.455839 212.791303 147.461062 212.906049 147.523728 213.015579 C 148.542064 214.736766 149.76929 216.624856 151.189738 218.685064 C 155.623417 225.063887 157.273644 232.30852 156.265752 240.001704 C 155.837529 243.277174 155.200416 246.140604 154.349191 248.597207 C 152.839965 252.973194 150.709293 258.115892 147.951952 264.020085 C 144.379942 271.661112 138.092369 285.461902 129.089234 305.412023 C 128.452121 306.820267 127.130895 309.34989 125.120334 312.990461 C 122.190659 318.305278 118.482871 322.999424 113.991748 327.083331 " stroke="#f4f4f4" stroke-width="2" stroke-opacity="1" stroke-miterlimit="4"/><path stroke-linecap="butt" transform="matrix(0.748003, 0, 0, 0.748938, -55.051357, 210.226233)" fill="none" stroke-linejoin="miter" d="M 332.709456 135.932483 C 332.009677 138.331713 331.529231 140.777885 331.278564 143.270998 C 330.458672 151.329282 329.497781 159.533607 329.174002 167.503224 C 328.959891 172.734589 328.751001 177.965954 328.531667 183.192103 C 328.119111 193.237576 328.364556 204.211447 329.273225 216.118931 C 329.450781 218.460788 329.12178 220.740057 328.286222 222.961953 " stroke="#d8d8d8" stroke-width="2" stroke-opacity="1" stroke-miterlimit="4"/><path stroke-linecap="butt" transform="matrix(0.748003, 0, 0, 0.748938, -55.051357, 210.226233)" fill="none" stroke-linejoin="miter" d="M 327.62822 222.028339 C 326.463662 214.058722 325.85266 207.366956 325.789993 201.953041 C 325.732548 196.513047 325.680326 191.073053 325.633326 185.633059 C 325.612437 183.640655 325.382659 181.731702 325.15288 179.781024 " stroke="#d8d8d8" stroke-width="2" stroke-opacity="1" stroke-miterlimit="4"/><path stroke-linecap="butt" transform="matrix(0.748003, 0, 0, 0.748938, -55.051357, 210.226233)" fill="none" stroke-linejoin="miter" d="M 331.221119 295.982005 C 329.82156 296.107182 328.411556 296.154123 326.99633 296.128045 C 325.121547 296.091535 323.711543 296.107182 322.77154 296.164555 C 319.403198 296.367968 316.515301 296.477498 314.097406 296.487929 C 299.9347 296.545302 291.109121 296.555734 287.625889 296.514008 C 287.484888 296.514008 287.416999 296.581812 287.422222 296.717421 C 287.584111 311.102371 287.490111 318.336572 287.521444 338.594421 C 287.526666 343.356371 287.793 346.506665 288.315224 348.040086 C 290.325785 353.902553 295.501021 358.174226 301.945261 358.137716 C 307.36072 358.111637 311.658621 358.101206 314.838963 358.116853 C 315.178408 358.116853 315.878188 357.991676 316.938302 357.736106 " stroke="#e4e4e4" stroke-width="2" stroke-opacity="1" stroke-miterlimit="4"/><path stroke-linecap="butt" transform="matrix(0.748003, 0, 0, 0.748938, -55.051357, 210.226233)" fill="none" stroke-linejoin="miter" d="M 316.938302 357.736106 C 317.841749 357.965597 318.541529 358.101206 319.037641 358.137716 C 323.288542 358.492385 327.539442 358.508032 331.785121 358.200304 C 332.599789 358.137716 333.461458 358.116853 334.385794 358.1325 " stroke="#d8d8d8" stroke-width="2" stroke-opacity="1" stroke-miterlimit="4"/><path stroke-linecap="butt" transform="matrix(0.748003, 0, 0, 0.748938, -55.051357, 210.226233)" fill="none" stroke-linejoin="miter" d="M 334.490239 360.213572 C 330.197561 360.714281 325.951882 360.062316 321.659204 360.364827 C 320.463312 360.453495 319.277864 360.552593 318.108083 360.667339 " stroke="#d8d8d8" stroke-width="2" stroke-opacity="1" stroke-miterlimit="4"/><path stroke-linecap="butt" transform="matrix(0.748003, 0, 0, 0.748938, -55.051357, 210.226233)" fill="none" stroke-linejoin="miter" d="M 331.189786 294.370348 C 326.071994 294.495525 321.011647 294.328622 316.003522 293.869639 " stroke="#d8d8d8" stroke-width="2" stroke-opacity="1" stroke-miterlimit="4"/><path stroke-linecap="butt" transform="matrix(0.748003, 0, 0, 0.748938, -55.051357, 210.226233)" fill="none" stroke-linejoin="miter" d="M 191.317404 293.822697 C 187.447726 294.052189 183.572827 294.140856 179.687483 294.083483 C 178.74748 294.073052 177.750033 294.375564 176.695141 294.996234 " stroke="#d8d8d8" stroke-width="2" stroke-opacity="1" stroke-miterlimit="4"/><path stroke-linecap="butt" transform="matrix(0.748003, 0, 0, 0.748938, -55.051357, 210.226233)" fill="none" stroke-linejoin="miter" d="M 189.970067 360.766438 C 186.131723 360.333533 183.405715 360.161414 181.7816 360.244866 C 178.073812 360.437848 176.042362 360.516083 173.389466 359.978864 " stroke="#d8d8d8" stroke-width="2" stroke-opacity="1" stroke-miterlimit="4"/><path stroke-linecap="butt" transform="matrix(0.748003, 0, 0, 0.748938, -55.051357, 210.226233)" fill="none" stroke-linejoin="miter" d="M 173.514799 357.845636 C 178.517702 358.487169 183.520604 358.591483 188.513063 358.163794 C 189.280731 358.101206 190.152845 358.028186 191.124181 357.939519 " stroke="#d8d8d8" stroke-width="2" stroke-opacity="1" stroke-miterlimit="4"/><path stroke-linecap="butt" transform="matrix(0.748003, 0, 0, 0.748938, -55.051357, 210.226233)" fill="none" stroke-linejoin="miter" d="M 191.124181 357.939519 C 198.96798 358.268109 204.325995 358.294187 207.203447 358.033402 C 213.428353 357.454457 217.83592 353.360118 219.663703 347.518514 C 220.102371 346.131133 220.321705 342.662681 220.332149 337.118372 C 220.342594 323.124601 220.358261 309.709774 220.368705 296.879108 C 220.368705 296.748715 220.326927 296.639185 220.232927 296.550518 C 220.144149 296.456635 220.034482 296.414909 219.903926 296.414909 L 176.569808 296.347105 " stroke="#e4e4e4" stroke-width="2" stroke-opacity="1" stroke-miterlimit="4"/><path stroke-linecap="butt" transform="matrix(0.748003, 0, 0, 0.748938, -55.051357, 210.226233)" fill="none" stroke-linejoin="miter" d="M 182.512713 177.720815 C 182.141934 179.760161 181.980045 181.815154 182.037489 183.896225 C 182.22549 190.734032 182.136712 197.566622 181.776377 204.393997 C 181.682377 206.182988 181.400376 209.166379 180.94082 213.338953 C 180.617041 216.348423 180.371596 219.342245 180.220151 222.309988 " stroke="#d8d8d8" stroke-width="2" stroke-opacity="1" stroke-miterlimit="4"/><path stroke-linecap="butt" transform="matrix(0.748003, 0, 0, 0.748938, -55.051357, 210.226233)" fill="none" stroke-linejoin="miter" d="M 179.238371 223.707801 C 178.904147 222.398655 178.752703 221.251197 178.784036 220.265427 C 179.154815 208.900377 179.666594 199.319103 179.520371 190.415873 C 179.30626 177.418303 178.784036 166.434001 177.9537 157.462966 C 177.478477 152.372426 177.191254 149.159543 177.086809 147.829535 C 176.752586 143.531784 175.87525 139.129718 175.112804 134.785025 " stroke="#d8d8d8" stroke-width="2" stroke-opacity="1" stroke-miterlimit="4"/><path stroke-linecap="butt" transform="matrix(0.748003, 0, 0, 0.748938, -55.051357, 210.226233)" fill="none" stroke-linejoin="miter" d="M 331.34123 299.94595 C 328.150444 301.218586 324.996213 302.230435 321.873316 302.971067 C 320.405867 303.32052 319.742643 304.259349 319.894088 305.787554 C 320.003755 306.955875 320.186533 307.868626 320.426756 308.531022 C 321.591315 311.6761 322.48954 314.607334 323.126652 317.329938 C 324.52099 323.249778 323.37732 327.818747 321.147425 333.164858 C 319.925421 336.080445 320.447645 338.464028 321.110869 341.379614 C 321.862871 344.733321 322.426873 350.173315 320.797535 353.401844 C 319.622532 355.722838 318.52064 356.249626 316.938302 357.736106 " stroke="#f4f4f4" stroke-width="2" stroke-opacity="1" stroke-miterlimit="4"/><path stroke-linecap="butt" transform="matrix(0.748003, 0, 0, 0.748938, -55.051357, 210.226233)" fill="none" stroke-linejoin="miter" d="M 191.124181 357.939519 C 188.330284 356.046213 186.763613 353.683493 186.434612 350.851358 C 186.063834 347.674986 186.220501 344.316063 186.888947 340.779806 C 187.416393 338.025907 187.708838 335.72056 186.862836 333.696861 C 185.306609 329.972839 183.985384 326.629564 184.042828 322.117967 C 184.100273 317.799353 185.750499 313.861486 187.437282 309.224713 C 188.01695 307.623487 188.220617 306.376931 188.043061 305.485043 C 187.802838 304.264565 187.150059 303.497854 186.0795 303.190127 C 181.995711 302.021806 178.752703 300.989094 176.350474 300.086775 " stroke="#f4f4f4" stroke-width="2" stroke-opacity="1" stroke-miterlimit="4"/><path stroke-linecap="butt" transform="matrix(0.748003, 0, 0, 0.748938, -55.051357, 210.226233)" fill="none" stroke-linejoin="miter" d="M 250.887455 183.390301 C 250.887455 182.795709 250.777788 182.232411 250.54801 181.684761 C 250.323454 181.142326 250.004897 180.657264 249.587118 180.240007 C 249.169339 179.822749 248.688894 179.504591 248.140559 179.275099 C 247.597446 179.050823 247.028222 178.936077 246.43811 178.936077 C 245.847997 178.936077 245.283995 179.050823 244.735661 179.275099 C 244.192548 179.504591 243.712102 179.822749 243.294323 180.240007 C 242.876544 180.657264 242.552766 181.142326 242.32821 181.684761 C 242.103653 182.232411 241.988764 182.795709 241.988764 183.390301 C 241.988764 183.979677 242.103653 184.542974 242.32821 185.090625 C 242.552766 185.633059 242.876544 186.118121 243.294323 186.535379 C 243.712102 186.952636 244.192548 187.270795 244.735661 187.500286 C 245.283995 187.724562 245.847997 187.839308 246.43811 187.839308 C 247.028222 187.839308 247.597446 187.724562 248.140559 187.500286 C 248.688894 187.270795 249.169339 186.952636 249.587118 186.535379 C 250.004897 186.118121 250.323454 185.633059 250.54801 185.090625 C 250.777788 184.542974 250.887455 183.979677 250.887455 183.390301 " stroke="#f4f4f4" stroke-width="2" stroke-opacity="1" stroke-miterlimit="4"/><path stroke-linecap="butt" transform="matrix(0.748003, 0, 0, 0.748938, -55.051357, 210.226233)" fill="none" stroke-linejoin="miter" d="M 250.709899 241.039631 C 250.709899 240.465902 250.600232 239.913036 250.380898 239.381033 C 250.161564 238.854246 249.84823 238.384831 249.446118 237.978005 C 249.038783 237.576395 248.568782 237.263452 248.041336 237.044391 C 247.508668 236.825331 246.960333 236.715801 246.385887 236.715801 C 245.811441 236.715801 245.257884 236.825331 244.730438 237.044391 C 244.19777 237.263452 243.732991 237.576395 243.325657 237.978005 C 242.923544 238.384831 242.61021 238.854246 242.390876 239.381033 C 242.171542 239.913036 242.061875 240.465902 242.061875 241.039631 C 242.061875 241.61336 242.171542 242.166227 242.390876 242.693014 C 242.61021 243.225017 242.923544 243.689216 243.325657 244.096042 C 243.732991 244.502868 244.19777 244.815811 244.730438 245.034871 C 245.257884 245.253932 245.811441 245.363462 246.385887 245.363462 C 246.960333 245.363462 247.508668 245.253932 248.041336 245.034871 C 248.568782 244.815811 249.038783 244.502868 249.446118 244.096042 C 249.84823 243.689216 250.161564 243.225017 250.380898 242.693014 C 250.600232 242.166227 250.709899 241.61336 250.709899 241.039631 " stroke="#e4e4e4" stroke-width="2" stroke-opacity="1" stroke-miterlimit="4"/><path stroke-linecap="butt" transform="matrix(0.748003, 0, 0, 0.748938, -55.051357, 210.226233)" fill="none" stroke-linejoin="miter" d="M 250.772566 305.813633 C 250.772566 305.234688 250.662899 304.676607 250.443565 304.139388 C 250.219009 303.602169 249.905675 303.132754 249.493118 302.720712 C 249.085784 302.313886 248.61056 301.995728 248.077892 301.776667 C 247.540002 301.552391 246.986444 301.442861 246.406776 301.442861 C 245.827108 301.442861 245.268329 301.552391 244.730438 301.776667 C 244.19777 301.995728 243.722547 302.313886 243.315212 302.720712 C 242.907878 303.132754 242.589321 303.602169 242.369987 304.139388 C 242.145431 304.676607 242.035764 305.234688 242.035764 305.813633 C 242.035764 306.392578 242.145431 306.95066 242.369987 307.482663 C 242.589321 308.019882 242.907878 308.489296 243.315212 308.901338 C 243.722547 309.31338 244.19777 309.626323 244.730438 309.850599 C 245.268329 310.069659 245.827108 310.179189 246.406776 310.179189 C 246.986444 310.179189 247.540002 310.069659 248.077892 309.850599 C 248.61056 309.626323 249.085784 309.31338 249.493118 308.901338 C 249.905675 308.489296 250.219009 308.019882 250.443565 307.482663 C 250.662899 306.95066 250.772566 306.392578 250.772566 305.813633 " stroke="#f4f4f4" stroke-width="2" stroke-opacity="1" stroke-miterlimit="4"/><path stroke-linecap="butt" transform="matrix(0.748003, 0, 0, 0.748938, -55.051357, 210.226233)" fill="none" stroke-linejoin="miter" d="M 250.777788 361.340167 C 250.777788 360.761222 250.668121 360.20314 250.448787 359.665921 C 250.224231 359.133918 249.910897 358.659288 249.49834 358.247246 C 249.091006 357.84042 248.615782 357.522261 248.083114 357.303201 C 247.545224 357.078925 246.991667 356.969395 246.411998 356.969395 C 245.83233 356.969395 245.273551 357.078925 244.735661 357.303201 C 244.202992 357.522261 243.727769 357.84042 243.320434 358.247246 C 242.907878 358.659288 242.594544 359.133918 242.37521 359.665921 C 242.150653 360.20314 242.040987 360.761222 242.040987 361.340167 C 242.040987 361.919111 242.150653 362.477193 242.37521 363.009196 C 242.594544 363.546415 242.907878 364.021046 243.320434 364.427872 C 243.727769 364.839913 244.202992 365.152857 244.735661 365.377132 C 245.273551 365.596193 245.83233 365.710938 246.411998 365.710938 C 246.991667 365.710938 247.545224 365.596193 248.083114 365.377132 C 248.615782 365.152857 249.091006 364.839913 249.49834 364.427872 C 249.910897 364.021046 250.224231 363.546415 250.448787 363.009196 C 250.668121 362.477193 250.777788 361.919111 250.777788 361.340167 " stroke="#f4f4f4" stroke-width="2" stroke-opacity="1" stroke-miterlimit="4"/><path stroke-linecap="butt" transform="matrix(0.748003, 0, 0, 0.748938, -55.051357, 210.226233)" fill="none" stroke-linejoin="miter" d="M 317.815638 164.921443 L 273.003627 164.921443 C 272.925293 164.921443 272.883515 164.963169 272.883515 165.04662 L 272.883515 197.457092 C 272.883515 198.369843 272.967071 199.266946 273.134183 200.158834 C 273.306516 201.050722 273.557184 201.916531 273.886185 202.756261 C 274.220408 203.595992 274.627742 204.393997 275.108188 205.150276 C 275.588634 205.901339 276.136969 206.600246 276.74797 207.246995 C 277.364194 207.888528 278.027418 208.462257 278.748087 208.968182 C 279.468755 209.468891 280.231202 209.896579 281.030204 210.246032 C 281.834429 210.59027 282.659542 210.856271 283.510766 211.033606 C 284.361991 211.21094 285.218438 211.299608 286.085329 211.299608 L 304.733936 211.299608 C 305.600827 211.299608 306.462496 211.21094 307.31372 211.033606 C 308.159723 210.856271 308.984836 210.59027 309.78906 210.246032 C 310.588063 209.896579 311.350509 209.468891 312.071178 208.968182 C 312.791846 208.462257 313.460293 207.888528 314.071294 207.246995 C 314.682296 206.600246 315.230631 205.901339 315.716299 205.150276 C 316.196745 204.393997 316.604079 203.595992 316.93308 202.756261 C 317.267303 201.916531 317.51797 201.050722 317.685082 200.158834 C 317.852194 199.266946 317.940972 198.369843 317.940972 197.457092 L 317.940972 165.04662 C 317.940972 164.963169 317.899194 164.921443 317.815638 164.921443 " stroke="#f4f4f4" stroke-width="2" stroke-opacity="1" stroke-miterlimit="4"/><path stroke-linecap="butt" transform="matrix(0.748003, 0, 0, 0.748938, -55.051357, 210.226233)" fill="none" stroke-linejoin="miter" d="M 275.071632 166.658277 C 274.988077 166.653062 274.914965 166.684356 274.852298 166.741729 C 274.794854 166.804317 274.76352 166.877337 274.768743 166.960789 C 275.045521 176.81328 274.857521 184.563837 275.071632 196.137515 C 275.11341 198.474157 275.264855 200.05452 275.531189 200.878603 C 276.758415 204.738234 279.536644 207.695546 283.500322 208.785631 C 284.147879 208.962966 286.445663 209.035986 290.393674 209.004692 C 292.289346 208.989044 297.172137 208.95775 305.042047 208.905593 C 310.917064 208.869083 315.277631 204.164505 315.684965 198.380274 C 315.752855 197.477955 315.794632 196.372223 315.805077 195.052646 C 315.841633 191.146073 315.841633 181.825585 315.799855 167.096398 C 315.799855 166.924279 315.716299 166.835612 315.543965 166.830396 C 311.470621 166.700003 309.042281 166.647846 308.26939 166.684356 C 306.311051 166.757376 304.378823 166.689572 302.467485 166.480943 C 297.908472 165.980234 293.772461 165.922861 289.63645 166.449649 C 287.714667 166.694787 285.568328 166.804317 283.202654 166.778239 C 280.351313 166.741729 277.640973 166.705219 275.071632 166.658277 " stroke="#f4f4f4" stroke-width="2" stroke-opacity="1" stroke-miterlimit="4"/><path stroke-linecap="butt" transform="matrix(0.748003, 0, 0, 0.748938, -55.051357, 210.226233)" fill="none" stroke-linejoin="miter" d="M 249.780341 183.332928 C 249.780341 182.87916 249.696785 182.446256 249.524451 182.028998 C 249.352118 181.611741 249.106672 181.241425 248.782894 180.923266 C 248.464337 180.605107 248.098781 180.359968 247.681002 180.182634 C 247.263223 180.010515 246.829777 179.927064 246.375443 179.927064 C 245.921108 179.927064 245.487663 180.010515 245.069884 180.182634 C 244.652105 180.359968 244.286548 180.605107 243.967992 180.923266 C 243.644213 181.241425 243.398768 181.611741 243.226434 182.028998 C 243.0541 182.446256 242.965322 182.87916 242.965322 183.332928 C 242.965322 183.786695 243.0541 184.2196 243.226434 184.636857 C 243.398768 185.054115 243.644213 185.424431 243.967992 185.742589 C 244.286548 186.060748 244.652105 186.305887 245.069884 186.483221 C 245.487663 186.65534 245.921108 186.738792 246.375443 186.738792 C 246.829777 186.738792 247.263223 186.65534 247.681002 186.483221 C 248.098781 186.305887 248.464337 186.060748 248.782894 185.742589 C 249.106672 185.424431 249.352118 185.054115 249.524451 184.636857 C 249.696785 184.2196 249.780341 183.786695 249.780341 183.332928 " stroke="#f4f4f4" stroke-width="2" stroke-opacity="1" stroke-miterlimit="4"/><path stroke-linecap="butt" transform="matrix(0.748003, 0, 0, 0.748938, -55.051357, 210.226233)" fill="none" stroke-linejoin="miter" d="M 249.811674 240.977043 C 249.811674 240.512844 249.722896 240.059076 249.54534 239.631388 C 249.367784 239.198483 249.111895 238.817736 248.777672 238.48393 C 248.448671 238.155339 248.067447 237.899769 247.634002 237.722435 C 247.205778 237.539885 246.751444 237.451217 246.286665 237.451217 C 245.816664 237.451217 245.367551 237.539885 244.934106 237.722435 C 244.505882 237.899769 244.124659 238.155339 243.790436 238.48393 C 243.461435 238.817736 243.205545 239.198483 243.027989 239.631388 C 242.850433 240.059076 242.761655 240.512844 242.761655 240.977043 C 242.761655 241.446457 242.850433 241.895009 243.027989 242.327914 C 243.205545 242.760818 243.461435 243.141566 243.790436 243.470156 C 244.124659 243.803962 244.505882 244.059532 244.934106 244.236867 C 245.367551 244.414201 245.816664 244.502868 246.286665 244.502868 C 246.751444 244.502868 247.205778 244.414201 247.634002 244.236867 C 248.067447 244.059532 248.448671 243.803962 248.777672 243.470156 C 249.111895 243.141566 249.367784 242.760818 249.54534 242.327914 C 249.722896 241.895009 249.811674 241.446457 249.811674 240.977043 " stroke="#e4e4e4" stroke-width="2" stroke-opacity="1" stroke-miterlimit="4"/><path stroke-linecap="butt" transform="matrix(0.748003, 0, 0, 0.748938, -55.051357, 210.226233)" fill="none" stroke-linejoin="miter" d="M 249.822119 305.777123 C 249.822119 305.31814 249.733341 304.88002 249.561007 304.457546 C 249.383451 304.035073 249.132784 303.659542 248.809005 303.336167 C 248.485226 303.012793 248.114448 302.762438 247.691446 302.585104 C 247.268445 302.412985 246.829777 302.324318 246.370221 302.324318 C 245.910664 302.324318 245.471996 302.412985 245.048995 302.585104 C 244.625994 302.762438 244.255215 303.012793 243.931436 303.336167 C 243.607657 303.659542 243.35699 304.035073 243.179434 304.457546 C 243.0071 304.88002 242.918322 305.31814 242.918322 305.777123 C 242.918322 306.236106 243.0071 306.674227 243.179434 307.0967 C 243.35699 307.519173 243.607657 307.894705 243.931436 308.218079 C 244.255215 308.541454 244.625994 308.791808 245.048995 308.963927 C 245.471996 309.141261 245.910664 309.229928 246.370221 309.229928 C 246.829777 309.229928 247.268445 309.141261 247.691446 308.963927 C 248.114448 308.791808 248.485226 308.541454 248.809005 308.218079 C 249.132784 307.894705 249.383451 307.519173 249.561007 307.0967 C 249.733341 306.674227 249.822119 306.236106 249.822119 305.777123 " stroke="#f4f4f4" stroke-width="2" stroke-opacity="1" stroke-miterlimit="4"/><path stroke-linecap="butt" transform="matrix(0.748003, 0, 0, 0.748938, -55.051357, 210.226233)" fill="none" stroke-linejoin="miter" d="M 249.775119 361.334951 C 249.775119 360.881184 249.686341 360.448279 249.514007 360.031022 C 249.341673 359.613764 249.096228 359.248664 248.777672 358.930505 C 248.459115 358.607131 248.088336 358.361992 247.670557 358.189873 C 247.258001 358.017754 246.819333 357.934303 246.370221 357.934303 C 245.921108 357.934303 245.487663 358.017754 245.069884 358.189873 C 244.652105 358.361992 244.281326 358.607131 243.96277 358.930505 C 243.644213 359.248664 243.398768 359.613764 243.226434 360.031022 C 243.0541 360.448279 242.965322 360.881184 242.965322 361.334951 C 242.965322 361.783503 243.0541 362.221623 243.226434 362.638881 C 243.398768 363.050922 243.644213 363.421238 243.96277 363.739397 C 244.281326 364.057556 244.652105 364.302695 245.069884 364.480029 C 245.487663 364.652148 245.921108 364.735599 246.370221 364.735599 C 246.819333 364.735599 247.258001 364.652148 247.670557 364.480029 C 248.088336 364.302695 248.459115 364.057556 248.777672 363.739397 C 249.096228 363.421238 249.341673 363.050922 249.514007 362.638881 C 249.686341 362.221623 249.775119 361.783503 249.775119 361.334951 " stroke="#f4f4f4" stroke-width="2" stroke-opacity="1" stroke-miterlimit="4"/><g clip-path="url(#23a1476e5d)"><path fill="#e8e8e8" d="M 153.148438 260.675781 C 153.191406 261.824219 153.285156 262.824219 153.121094 263.953125 C 152.773438 266.328125 152.328125 268.589844 151.792969 270.734375 L 143.597656 270.742188 L 126.171875 270.851562 C 126.105469 270.671875 125.894531 270.585938 125.539062 270.589844 C 121.933594 270.644531 119.445312 270.664062 118.078125 270.652344 C 117.199219 267.394531 116.632812 264.148438 116.375 260.914062 C 117.65625 259.636719 119.859375 259.941406 122.015625 259.949219 C 131.441406 259.980469 140.875 259.953125 150.304688 259.863281 C 151.292969 259.851562 152.238281 260.125 153.148438 260.675781 Z M 153.148438 260.675781 " fill-opacity="1" fill-rule="nonzero"/></g><path fill="#ffffff" d="M 165.050781 271.75 C 164.804688 272.628906 164.78125 273.789062 164.984375 275.230469 C 165.691406 280.304688 166.269531 285.558594 166.710938 291 C 166.722656 291.136719 166.664062 291.222656 166.527344 291.257812 L 155.765625 293.988281 C 155.667969 294.011719 155.601562 294.070312 155.554688 294.15625 C 155.511719 294.246094 155.507812 294.335938 155.546875 294.429688 L 160.554688 306.511719 C 160.640625 306.714844 160.613281 306.902344 160.46875 307.070312 C 153.710938 315.007812 148.042969 321.925781 141.921875 328.667969 C 140.703125 330.011719 139.199219 331.824219 137.402344 334.101562 C 137.257812 334.289062 137.050781 334.441406 136.785156 334.5625 C 136.675781 334.613281 136.605469 334.578125 136.574219 334.464844 L 135.367188 330.132812 C 135.5 328.902344 135.78125 327.621094 136.214844 326.28125 C 136.996094 323.851562 137.386719 322.625 137.394531 322.605469 C 142.21875 305.324219 147.074219 288.132812 151.792969 270.734375 C 152.328125 268.589844 152.773438 266.328125 153.121094 263.953125 C 153.285156 262.824219 153.191406 261.824219 153.148438 260.675781 Z M 165.050781 271.75 " fill-opacity="1" fill-rule="nonzero"/><path fill="#ffffff" d="M 116.375 260.914062 C 116.632812 264.148438 117.199219 267.394531 118.078125 270.652344 C 118.640625 273.179688 119.277344 275.714844 119.988281 278.257812 C 121.054688 282.050781 121.742188 284.574219 122.050781 285.820312 C 122.839844 289.007812 123.707031 292.175781 124.664062 295.316406 C 124.8125 295.808594 125.46875 298.175781 126.636719 302.414062 C 129.25 311.921875 131.875 321.417969 134.511719 330.902344 L 135.390625 337.472656 C 135.394531 337.519531 135.375 337.550781 135.332031 337.570312 C 135.289062 337.585938 135.253906 337.582031 135.222656 337.546875 L 109.367188 307.277344 C 109.109375 306.980469 109.054688 306.648438 109.207031 306.28125 L 114.234375 294.042969 C 114.265625 293.96875 114.261719 293.894531 114.21875 293.824219 C 114.175781 293.753906 114.113281 293.714844 114.03125 293.703125 C 112.613281 293.5625 110.929688 293.238281 108.984375 292.722656 C 106.808594 292.152344 104.894531 291.707031 103.246094 291.386719 C 103.164062 291.371094 103.097656 291.328125 103.050781 291.261719 C 103 291.195312 102.980469 291.121094 102.988281 291.039062 C 103.273438 288.515625 103.550781 285.546875 103.824219 282.125 C 103.859375 281.644531 104.085938 280.058594 104.503906 277.371094 C 104.796875 275.457031 104.941406 273.484375 104.933594 271.457031 Z M 116.375 260.914062 " fill-opacity="1" fill-rule="nonzero"/><path fill="#c8c8c8" d="M 151.792969 270.734375 C 147.074219 288.132812 142.21875 305.324219 137.394531 322.605469 C 137.386719 322.625 136.996094 323.851562 136.214844 326.28125 C 135.78125 327.621094 135.5 328.902344 135.367188 330.132812 C 135.402344 330.496094 135.117188 330.753906 134.511719 330.902344 C 131.875 321.417969 129.25 311.921875 126.636719 302.414062 C 125.46875 298.175781 124.8125 295.808594 124.664062 295.316406 C 123.707031 292.175781 122.839844 289.007812 122.050781 285.820312 C 121.742188 284.574219 121.054688 282.050781 119.988281 278.257812 C 119.277344 275.714844 118.640625 273.179688 118.078125 270.652344 C 119.445312 270.664062 121.933594 270.644531 125.539062 270.589844 C 125.894531 270.585938 126.105469 270.671875 126.171875 270.851562 L 126.054688 275.144531 C 126.054688 275.210938 126.074219 275.265625 126.117188 275.3125 C 126.164062 275.355469 126.21875 275.378906 126.28125 275.378906 L 143.472656 275.378906 C 143.585938 275.378906 143.640625 275.324219 143.636719 275.210938 L 143.597656 270.742188 Z M 151.792969 270.734375 " fill-opacity="1" fill-rule="nonzero"/><path fill="#ffffff" d="M 143.597656 270.742188 L 143.636719 275.210938 C 143.640625 275.324219 143.585938 275.378906 143.472656 275.378906 L 126.28125 275.378906 C 126.21875 275.378906 126.164062 275.355469 126.117188 275.3125 C 126.074219 275.265625 126.054688 275.210938 126.054688 275.144531 L 126.171875 270.851562 Z M 143.597656 270.742188 " fill-opacity="1" fill-rule="nonzero"/><path fill="#e8e8e8" d="M 104.933594 271.457031 C 104.941406 273.484375 104.796875 275.457031 104.503906 277.371094 C 104.085938 280.058594 103.859375 281.644531 103.824219 282.125 C 103.550781 285.546875 103.273438 288.515625 102.988281 291.039062 C 102.980469 291.121094 103 291.195312 103.050781 291.261719 C 103.097656 291.328125 103.164062 291.371094 103.246094 291.386719 C 104.894531 291.707031 106.808594 292.152344 108.984375 292.722656 C 110.929688 293.238281 112.613281 293.5625 114.03125 293.703125 C 114.113281 293.714844 114.175781 293.753906 114.21875 293.824219 C 114.261719 293.894531 114.265625 293.96875 114.234375 294.042969 L 109.207031 306.28125 C 109.054688 306.648438 109.109375 306.980469 109.367188 307.277344 L 135.222656 337.546875 C 135.253906 337.582031 135.289062 337.585938 135.332031 337.570312 C 135.375 337.550781 135.394531 337.519531 135.390625 337.472656 L 134.511719 330.902344 C 135.117188 330.753906 135.402344 330.496094 135.367188 330.132812 L 136.574219 334.464844 C 136.605469 334.578125 136.675781 334.613281 136.785156 334.5625 C 137.050781 334.441406 137.257812 334.289062 137.402344 334.101562 C 139.199219 331.824219 140.703125 330.011719 141.921875 328.667969 C 148.042969 321.925781 153.710938 315.007812 160.46875 307.070312 C 160.613281 306.902344 160.640625 306.714844 160.554688 306.511719 L 155.546875 294.429688 C 155.507812 294.335938 155.511719 294.246094 155.554688 294.15625 C 155.601562 294.070312 155.667969 294.011719 155.765625 293.988281 L 166.527344 291.257812 C 166.664062 291.222656 166.722656 291.136719 166.710938 291 C 166.269531 285.558594 165.691406 280.304688 164.984375 275.230469 C 164.78125 273.789062 164.804688 272.628906 165.050781 271.75 C 165.085938 272.261719 165.570312 272.632812 166.5 272.859375 L 168.808594 292.328125 C 168.832031 292.515625 168.75 292.632812 168.566406 292.679688 L 158.417969 295.253906 C 158.304688 295.285156 158.21875 295.351562 158.164062 295.457031 C 158.109375 295.5625 158.105469 295.671875 158.152344 295.78125 L 162.6875 306.726562 C 162.8125 307.023438 162.769531 307.292969 162.5625 307.535156 L 137.347656 336.816406 C 137.179688 337.015625 137.097656 337.246094 137.109375 337.507812 C 137.171875 338.71875 137.304688 339.605469 137.257812 340.632812 C 137.207031 341.820312 137.179688 343.425781 137.179688 345.445312 C 137.152344 366.007812 137.144531 377.554688 137.15625 380.082031 C 137.21875 392.816406 137.136719 400.851562 137.164062 412.152344 C 137.199219 429.3125 137.214844 446.480469 137.210938 463.667969 C 137.210938 468.054688 137.207031 472.386719 137.203125 476.667969 C 137.183594 492.425781 137.195312 509.484375 137.234375 527.839844 C 137.238281 530.40625 137.105469 535.261719 137.253906 538.984375 C 137.277344 539.605469 137.210938 540.21875 137.058594 540.824219 L 135.457031 540.8125 L 135.257812 340.894531 C 135.257812 340.820312 135.246094 340.746094 135.226562 340.675781 C 135.066406 340.070312 134.714844 339.453125 134.160156 338.820312 C 126.328125 329.785156 122.632812 325.382812 117.449219 319.523438 C 113.640625 315.214844 111.660156 312.8125 106.921875 307.210938 C 106.816406 307.085938 106.796875 306.953125 106.863281 306.804688 C 108.152344 303.828125 109.464844 300.65625 110.792969 297.292969 C 111.035156 296.671875 111.519531 295.859375 111.75 295.445312 C 111.785156 295.378906 111.789062 295.308594 111.757812 295.234375 C 111.722656 295.164062 111.667969 295.117188 111.59375 295.101562 L 101.230469 292.777344 C 101.136719 292.753906 101.058594 292.703125 101.003906 292.625 C 100.949219 292.542969 100.925781 292.457031 100.9375 292.359375 L 103.113281 272.851562 C 103.824219 272.550781 104.429688 272.085938 104.933594 271.457031 Z M 104.933594 271.457031 " fill-opacity="1" fill-rule="nonzero"/><g clip-path="url(#863c4b8642)"><path fill="#ffffff" d="M 103.113281 272.851562 L 100.9375 292.359375 C 100.925781 292.457031 100.949219 292.542969 101.003906 292.625 C 101.058594 292.703125 101.136719 292.753906 101.230469 292.777344 L 111.59375 295.101562 C 111.667969 295.117188 111.722656 295.164062 111.757812 295.234375 C 111.789062 295.308594 111.785156 295.378906 111.75 295.445312 C 111.519531 295.859375 111.035156 296.671875 110.792969 297.292969 C 109.464844 300.65625 108.152344 303.828125 106.863281 306.804688 C 106.796875 306.953125 106.816406 307.085938 106.921875 307.210938 C 111.660156 312.8125 113.640625 315.214844 117.449219 319.523438 C 122.632812 325.382812 126.328125 329.785156 134.160156 338.820312 C 134.714844 339.453125 135.066406 340.070312 135.226562 340.675781 C 135.246094 340.746094 135.257812 340.820312 135.257812 340.894531 L 135.457031 540.8125 C 123.808594 541.0625 112.183594 540.769531 100.585938 539.9375 C 99.972656 539.894531 99.058594 539.753906 97.839844 539.523438 C 96.910156 538.566406 95.648438 537.53125 94.054688 536.421875 C 90.257812 533.765625 87.804688 530.132812 86.703125 525.519531 C 86.078125 522.914062 86.109375 519.835938 86.128906 517.160156 C 86.15625 514.035156 86.230469 510.90625 86.34375 507.777344 C 86.714844 498.039062 86.96875 490.308594 87.105469 484.585938 C 87.121094 484.042969 87.113281 483.347656 87.078125 482.5 C 87.054688 481.800781 87.042969 481.105469 87.046875 480.417969 C 91.21875 480.429688 95.300781 480.402344 99.289062 480.34375 C 106.476562 480.234375 111.664062 473.988281 111.644531 467.007812 C 111.625 460.128906 111.613281 448.0625 111.613281 430.8125 C 111.613281 430.714844 111.578125 430.628906 111.507812 430.5625 C 111.4375 430.492188 111.355469 430.457031 111.253906 430.457031 L 88.054688 430.28125 C 88.613281 421.503906 88.765625 412.765625 88.515625 404.074219 C 88.460938 402.167969 88.269531 400.261719 88.175781 398.382812 C 88.109375 397.128906 88.003906 395.707031 87.859375 394.117188 C 86.421875 378.675781 84.605469 363.289062 82.414062 347.953125 C 82.261719 346.886719 81.949219 345.34375 81.46875 343.328125 C 80.691406 335.523438 80.023438 327.683594 79 319.914062 C 78.589844 316.789062 78.253906 314.304688 77.988281 312.460938 C 77.386719 308.332031 76.320312 302.992188 74.789062 296.441406 C 74.765625 296.339844 74.703125 296.300781 74.597656 296.316406 L 74.589844 296.316406 C 74.46875 296.339844 74.414062 296.410156 74.433594 296.535156 C 75.121094 301.398438 75.621094 306.277344 75.933594 311.171875 C 76.023438 315.96875 76.308594 321.125 76.292969 325.539062 C 76.261719 334.972656 76.0625 342.660156 75.699219 348.605469 C 75.550781 350.941406 75.335938 352.726562 75.054688 353.96875 C 74.9375 354.488281 74.683594 354.9375 74.292969 355.316406 C 74.15625 355.457031 73.984375 355.527344 73.789062 355.535156 C 73.59375 355.539062 73.421875 355.480469 73.269531 355.351562 C 71.820312 354.105469 70.480469 352.683594 69.246094 351.082031 C 68.621094 350.277344 67.265625 348.984375 66.347656 349.046875 C 66.167969 349.058594 66.015625 349.140625 65.886719 349.292969 C 65.757812 349.445312 65.6875 349.628906 65.671875 349.847656 C 65.523438 352.199219 66.292969 354.898438 67.078125 357.367188 C 68.121094 360.640625 69.078125 363.613281 69.945312 366.28125 C 70.214844 367.101562 70.386719 368.292969 70.46875 369.863281 C 70.660156 373.492188 65.171875 372.324219 63.292969 371.738281 C 63.207031 371.710938 61.074219 370.976562 56.894531 369.539062 C 56.414062 369.371094 55.945312 369.316406 55.492188 369.367188 C 55.398438 369.378906 55.332031 369.425781 55.289062 369.511719 C 55.246094 369.59375 55.25 369.679688 55.296875 369.761719 C 56.058594 371.050781 56.976562 372.464844 58.039062 374.007812 C 61.355469 378.785156 62.589844 384.210938 61.835938 389.972656 C 61.515625 392.425781 61.039062 394.570312 60.402344 396.410156 C 59.273438 399.6875 57.679688 403.539062 55.617188 407.960938 C 52.945312 413.683594 48.242188 424.019531 41.507812 438.960938 C 41.03125 440.015625 40.042969 441.910156 38.539062 444.636719 C 36.347656 448.617188 33.574219 452.132812 30.214844 455.191406 C 24.019531 452.957031 17.765625 450.484375 11.453125 447.769531 C 11.335938 447.722656 11.296875 447.636719 11.339844 447.519531 C 24.65625 408.800781 37.199219 371.519531 50.011719 333.882812 C 53.238281 324.40625 56.875 313.683594 60.914062 301.714844 C 63.792969 293.179688 69.621094 285.25 78.03125 281.574219 C 78.949219 281.175781 81.261719 280.320312 84.957031 279.007812 C 90.976562 276.875 97.03125 274.824219 103.113281 272.851562 Z M 132.613281 347.574219 C 132.613281 347.128906 132.53125 346.707031 132.359375 346.296875 C 132.191406 345.890625 131.953125 345.527344 131.640625 345.214844 C 131.328125 344.902344 130.96875 344.664062 130.558594 344.492188 C 130.152344 344.324219 129.726562 344.238281 129.285156 344.238281 C 128.84375 344.238281 128.421875 344.324219 128.011719 344.492188 C 127.605469 344.664062 127.246094 344.902344 126.933594 345.214844 C 126.621094 345.527344 126.378906 345.890625 126.210938 346.296875 C 126.042969 346.707031 125.957031 347.128906 125.957031 347.574219 C 125.957031 348.015625 126.042969 348.4375 126.210938 348.847656 C 126.378906 349.253906 126.621094 349.617188 126.933594 349.929688 C 127.246094 350.242188 127.605469 350.480469 128.011719 350.652344 C 128.421875 350.820312 128.84375 350.90625 129.285156 350.90625 C 129.726562 350.90625 130.152344 350.820312 130.558594 350.652344 C 130.96875 350.480469 131.328125 350.242188 131.640625 349.929688 C 131.953125 349.617188 132.191406 349.253906 132.359375 348.847656 C 132.53125 348.4375 132.613281 348.015625 132.613281 347.574219 Z M 132.480469 390.75 C 132.480469 390.320312 132.398438 389.90625 132.234375 389.507812 C 132.070312 389.113281 131.835938 388.761719 131.535156 388.457031 C 131.230469 388.15625 130.878906 387.921875 130.484375 387.757812 C 130.085938 387.59375 129.675781 387.511719 129.246094 387.511719 C 128.816406 387.511719 128.402344 387.59375 128.007812 387.757812 C 127.609375 387.921875 127.261719 388.15625 126.957031 388.457031 C 126.65625 388.761719 126.421875 389.113281 126.257812 389.507812 C 126.09375 389.90625 126.011719 390.320312 126.011719 390.75 C 126.011719 391.179688 126.09375 391.59375 126.257812 391.988281 C 126.421875 392.386719 126.65625 392.734375 126.957031 393.039062 C 127.261719 393.34375 127.609375 393.578125 128.007812 393.742188 C 128.402344 393.90625 128.816406 393.988281 129.246094 393.988281 C 129.675781 393.988281 130.085938 393.90625 130.484375 393.742188 C 130.878906 393.578125 131.230469 393.34375 131.535156 393.039062 C 131.835938 392.734375 132.070312 392.386719 132.234375 391.988281 C 132.398438 391.59375 132.480469 391.179688 132.480469 390.75 Z M 132.527344 439.261719 C 132.527344 438.828125 132.445312 438.410156 132.28125 438.007812 C 132.113281 437.605469 131.878906 437.253906 131.570312 436.945312 C 131.265625 436.640625 130.910156 436.402344 130.511719 436.238281 C 130.109375 436.070312 129.695312 435.988281 129.261719 435.988281 C 128.828125 435.988281 128.410156 436.070312 128.007812 436.238281 C 127.609375 436.402344 127.253906 436.640625 126.949219 436.945312 C 126.644531 437.253906 126.40625 437.605469 126.242188 438.007812 C 126.074219 438.410156 125.992188 438.828125 125.992188 439.261719 C 125.992188 439.695312 126.074219 440.113281 126.242188 440.511719 C 126.40625 440.914062 126.644531 441.265625 126.949219 441.574219 C 127.253906 441.882812 127.609375 442.117188 128.007812 442.285156 C 128.410156 442.449219 128.828125 442.53125 129.261719 442.53125 C 129.695312 442.53125 130.109375 442.449219 130.511719 442.285156 C 130.910156 442.117188 131.265625 441.882812 131.570312 441.574219 C 131.878906 441.265625 132.113281 440.914062 132.28125 440.511719 C 132.445312 440.113281 132.527344 439.695312 132.527344 439.261719 Z M 132.53125 480.847656 C 132.53125 480.414062 132.449219 479.996094 132.285156 479.59375 C 132.117188 479.195312 131.882812 478.839844 131.574219 478.53125 C 131.269531 478.226562 130.914062 477.988281 130.515625 477.824219 C 130.113281 477.65625 129.699219 477.574219 129.265625 477.574219 C 128.832031 477.574219 128.414062 477.65625 128.011719 477.824219 C 127.613281 477.988281 127.257812 478.226562 126.953125 478.53125 C 126.644531 478.839844 126.410156 479.195312 126.246094 479.59375 C 126.078125 479.996094 125.996094 480.414062 125.996094 480.847656 C 125.996094 481.28125 126.078125 481.699219 126.246094 482.097656 C 126.410156 482.5 126.644531 482.855469 126.953125 483.160156 C 127.257812 483.46875 127.613281 483.703125 128.011719 483.871094 C 128.414062 484.035156 128.832031 484.121094 129.265625 484.121094 C 129.699219 484.121094 130.113281 484.035156 130.515625 483.871094 C 130.914062 483.703125 131.269531 483.46875 131.574219 483.160156 C 131.882812 482.855469 132.117188 482.5 132.285156 482.097656 C 132.449219 481.699219 132.53125 481.28125 132.53125 480.847656 Z M 132.53125 480.847656 " fill-opacity="1" fill-rule="nonzero"/></g><g clip-path="url(#43e6610c72)"><path fill="#ffffff" d="M 239.527344 455.257812 C 236.8125 452.753906 234.671875 450.238281 233.105469 447.710938 C 231.007812 444.324219 229.425781 441.453125 228.363281 439.097656 C 222.886719 426.992188 218.089844 416.421875 213.960938 407.382812 C 212.484375 404.15625 210.855469 400.300781 209.941406 397.738281 C 209.105469 395.390625 208.492188 393.109375 208.105469 390.898438 C 207.167969 385.527344 207.984375 380.554688 210.558594 375.980469 C 211.578125 374.164062 212.769531 372.34375 214.128906 370.523438 C 214.335938 370.25 214.488281 369.878906 214.589844 369.40625 C 214.601562 369.347656 214.589844 369.292969 214.546875 369.25 C 214.503906 369.203125 214.453125 369.183594 214.390625 369.191406 C 212.484375 369.441406 210.445312 370.417969 208.554688 371.148438 C 206.023438 372.128906 202.777344 373.109375 200.3125 371.933594 C 198.816406 371.21875 199.148438 369.128906 199.433594 367.886719 C 200.230469 364.453125 201.355469 361.46875 202.777344 357.210938 C 203.503906 355.050781 204.28125 352.234375 204.058594 349.820312 C 204.046875 349.710938 204.015625 349.613281 203.960938 349.519531 C 203.90625 349.425781 203.835938 349.347656 203.75 349.285156 C 203.660156 349.222656 203.566406 349.179688 203.460938 349.160156 C 203.355469 349.136719 203.25 349.140625 203.144531 349.164062 C 202.296875 349.371094 201.589844 349.832031 201.015625 350.546875 C 200.074219 351.726562 198.96875 352.988281 197.695312 354.335938 C 197.214844 354.839844 196.703125 355.203125 196.152344 355.425781 C 195.941406 355.515625 195.722656 355.519531 195.507812 355.4375 C 195.289062 355.359375 195.125 355.214844 195.019531 355.007812 C 194.070312 353.203125 194.078125 350.621094 193.953125 348.617188 C 193.234375 337.117188 193.613281 324.234375 193.816406 312.03125 C 194.128906 306.601562 194.671875 301.199219 195.441406 295.820312 C 195.445312 295.796875 195.4375 295.785156 195.414062 295.78125 L 195.320312 295.757812 C 195.234375 295.742188 195.179688 295.773438 195.160156 295.859375 C 193.03125 304.324219 191.527344 312.402344 190.65625 320.089844 C 190.164062 324.4375 189.332031 332.695312 188.164062 344.871094 C 187.9375 345.769531 187.8125 346.335938 187.785156 346.570312 C 187.238281 351.035156 186.753906 354.714844 186.328125 357.597656 C 185.757812 361.511719 185.457031 365.234375 184.792969 369.933594 C 184.449219 372.371094 183.441406 381.566406 181.777344 397.519531 C 180.660156 408.234375 181.292969 421.253906 181.492188 428.4375 C 181.496094 428.648438 181.542969 428.996094 181.632812 429.476562 C 181.738281 430.0625 181.636719 430.34375 181.320312 430.316406 L 158.375 430.386719 C 158.304688 430.386719 158.246094 430.410156 158.199219 430.457031 C 158.148438 430.507812 158.125 430.566406 158.125 430.632812 C 158.152344 445.039062 158.140625 456.882812 158.09375 466.171875 C 158.058594 472.4375 160.914062 477.90625 167.238281 479.820312 C 168.757812 480.28125 170.410156 480.5 172.199219 480.472656 C 175.746094 480.414062 179.308594 480.367188 182.894531 480.34375 C 182.808594 482.445312 182.800781 484.257812 182.859375 485.769531 C 183.324219 497.363281 183.621094 507.398438 183.742188 515.867188 C 183.84375 522.761719 183.378906 529.292969 178.175781 534.324219 C 176.585938 535.859375 175.097656 537.019531 173.710938 537.808594 C 172.699219 538.382812 171.914062 538.988281 171.351562 539.617188 C 170.0625 539.839844 169.046875 539.972656 168.296875 540.019531 C 157.894531 540.691406 147.480469 540.960938 137.058594 540.824219 C 137.210938 540.21875 137.277344 539.605469 137.253906 538.984375 C 137.105469 535.261719 137.238281 530.40625 137.234375 527.839844 C 137.195312 509.484375 137.183594 492.425781 137.203125 476.667969 C 137.207031 472.386719 137.210938 468.054688 137.210938 463.667969 C 137.214844 446.480469 137.199219 429.3125 137.164062 412.152344 C 137.136719 400.851562 137.21875 392.816406 137.15625 380.082031 C 137.144531 377.554688 137.152344 366.007812 137.179688 345.445312 C 137.179688 343.425781 137.207031 341.820312 137.257812 340.632812 C 137.304688 339.605469 137.171875 338.71875 137.109375 337.507812 C 137.097656 337.246094 137.179688 337.015625 137.347656 336.816406 L 162.5625 307.535156 C 162.769531 307.292969 162.8125 307.023438 162.6875 306.726562 L 158.152344 295.78125 C 158.105469 295.671875 158.109375 295.5625 158.164062 295.457031 C 158.21875 295.351562 158.304688 295.285156 158.417969 295.253906 L 168.566406 292.679688 C 168.75 292.632812 168.832031 292.515625 168.808594 292.328125 L 166.5 272.859375 C 169.230469 273.734375 174.585938 275.527344 182.5625 278.234375 C 187.550781 279.929688 191.414062 281.109375 195.011719 283.34375 C 200.070312 286.488281 203.886719 290.792969 206.46875 296.261719 C 207.699219 298.871094 208.664062 301.175781 209.632812 304.03125 C 224.234375 347.09375 232.996094 373.140625 241.023438 396.582031 C 245.933594 410.917969 251.320312 426.734375 257.191406 444.03125 C 257.464844 444.835938 257.84375 445.980469 258.324219 447.457031 C 258.355469 447.554688 258.351562 447.652344 258.308594 447.746094 C 258.265625 447.839844 258.195312 447.90625 258.101562 447.945312 C 251.921875 450.570312 245.734375 453.007812 239.527344 455.257812 Z M 182.675781 333.742188 L 149.15625 333.742188 C 149.097656 333.742188 149.066406 333.773438 149.066406 333.835938 L 149.066406 358.109375 C 149.066406 358.792969 149.128906 359.464844 149.253906 360.132812 C 149.382812 360.800781 149.570312 361.449219 149.816406 362.078125 C 150.066406 362.707031 150.371094 363.304688 150.730469 363.871094 C 151.089844 364.433594 151.5 364.957031 151.957031 365.441406 C 152.417969 365.921875 152.914062 366.351562 153.453125 366.730469 C 153.992188 367.105469 154.5625 367.425781 155.160156 367.6875 C 155.761719 367.945312 156.378906 368.144531 157.015625 368.277344 C 157.652344 368.410156 158.292969 368.476562 158.941406 368.476562 L 172.890625 368.476562 C 173.539062 368.476562 174.183594 368.410156 174.820312 368.277344 C 175.453125 368.144531 176.070312 367.945312 176.671875 367.6875 C 177.269531 367.425781 177.839844 367.105469 178.378906 366.730469 C 178.917969 366.351562 179.417969 365.921875 179.875 365.441406 C 180.332031 364.957031 180.742188 364.433594 181.101562 363.871094 C 181.464844 363.304688 181.769531 362.707031 182.015625 362.078125 C 182.265625 361.449219 182.453125 360.800781 182.578125 360.132812 C 182.703125 359.464844 182.769531 358.792969 182.769531 358.109375 L 182.769531 333.835938 C 182.769531 333.773438 182.738281 333.742188 182.675781 333.742188 Z M 182.675781 333.742188 " fill-opacity="1" fill-rule="nonzero"/></g><path fill="#c8c8c8" d="M 193.816406 312.03125 C 193.292969 313.828125 192.933594 315.660156 192.746094 317.527344 C 192.132812 323.5625 191.414062 329.707031 191.171875 335.675781 C 191.011719 339.59375 190.855469 343.511719 190.691406 347.425781 C 190.382812 354.949219 190.566406 363.167969 191.246094 372.085938 C 191.378906 373.839844 191.132812 375.546875 190.507812 377.210938 C 190.398438 376.648438 190.234375 376.414062 190.015625 376.511719 C 189.144531 370.542969 188.6875 365.53125 188.640625 361.476562 C 188.597656 357.402344 188.558594 353.328125 188.523438 349.253906 C 188.507812 347.761719 188.335938 346.332031 188.164062 344.871094 C 189.332031 332.695312 190.164062 324.4375 190.65625 320.089844 C 191.527344 312.402344 193.03125 304.324219 195.160156 295.859375 C 195.179688 295.773438 195.234375 295.742188 195.320312 295.757812 L 195.414062 295.78125 C 195.4375 295.785156 195.445312 295.796875 195.441406 295.820312 C 194.671875 301.199219 194.128906 306.601562 193.816406 312.03125 Z M 193.816406 312.03125 " fill-opacity="1" fill-rule="nonzero"/><path fill="#c8c8c8" d="M 81.46875 343.328125 C 81.191406 344.855469 81.070312 346.394531 81.113281 347.953125 C 81.253906 353.074219 81.1875 358.191406 80.917969 363.304688 C 80.847656 364.644531 80.636719 366.878906 80.292969 370.003906 C 80.050781 372.257812 79.867188 374.5 79.753906 376.722656 C 79.425781 376.980469 79.179688 377.328125 79.019531 377.769531 C 78.769531 376.789062 78.65625 375.929688 78.679688 375.191406 C 78.957031 366.679688 79.339844 359.503906 79.230469 352.835938 C 79.070312 343.101562 78.679688 334.875 78.058594 328.15625 C 77.703125 324.34375 77.488281 321.9375 77.410156 320.941406 C 77.160156 317.722656 76.503906 314.425781 75.933594 311.171875 C 75.621094 306.277344 75.121094 301.398438 74.433594 296.535156 C 74.414062 296.410156 74.46875 296.339844 74.589844 296.316406 L 74.597656 296.316406 C 74.703125 296.300781 74.765625 296.339844 74.789062 296.441406 C 76.320312 302.992188 77.386719 308.332031 77.988281 312.460938 C 78.253906 314.304688 78.589844 316.789062 79 319.914062 C 80.023438 327.683594 80.691406 335.523438 81.46875 343.328125 Z M 81.46875 343.328125 " fill-opacity="1" fill-rule="nonzero"/><path fill="#e8e8e8" d="M 79.019531 377.769531 C 78.605469 378.683594 78.285156 379.703125 77.894531 380.539062 C 69.183594 399.296875 61.53125 415.75 54.929688 429.902344 C 50.089844 440.273438 46.003906 449.355469 41.425781 459.085938 C 41.398438 459.140625 41.359375 459.15625 41.304688 459.136719 L 30.214844 455.191406 C 33.574219 452.132812 36.347656 448.617188 38.539062 444.636719 C 40.042969 441.910156 41.03125 440.015625 41.507812 438.960938 C 48.242188 424.019531 52.945312 413.683594 55.617188 407.960938 C 57.679688 403.539062 59.273438 399.6875 60.402344 396.410156 C 61.039062 394.570312 61.515625 392.425781 61.835938 389.972656 C 62.589844 384.210938 61.355469 378.785156 58.039062 374.007812 C 56.976562 372.464844 56.058594 371.050781 55.296875 369.761719 C 55.25 369.679688 55.246094 369.59375 55.289062 369.511719 C 55.332031 369.425781 55.398438 369.378906 55.492188 369.367188 C 55.945312 369.316406 56.414062 369.371094 56.894531 369.539062 C 61.074219 370.976562 63.207031 371.710938 63.292969 371.738281 C 65.171875 372.324219 70.660156 373.492188 70.46875 369.863281 C 70.386719 368.292969 70.214844 367.101562 69.945312 366.28125 C 69.078125 363.613281 68.121094 360.640625 67.078125 357.367188 C 66.292969 354.898438 65.523438 352.199219 65.671875 349.847656 C 65.6875 349.628906 65.757812 349.445312 65.886719 349.292969 C 66.015625 349.140625 66.167969 349.058594 66.347656 349.046875 C 67.265625 348.984375 68.621094 350.277344 69.246094 351.082031 C 70.480469 352.683594 71.820312 354.105469 73.269531 355.351562 C 73.421875 355.480469 73.59375 355.539062 73.789062 355.535156 C 73.984375 355.527344 74.15625 355.457031 74.292969 355.316406 C 74.683594 354.9375 74.9375 354.488281 75.054688 353.96875 C 75.335938 352.726562 75.550781 350.941406 75.699219 348.605469 C 76.0625 342.660156 76.261719 334.972656 76.292969 325.539062 C 76.308594 321.125 76.023438 315.96875 75.933594 311.171875 C 76.503906 314.425781 77.160156 317.722656 77.410156 320.941406 C 77.488281 321.9375 77.703125 324.34375 78.058594 328.15625 C 78.679688 334.875 79.070312 343.101562 79.230469 352.835938 C 79.339844 359.503906 78.957031 366.679688 78.679688 375.191406 C 78.65625 375.929688 78.769531 376.789062 79.019531 377.769531 Z M 79.019531 377.769531 " fill-opacity="1" fill-rule="nonzero"/><path fill="#e8e8e8" d="M 193.816406 312.03125 C 193.613281 324.234375 193.234375 337.117188 193.953125 348.617188 C 194.078125 350.621094 194.070312 353.203125 195.019531 355.007812 C 195.125 355.214844 195.289062 355.359375 195.507812 355.4375 C 195.722656 355.519531 195.941406 355.515625 196.152344 355.425781 C 196.703125 355.203125 197.214844 354.839844 197.695312 354.335938 C 198.96875 352.988281 200.074219 351.726562 201.015625 350.546875 C 201.589844 349.832031 202.296875 349.371094 203.144531 349.164062 C 203.25 349.140625 203.355469 349.136719 203.460938 349.160156 C 203.566406 349.179688 203.660156 349.222656 203.75 349.285156 C 203.835938 349.347656 203.90625 349.425781 203.960938 349.519531 C 204.015625 349.613281 204.046875 349.710938 204.058594 349.820312 C 204.28125 352.234375 203.503906 355.050781 202.777344 357.210938 C 201.355469 361.46875 200.230469 364.453125 199.433594 367.886719 C 199.148438 369.128906 198.816406 371.21875 200.3125 371.933594 C 202.777344 373.109375 206.023438 372.128906 208.554688 371.148438 C 210.445312 370.417969 212.484375 369.441406 214.390625 369.191406 C 214.453125 369.183594 214.503906 369.203125 214.546875 369.25 C 214.589844 369.292969 214.601562 369.347656 214.589844 369.40625 C 214.488281 369.878906 214.335938 370.25 214.128906 370.523438 C 212.769531 372.34375 211.578125 374.164062 210.558594 375.980469 C 207.984375 380.554688 207.167969 385.527344 208.105469 390.898438 C 208.492188 393.109375 209.105469 395.390625 209.941406 397.738281 C 210.855469 400.300781 212.484375 404.15625 213.960938 407.382812 C 218.089844 416.421875 222.886719 426.992188 228.363281 439.097656 C 229.425781 441.453125 231.007812 444.324219 233.105469 447.710938 C 234.671875 450.238281 236.8125 452.753906 239.527344 455.257812 L 228.777344 459.054688 C 228.667969 459.09375 228.558594 459.09375 228.453125 459.046875 C 228.34375 459 228.265625 458.925781 228.21875 458.820312 L 190.507812 377.210938 C 191.132812 375.546875 191.378906 373.839844 191.246094 372.085938 C 190.566406 363.167969 190.382812 354.949219 190.691406 347.425781 C 190.855469 343.511719 191.011719 339.59375 191.171875 335.675781 C 191.414062 329.707031 192.132812 323.5625 192.746094 317.527344 C 192.933594 315.660156 193.292969 313.828125 193.816406 312.03125 Z M 193.816406 312.03125 " fill-opacity="1" fill-rule="nonzero"/><path fill="#e8e8e8" d="M 182.675781 333.742188 C 182.738281 333.742188 182.769531 333.773438 182.769531 333.835938 L 182.769531 358.109375 C 182.769531 358.792969 182.703125 359.464844 182.578125 360.132812 C 182.453125 360.800781 182.265625 361.449219 182.015625 362.078125 C 181.769531 362.707031 181.464844 363.304688 181.101562 363.871094 C 180.742188 364.433594 180.332031 364.957031 179.875 365.441406 C 179.417969 365.921875 178.917969 366.351562 178.378906 366.730469 C 177.839844 367.105469 177.269531 367.425781 176.671875 367.6875 C 176.070312 367.945312 175.453125 368.144531 174.820312 368.277344 C 174.183594 368.410156 173.539062 368.476562 172.890625 368.476562 L 158.941406 368.476562 C 158.292969 368.476562 157.652344 368.410156 157.015625 368.277344 C 156.378906 368.144531 155.761719 367.945312 155.160156 367.6875 C 154.5625 367.425781 153.992188 367.105469 153.453125 366.730469 C 152.914062 366.351562 152.417969 365.921875 151.957031 365.441406 C 151.5 364.957031 151.089844 364.433594 150.730469 363.871094 C 150.371094 363.304688 150.066406 362.707031 149.816406 362.078125 C 149.570312 361.449219 149.382812 360.800781 149.253906 360.132812 C 149.128906 359.464844 149.066406 358.792969 149.066406 358.109375 L 149.066406 333.835938 C 149.066406 333.773438 149.097656 333.742188 149.15625 333.742188 Z M 150.703125 335.042969 C 150.640625 335.039062 150.585938 335.0625 150.539062 335.105469 C 150.496094 335.152344 150.472656 335.207031 150.476562 335.269531 C 150.683594 342.648438 150.542969 348.453125 150.703125 357.121094 C 150.734375 358.871094 150.847656 360.054688 151.046875 360.671875 C 151.964844 363.5625 154.042969 365.777344 157.007812 366.59375 C 157.492188 366.726562 159.210938 366.78125 162.164062 366.757812 C 163.582031 366.746094 167.234375 366.722656 173.121094 366.683594 C 177.515625 366.65625 180.777344 363.132812 181.082031 358.800781 C 181.132812 358.125 181.164062 357.296875 181.171875 356.308594 C 181.199219 353.382812 181.199219 346.402344 181.167969 335.371094 C 181.167969 335.242188 181.105469 335.175781 180.976562 335.171875 C 177.929688 335.074219 176.113281 335.035156 175.535156 335.0625 C 174.070312 335.117188 172.625 335.066406 171.195312 334.910156 C 167.785156 334.535156 164.691406 334.492188 161.597656 334.886719 C 160.160156 335.070312 158.554688 335.152344 156.785156 335.132812 C 154.652344 335.105469 152.625 335.078125 150.703125 335.042969 Z M 150.703125 335.042969 " fill-opacity="1" fill-rule="nonzero"/><path fill="#ffffff" d="M 150.703125 335.042969 C 152.625 335.078125 154.652344 335.105469 156.785156 335.132812 C 158.554688 335.152344 160.160156 335.070312 161.597656 334.886719 C 164.691406 334.492188 167.785156 334.535156 171.195312 334.910156 C 172.625 335.066406 174.070312 335.117188 175.535156 335.0625 C 176.113281 335.035156 177.929688 335.074219 180.976562 335.171875 C 181.105469 335.175781 181.167969 335.242188 181.167969 335.371094 C 181.199219 346.402344 181.199219 353.382812 181.171875 356.308594 C 181.164062 357.296875 181.132812 358.125 181.082031 358.800781 C 180.777344 363.132812 177.515625 366.65625 173.121094 366.683594 C 167.234375 366.722656 163.582031 366.746094 162.164062 366.757812 C 159.210938 366.78125 157.492188 366.726562 157.007812 366.59375 C 154.042969 365.777344 151.964844 363.5625 151.046875 360.671875 C 150.847656 360.054688 150.734375 358.871094 150.703125 357.121094 C 150.542969 348.453125 150.683594 342.648438 150.476562 335.269531 C 150.472656 335.207031 150.496094 335.152344 150.539062 335.105469 C 150.585938 335.0625 150.640625 335.039062 150.703125 335.042969 Z M 150.703125 335.042969 " fill-opacity="1" fill-rule="nonzero"/><path fill="#e8e8e8" d="M 88.054688 430.28125 C 85.160156 430.453125 82.261719 430.519531 79.355469 430.476562 C 78.652344 430.46875 77.90625 430.695312 77.117188 431.160156 C 77.09375 429.636719 77.128906 428.121094 77.21875 426.613281 C 77.699219 418.6875 78.136719 410.757812 78.53125 402.828125 C 78.53125 402.8125 78.757812 398.734375 79.214844 390.597656 C 79.472656 385.988281 79.652344 381.363281 79.753906 376.722656 C 79.867188 374.5 80.050781 372.257812 80.292969 370.003906 C 80.636719 366.878906 80.847656 364.644531 80.917969 363.304688 C 81.1875 358.191406 81.253906 353.074219 81.113281 347.953125 C 81.070312 346.394531 81.191406 344.855469 81.46875 343.328125 C 81.949219 345.34375 82.261719 346.886719 82.414062 347.953125 C 84.605469 363.289062 86.421875 378.675781 87.859375 394.117188 C 88.003906 395.707031 88.109375 397.128906 88.175781 398.382812 C 88.269531 400.261719 88.460938 402.167969 88.515625 404.074219 C 88.765625 412.765625 88.613281 421.503906 88.054688 430.28125 Z M 88.054688 430.28125 " fill-opacity="1" fill-rule="nonzero"/><path fill="#e8e8e8" d="M 132.613281 347.574219 C 132.613281 348.015625 132.53125 348.4375 132.359375 348.847656 C 132.191406 349.253906 131.953125 349.617188 131.640625 349.929688 C 131.328125 350.242188 130.96875 350.480469 130.558594 350.652344 C 130.152344 350.820312 129.726562 350.90625 129.285156 350.90625 C 128.84375 350.90625 128.421875 350.820312 128.011719 350.652344 C 127.605469 350.480469 127.246094 350.242188 126.933594 349.929688 C 126.621094 349.617188 126.378906 349.253906 126.210938 348.847656 C 126.042969 348.4375 125.957031 348.015625 125.957031 347.574219 C 125.957031 347.128906 126.042969 346.707031 126.210938 346.296875 C 126.378906 345.890625 126.621094 345.527344 126.933594 345.214844 C 127.246094 344.902344 127.605469 344.664062 128.011719 344.492188 C 128.421875 344.324219 128.84375 344.238281 129.285156 344.238281 C 129.726562 344.238281 130.152344 344.324219 130.558594 344.492188 C 130.96875 344.664062 131.328125 344.902344 131.640625 345.214844 C 131.953125 345.527344 132.191406 345.890625 132.359375 346.296875 C 132.53125 346.707031 132.613281 347.128906 132.613281 347.574219 Z M 131.785156 347.53125 C 131.785156 347.191406 131.722656 346.867188 131.59375 346.554688 C 131.464844 346.242188 131.28125 345.964844 131.039062 345.726562 C 130.800781 345.488281 130.527344 345.304688 130.214844 345.171875 C 129.902344 345.042969 129.578125 344.980469 129.238281 344.980469 C 128.898438 344.980469 128.574219 345.042969 128.261719 345.171875 C 127.949219 345.304688 127.675781 345.488281 127.4375 345.726562 C 127.195312 345.964844 127.011719 346.242188 126.882812 346.554688 C 126.753906 346.867188 126.6875 347.191406 126.6875 347.53125 C 126.6875 347.871094 126.753906 348.195312 126.882812 348.507812 C 127.011719 348.820312 127.195312 349.097656 127.4375 349.335938 C 127.675781 349.574219 127.949219 349.757812 128.261719 349.890625 C 128.574219 350.019531 128.898438 350.082031 129.238281 350.082031 C 129.578125 350.082031 129.902344 350.019531 130.214844 349.890625 C 130.527344 349.757812 130.800781 349.574219 131.039062 349.335938 C 131.28125 349.097656 131.464844 348.820312 131.59375 348.507812 C 131.722656 348.195312 131.785156 347.871094 131.785156 347.53125 Z M 131.785156 347.53125 " fill-opacity="1" fill-rule="nonzero"/><path fill="#e8e8e8" d="M 188.164062 344.871094 C 188.335938 346.332031 188.507812 347.761719 188.523438 349.253906 C 188.558594 353.328125 188.597656 357.402344 188.640625 361.476562 C 188.6875 365.53125 189.144531 370.542969 190.015625 376.511719 C 189.949219 377.785156 189.960938 379.058594 190.046875 380.339844 C 190.171875 382.210938 190.238281 383.15625 190.238281 383.175781 C 190.933594 398.402344 191.746094 413.625 192.679688 428.835938 C 192.71875 429.476562 192.71875 430.09375 192.679688 430.691406 C 188.851562 430.785156 185.066406 430.660156 181.320312 430.316406 C 181.636719 430.34375 181.738281 430.0625 181.632812 429.476562 C 181.542969 428.996094 181.496094 428.648438 181.492188 428.4375 C 181.292969 421.253906 180.660156 408.234375 181.777344 397.519531 C 183.441406 381.566406 184.449219 372.371094 184.792969 369.933594 C 185.457031 365.234375 185.757812 361.511719 186.328125 357.597656 C 186.753906 354.714844 187.238281 351.035156 187.785156 346.570312 C 187.8125 346.335938 187.9375 345.769531 188.164062 344.871094 Z M 188.164062 344.871094 " fill-opacity="1" fill-rule="nonzero"/><path fill="#ffffff" d="M 131.785156 347.53125 C 131.785156 347.871094 131.722656 348.195312 131.59375 348.507812 C 131.464844 348.820312 131.28125 349.097656 131.039062 349.335938 C 130.800781 349.574219 130.527344 349.757812 130.214844 349.890625 C 129.902344 350.019531 129.578125 350.082031 129.238281 350.082031 C 128.898438 350.082031 128.574219 350.019531 128.261719 349.890625 C 127.949219 349.757812 127.675781 349.574219 127.4375 349.335938 C 127.195312 349.097656 127.011719 348.820312 126.882812 348.507812 C 126.753906 348.195312 126.6875 347.871094 126.6875 347.53125 C 126.6875 347.191406 126.753906 346.867188 126.882812 346.554688 C 127.011719 346.242188 127.195312 345.964844 127.4375 345.726562 C 127.675781 345.488281 127.949219 345.304688 128.261719 345.171875 C 128.574219 345.042969 128.898438 344.980469 129.238281 344.980469 C 129.578125 344.980469 129.902344 345.042969 130.214844 345.171875 C 130.527344 345.304688 130.800781 345.488281 131.039062 345.726562 C 131.28125 345.964844 131.464844 346.242188 131.59375 346.554688 C 131.722656 346.867188 131.785156 347.191406 131.785156 347.53125 Z M 131.785156 347.53125 " fill-opacity="1" fill-rule="nonzero"/><path fill="#c8c8c8" d="M 132.480469 390.75 C 132.480469 391.179688 132.398438 391.59375 132.234375 391.988281 C 132.070312 392.386719 131.835938 392.734375 131.535156 393.039062 C 131.230469 393.34375 130.878906 393.578125 130.484375 393.742188 C 130.085938 393.90625 129.675781 393.988281 129.246094 393.988281 C 128.816406 393.988281 128.402344 393.90625 128.007812 393.742188 C 127.609375 393.578125 127.261719 393.34375 126.957031 393.039062 C 126.65625 392.734375 126.421875 392.386719 126.257812 391.988281 C 126.09375 391.59375 126.011719 391.179688 126.011719 390.75 C 126.011719 390.320312 126.09375 389.90625 126.257812 389.507812 C 126.421875 389.113281 126.65625 388.761719 126.957031 388.457031 C 127.261719 388.15625 127.609375 387.921875 128.007812 387.757812 C 128.402344 387.59375 128.816406 387.511719 129.246094 387.511719 C 129.675781 387.511719 130.085938 387.59375 130.484375 387.757812 C 130.878906 387.921875 131.230469 388.15625 131.535156 388.457031 C 131.835938 388.761719 132.070312 389.113281 132.234375 389.507812 C 132.398438 389.90625 132.480469 390.320312 132.480469 390.75 Z M 131.808594 390.703125 C 131.808594 390.355469 131.742188 390.015625 131.609375 389.695312 C 131.476562 389.371094 131.285156 389.085938 131.035156 388.835938 C 130.789062 388.589844 130.503906 388.398438 130.179688 388.265625 C 129.859375 388.128906 129.519531 388.0625 129.171875 388.0625 C 128.820312 388.0625 128.484375 388.128906 128.160156 388.265625 C 127.839844 388.398438 127.554688 388.589844 127.304688 388.835938 C 127.058594 389.085938 126.867188 389.371094 126.734375 389.695312 C 126.601562 390.015625 126.535156 390.355469 126.535156 390.703125 C 126.535156 391.054688 126.601562 391.390625 126.734375 391.714844 C 126.867188 392.039062 127.058594 392.324219 127.304688 392.570312 C 127.554688 392.820312 127.839844 393.011719 128.160156 393.144531 C 128.484375 393.277344 128.820312 393.34375 129.171875 393.34375 C 129.519531 393.34375 129.859375 393.277344 130.179688 393.144531 C 130.503906 393.011719 130.789062 392.820312 131.035156 392.570312 C 131.285156 392.324219 131.476562 392.039062 131.609375 391.714844 C 131.742188 391.390625 131.808594 391.054688 131.808594 390.703125 Z M 131.808594 390.703125 " fill-opacity="1" fill-rule="nonzero"/><path fill="#ffffff" d="M 131.808594 390.703125 C 131.808594 391.054688 131.742188 391.390625 131.609375 391.714844 C 131.476562 392.039062 131.285156 392.324219 131.035156 392.570312 C 130.789062 392.820312 130.503906 393.011719 130.179688 393.144531 C 129.859375 393.277344 129.519531 393.34375 129.171875 393.34375 C 128.820312 393.34375 128.484375 393.277344 128.160156 393.144531 C 127.839844 393.011719 127.554688 392.820312 127.304688 392.570312 C 127.058594 392.324219 126.867188 392.039062 126.734375 391.714844 C 126.601562 391.390625 126.535156 391.054688 126.535156 390.703125 C 126.535156 390.355469 126.601562 390.015625 126.734375 389.695312 C 126.867188 389.371094 127.058594 389.085938 127.304688 388.835938 C 127.554688 388.589844 127.839844 388.398438 128.160156 388.265625 C 128.484375 388.128906 128.820312 388.0625 129.171875 388.0625 C 129.519531 388.0625 129.859375 388.128906 130.179688 388.265625 C 130.503906 388.398438 130.789062 388.589844 131.035156 388.835938 C 131.285156 389.085938 131.476562 389.371094 131.609375 389.695312 C 131.742188 390.015625 131.808594 390.355469 131.808594 390.703125 Z M 131.808594 390.703125 " fill-opacity="1" fill-rule="nonzero"/><path fill="#c8c8c8" d="M 88.054688 430.28125 L 111.253906 430.457031 C 111.355469 430.457031 111.4375 430.492188 111.507812 430.5625 C 111.578125 430.628906 111.613281 430.714844 111.613281 430.8125 C 111.613281 448.0625 111.625 460.128906 111.644531 467.007812 C 111.664062 473.988281 106.476562 480.234375 99.289062 480.34375 C 95.300781 480.402344 91.21875 480.429688 87.046875 480.417969 C 84.175781 480.09375 82.136719 479.964844 80.921875 480.027344 C 78.148438 480.171875 76.628906 480.230469 74.644531 479.828125 L 74.738281 478.230469 C 78.480469 478.710938 82.222656 478.789062 85.957031 478.46875 C 86.53125 478.421875 87.183594 478.367188 87.910156 478.300781 C 93.777344 478.546875 97.785156 478.566406 99.9375 478.371094 C 104.59375 477.9375 107.890625 474.871094 109.257812 470.496094 C 109.585938 469.457031 109.75 466.859375 109.757812 462.707031 C 109.765625 452.226562 109.777344 442.179688 109.785156 432.570312 C 109.785156 432.472656 109.753906 432.390625 109.683594 432.324219 C 109.617188 432.253906 109.535156 432.222656 109.4375 432.222656 L 77.023438 432.171875 L 77.117188 431.160156 C 77.90625 430.695312 78.652344 430.46875 79.355469 430.476562 C 82.261719 430.519531 85.160156 430.453125 88.054688 430.28125 Z M 88.054688 430.28125 " fill-opacity="1" fill-rule="nonzero"/><path fill="#c8c8c8" d="M 181.320312 430.316406 C 185.066406 430.660156 188.851562 430.785156 192.679688 430.691406 L 192.703125 431.898438 C 191.65625 431.992188 190.601562 432.027344 189.542969 432.007812 C 188.140625 431.980469 187.085938 431.992188 186.382812 432.035156 C 183.863281 432.1875 181.703125 432.269531 179.894531 432.277344 C 169.300781 432.320312 162.699219 432.328125 160.09375 432.296875 C 159.988281 432.296875 159.9375 432.347656 159.941406 432.449219 C 160.0625 443.222656 159.992188 448.640625 160.015625 463.8125 C 160.019531 467.378906 160.21875 469.738281 160.609375 470.886719 C 162.113281 475.277344 165.984375 478.476562 170.804688 478.449219 C 174.855469 478.429688 178.070312 478.421875 180.449219 478.433594 C 180.703125 478.433594 181.222656 478.339844 182.019531 478.148438 C 182.695312 478.320312 183.21875 478.421875 183.589844 478.449219 C 186.769531 478.714844 189.949219 478.726562 193.125 478.496094 C 193.734375 478.449219 194.378906 478.433594 195.070312 478.445312 L 195.148438 480.003906 C 191.9375 480.378906 188.761719 479.890625 185.550781 480.117188 C 184.65625 480.183594 183.769531 480.257812 182.894531 480.34375 C 179.308594 480.367188 175.746094 480.414062 172.199219 480.472656 C 170.410156 480.5 168.757812 480.28125 167.238281 479.820312 C 160.914062 477.90625 158.058594 472.4375 158.09375 466.171875 C 158.140625 456.882812 158.152344 445.039062 158.125 430.632812 C 158.125 430.566406 158.148438 430.507812 158.199219 430.457031 C 158.246094 430.410156 158.304688 430.386719 158.375 430.386719 Z M 181.320312 430.316406 " fill-opacity="1" fill-rule="nonzero"/><path fill="#ffffff" d="M 192.703125 431.898438 L 192.792969 434.867188 C 190.40625 435.820312 188.046875 436.578125 185.710938 437.132812 C 184.613281 437.394531 184.117188 438.097656 184.230469 439.242188 C 184.3125 440.117188 184.449219 440.800781 184.628906 441.296875 C 185.5 443.652344 186.171875 445.847656 186.648438 447.886719 C 187.691406 452.320312 186.835938 455.742188 185.167969 459.746094 C 184.253906 461.929688 184.644531 463.714844 185.140625 465.898438 C 185.703125 468.410156 186.125 472.484375 184.90625 474.902344 C 184.027344 476.640625 183.203125 477.035156 182.019531 478.148438 C 181.222656 478.339844 180.703125 478.433594 180.449219 478.433594 C 178.070312 478.421875 174.855469 478.429688 170.804688 478.449219 C 165.984375 478.476562 162.113281 475.277344 160.609375 470.886719 C 160.21875 469.738281 160.019531 467.378906 160.015625 463.8125 C 159.992188 448.640625 160.0625 443.222656 159.941406 432.449219 C 159.9375 432.347656 159.988281 432.296875 160.09375 432.296875 C 162.699219 432.328125 169.300781 432.320312 179.894531 432.277344 C 181.703125 432.269531 183.863281 432.1875 186.382812 432.035156 C 187.085938 431.992188 188.140625 431.980469 189.542969 432.007812 C 190.601562 432.027344 191.65625 431.992188 192.703125 431.898438 Z M 192.703125 431.898438 " fill-opacity="1" fill-rule="nonzero"/><path fill="#ffffff" d="M 87.910156 478.300781 C 85.820312 476.882812 84.648438 475.113281 84.402344 472.992188 C 84.125 470.613281 84.242188 468.097656 84.742188 465.449219 C 85.136719 463.386719 85.355469 461.660156 84.722656 460.144531 C 83.558594 457.355469 82.570312 454.851562 82.613281 451.472656 C 82.65625 448.238281 83.890625 445.289062 85.152344 441.816406 C 85.585938 440.617188 85.738281 439.683594 85.605469 439.015625 C 85.425781 438.101562 84.9375 437.527344 84.136719 437.300781 C 81.082031 436.421875 78.65625 435.648438 76.859375 434.972656 L 77.023438 432.171875 L 109.4375 432.222656 C 109.535156 432.222656 109.617188 432.253906 109.683594 432.324219 C 109.753906 432.390625 109.785156 432.472656 109.785156 432.570312 C 109.777344 442.179688 109.765625 452.226562 109.757812 462.707031 C 109.75 466.859375 109.585938 469.457031 109.257812 470.496094 C 107.890625 474.871094 104.59375 477.9375 99.9375 478.371094 C 97.785156 478.566406 93.777344 478.546875 87.910156 478.300781 Z M 87.910156 478.300781 " fill-opacity="1" fill-rule="nonzero"/><path fill="#e8e8e8" d="M 87.910156 478.300781 C 87.183594 478.367188 86.53125 478.421875 85.957031 478.46875 C 82.222656 478.789062 78.480469 478.710938 74.738281 478.230469 C 75.035156 471.144531 75.445312 464.0625 75.667969 456.980469 C 75.796875 452.871094 76.195312 445.535156 76.859375 434.972656 C 78.65625 435.648438 81.082031 436.421875 84.136719 437.300781 C 84.9375 437.527344 85.425781 438.101562 85.605469 439.015625 C 85.738281 439.683594 85.585938 440.617188 85.152344 441.816406 C 83.890625 445.289062 82.65625 448.238281 82.613281 451.472656 C 82.570312 454.851562 83.558594 457.355469 84.722656 460.144531 C 85.355469 461.660156 85.136719 463.386719 84.742188 465.449219 C 84.242188 468.097656 84.125 470.613281 84.402344 472.992188 C 84.648438 475.113281 85.820312 476.882812 87.910156 478.300781 Z M 87.910156 478.300781 " fill-opacity="1" fill-rule="nonzero"/><path fill="#e8e8e8" d="M 192.792969 434.867188 L 195.070312 478.445312 C 194.378906 478.433594 193.734375 478.449219 193.125 478.496094 C 189.949219 478.726562 186.769531 478.714844 183.589844 478.449219 C 183.21875 478.421875 182.695312 478.320312 182.019531 478.148438 C 183.203125 477.035156 184.027344 476.640625 184.90625 474.902344 C 186.125 472.484375 185.703125 468.410156 185.140625 465.898438 C 184.644531 463.714844 184.253906 461.929688 185.167969 459.746094 C 186.835938 455.742188 187.691406 452.320312 186.648438 447.886719 C 186.171875 445.847656 185.5 443.652344 184.628906 441.296875 C 184.449219 440.800781 184.3125 440.117188 184.230469 439.242188 C 184.117188 438.097656 184.613281 437.394531 185.710938 437.132812 C 188.046875 436.578125 190.40625 435.820312 192.792969 434.867188 Z M 192.792969 434.867188 " fill-opacity="1" fill-rule="nonzero"/><path fill="#e8e8e8" d="M 132.527344 439.261719 C 132.527344 439.695312 132.445312 440.113281 132.28125 440.511719 C 132.113281 440.914062 131.878906 441.265625 131.570312 441.574219 C 131.265625 441.882812 130.910156 442.117188 130.511719 442.285156 C 130.109375 442.449219 129.695312 442.53125 129.261719 442.53125 C 128.828125 442.53125 128.410156 442.449219 128.007812 442.285156 C 127.609375 442.117188 127.253906 441.882812 126.949219 441.574219 C 126.644531 441.265625 126.40625 440.914062 126.242188 440.511719 C 126.074219 440.113281 125.992188 439.695312 125.992188 439.261719 C 125.992188 438.828125 126.074219 438.410156 126.242188 438.007812 C 126.40625 437.605469 126.644531 437.253906 126.949219 436.945312 C 127.253906 436.640625 127.609375 436.402344 128.007812 436.238281 C 128.410156 436.070312 128.828125 435.988281 129.261719 435.988281 C 129.695312 435.988281 130.109375 436.070312 130.511719 436.238281 C 130.910156 436.402344 131.265625 436.640625 131.570312 436.945312 C 131.878906 437.253906 132.113281 437.605469 132.28125 438.007812 C 132.445312 438.410156 132.527344 438.828125 132.527344 439.261719 Z M 131.816406 439.234375 C 131.816406 438.890625 131.75 438.5625 131.621094 438.246094 C 131.488281 437.929688 131.300781 437.648438 131.058594 437.40625 C 130.816406 437.164062 130.539062 436.976562 130.222656 436.84375 C 129.90625 436.714844 129.578125 436.648438 129.234375 436.648438 C 128.890625 436.648438 128.5625 436.714844 128.246094 436.84375 C 127.929688 436.976562 127.652344 437.164062 127.410156 437.40625 C 127.167969 437.648438 126.980469 437.929688 126.847656 438.246094 C 126.71875 438.5625 126.652344 438.890625 126.652344 439.234375 C 126.652344 439.578125 126.71875 439.90625 126.847656 440.222656 C 126.980469 440.539062 127.167969 440.820312 127.410156 441.0625 C 127.652344 441.304688 127.929688 441.492188 128.246094 441.621094 C 128.5625 441.753906 128.890625 441.820312 129.234375 441.820312 C 129.578125 441.820312 129.90625 441.753906 130.222656 441.621094 C 130.539062 441.492188 130.816406 441.304688 131.058594 441.0625 C 131.300781 440.820312 131.488281 440.539062 131.621094 440.222656 C 131.75 439.90625 131.816406 439.578125 131.816406 439.234375 Z M 131.816406 439.234375 " fill-opacity="1" fill-rule="nonzero"/><path fill="#ffffff" d="M 131.816406 439.234375 C 131.816406 439.578125 131.75 439.90625 131.621094 440.222656 C 131.488281 440.539062 131.300781 440.820312 131.058594 441.0625 C 130.816406 441.304688 130.539062 441.492188 130.222656 441.621094 C 129.90625 441.753906 129.578125 441.820312 129.234375 441.820312 C 128.890625 441.820312 128.5625 441.753906 128.246094 441.621094 C 127.929688 441.492188 127.652344 441.304688 127.410156 441.0625 C 127.167969 440.820312 126.980469 440.539062 126.847656 440.222656 C 126.71875 439.90625 126.652344 439.578125 126.652344 439.234375 C 126.652344 438.890625 126.71875 438.5625 126.847656 438.246094 C 126.980469 437.929688 127.167969 437.648438 127.410156 437.40625 C 127.652344 437.164062 127.929688 436.976562 128.246094 436.84375 C 128.5625 436.714844 128.890625 436.648438 129.234375 436.648438 C 129.578125 436.648438 129.90625 436.714844 130.222656 436.84375 C 130.539062 436.976562 130.816406 437.164062 131.058594 437.40625 C 131.300781 437.648438 131.488281 437.929688 131.621094 438.246094 C 131.75 438.5625 131.816406 438.890625 131.816406 439.234375 Z M 131.816406 439.234375 " fill-opacity="1" fill-rule="nonzero"/><path fill="#e8e8e8" d="M 132.53125 480.847656 C 132.53125 481.28125 132.449219 481.699219 132.285156 482.097656 C 132.117188 482.5 131.882812 482.855469 131.574219 483.160156 C 131.269531 483.46875 130.914062 483.703125 130.515625 483.871094 C 130.113281 484.035156 129.699219 484.121094 129.265625 484.121094 C 128.832031 484.121094 128.414062 484.035156 128.011719 483.871094 C 127.613281 483.703125 127.257812 483.46875 126.953125 483.160156 C 126.644531 482.855469 126.410156 482.5 126.246094 482.097656 C 126.078125 481.699219 125.996094 481.28125 125.996094 480.847656 C 125.996094 480.414062 126.078125 479.996094 126.246094 479.59375 C 126.410156 479.195312 126.644531 478.839844 126.953125 478.53125 C 127.257812 478.226562 127.613281 477.988281 128.011719 477.824219 C 128.414062 477.65625 128.832031 477.574219 129.265625 477.574219 C 129.699219 477.574219 130.113281 477.65625 130.515625 477.824219 C 130.914062 477.988281 131.269531 478.226562 131.574219 478.53125 C 131.882812 478.839844 132.117188 479.195312 132.285156 479.59375 C 132.449219 479.996094 132.53125 480.414062 132.53125 480.847656 Z M 131.78125 480.84375 C 131.78125 480.503906 131.714844 480.179688 131.585938 479.867188 C 131.457031 479.554688 131.273438 479.28125 131.035156 479.042969 C 130.796875 478.800781 130.519531 478.617188 130.207031 478.488281 C 129.898438 478.359375 129.570312 478.296875 129.234375 478.296875 C 128.898438 478.296875 128.574219 478.359375 128.261719 478.488281 C 127.949219 478.617188 127.671875 478.800781 127.433594 479.042969 C 127.195312 479.28125 127.011719 479.554688 126.882812 479.867188 C 126.753906 480.179688 126.6875 480.503906 126.6875 480.84375 C 126.6875 481.179688 126.753906 481.507812 126.882812 481.820312 C 127.011719 482.128906 127.195312 482.40625 127.433594 482.644531 C 127.671875 482.882812 127.949219 483.066406 128.261719 483.199219 C 128.574219 483.328125 128.898438 483.390625 129.234375 483.390625 C 129.570312 483.390625 129.898438 483.328125 130.207031 483.199219 C 130.519531 483.066406 130.796875 482.882812 131.035156 482.644531 C 131.273438 482.40625 131.457031 482.128906 131.585938 481.820312 C 131.714844 481.507812 131.78125 481.179688 131.78125 480.84375 Z M 131.78125 480.84375 " fill-opacity="1" fill-rule="nonzero"/><path fill="#ffffff" d="M 131.78125 480.84375 C 131.78125 481.179688 131.714844 481.507812 131.585938 481.820312 C 131.457031 482.128906 131.273438 482.40625 131.035156 482.644531 C 130.796875 482.882812 130.519531 483.066406 130.207031 483.199219 C 129.898438 483.328125 129.570312 483.390625 129.234375 483.390625 C 128.898438 483.390625 128.574219 483.328125 128.261719 483.199219 C 127.949219 483.066406 127.671875 482.882812 127.433594 482.644531 C 127.195312 482.40625 127.011719 482.128906 126.882812 481.820312 C 126.753906 481.507812 126.6875 481.179688 126.6875 480.84375 C 126.6875 480.503906 126.753906 480.179688 126.882812 479.867188 C 127.011719 479.554688 127.195312 479.28125 127.433594 479.042969 C 127.671875 478.800781 127.949219 478.617188 128.261719 478.488281 C 128.574219 478.359375 128.898438 478.296875 129.234375 478.296875 C 129.570312 478.296875 129.898438 478.359375 130.207031 478.488281 C 130.519531 478.617188 130.796875 478.800781 131.035156 479.042969 C 131.273438 479.28125 131.457031 479.554688 131.585938 479.867188 C 131.714844 480.179688 131.78125 480.503906 131.78125 480.84375 Z M 131.78125 480.84375 " fill-opacity="1" fill-rule="nonzero"/><path fill="#e8e8e8" d="M 87.046875 480.417969 C 87.042969 481.105469 87.054688 481.800781 87.078125 482.5 C 87.113281 483.347656 87.121094 484.042969 87.105469 484.585938 C 86.96875 490.308594 86.714844 498.039062 86.34375 507.777344 C 86.230469 510.90625 86.15625 514.035156 86.128906 517.160156 C 86.109375 519.835938 86.078125 522.914062 86.703125 525.519531 C 87.804688 530.132812 90.257812 533.765625 94.054688 536.421875 C 95.648438 537.53125 96.910156 538.566406 97.839844 539.523438 C 96.566406 539.527344 95.378906 539.476562 94.28125 539.363281 C 88.410156 538.75 82.722656 537.839844 77.226562 536.636719 C 75.476562 536.25 73.949219 535.800781 72.648438 535.285156 C 72.171875 535.101562 71.949219 534.722656 71.976562 534.148438 C 72.398438 524.957031 73.03125 511.816406 73.875 494.722656 C 73.90625 494.15625 74.007812 491.714844 74.183594 487.402344 C 74.285156 484.875 74.4375 482.351562 74.644531 479.828125 C 76.628906 480.230469 78.148438 480.171875 80.921875 480.027344 C 82.136719 479.964844 84.175781 480.09375 87.046875 480.417969 Z M 87.046875 480.417969 " fill-opacity="1" fill-rule="nonzero"/><path fill="#e8e8e8" d="M 195.148438 480.003906 L 197.714844 534.742188 C 197.730469 535.011719 197.609375 535.195312 197.355469 535.289062 C 196.253906 535.707031 195.140625 536.050781 194.011719 536.320312 C 186.722656 538.066406 179.027344 539.300781 171.351562 539.617188 C 171.914062 538.988281 172.699219 538.382812 173.710938 537.808594 C 175.097656 537.019531 176.585938 535.859375 178.175781 534.324219 C 183.378906 529.292969 183.84375 522.761719 183.742188 515.867188 C 183.621094 507.398438 183.324219 497.363281 182.859375 485.769531 C 182.800781 484.257812 182.808594 482.445312 182.894531 480.34375 C 183.769531 480.257812 184.65625 480.183594 185.550781 480.117188 C 188.761719 479.890625 191.9375 480.378906 195.148438 480.003906 Z M 195.148438 480.003906 " fill-opacity="1" fill-rule="nonzero"/></svg>