<svg xmlns="http://www.w3.org/2000/svg" xmlns:xlink="http://www.w3.org/1999/xlink" width="1080" zoomAndPan="magnify" viewBox="0 0 810 809.999993" height="1080" preserveAspectRatio="xMidYMid meet" version="1.0"><path fill="#030303" d="M 45.832031 310.875 C 46.121094 308.742188 46.609375 307.226562 48.597656 305.980469 C 52.003906 303.859375 55.503906 301.984375 59.101562 300.355469 C 89.792969 286.511719 120.488281 276.519531 151.191406 270.378906 C 180.933594 264.433594 211.09375 262.691406 241.671875 265.152344 C 256.71875 266.363281 271.152344 268.582031 284.984375 271.808594 C 306.722656 276.886719 326.789062 285.578125 345.183594 297.878906 C 350.832031 301.648438 356.691406 306.714844 361.265625 310.066406 C 363.882812 311.96875 367.007812 313.652344 370.222656 312.789062 C 377.390625 310.851562 383.277344 309.382812 387.886719 308.382812 C 399.3125 305.890625 410.921875 305.917969 422.714844 308.46875 C 427.46875 309.496094 432.609375 310.863281 438.136719 312.566406 C 443.085938 314.09375 446.023438 312.664062 449.898438 309.34375 C 471.027344 291.300781 496.644531 278.238281 524.082031 271.863281 C 552.785156 265.199219 581.964844 262.417969 611.628906 263.523438 C 633.679688 264.347656 656.796875 267.902344 680.976562 274.1875 C 704.386719 280.269531 726.484375 288.015625 747.273438 297.421875 C 751.078125 299.148438 755.234375 301.222656 759.730469 303.644531 C 761.402344 304.546875 762.421875 305.351562 762.796875 306.0625 C 763.503906 307.410156 764.039062 309.371094 764.394531 311.945312 C 765.8125 322.101562 766.253906 331.449219 765.71875 339.988281 C 765.488281 343.726562 764.882812 347.882812 762.148438 350.613281 C 759.871094 352.886719 756.097656 356.066406 750.824219 360.148438 C 747.972656 362.351562 745.523438 368.425781 744.539062 371.769531 C 740.363281 385.917969 739.507812 394.628906 735.804688 416.390625 C 732.277344 437.09375 727.847656 456.308594 721.011719 475.546875 C 712.476562 499.542969 696.808594 519.75 673.921875 531.363281 C 656.453125 540.222656 636.800781 544.828125 617.226562 545.855469 C 593.925781 547.089844 571.316406 544.921875 549.398438 539.351562 C 539.695312 536.886719 530.011719 533.164062 520.351562 528.191406 C 502.671875 519.089844 488.46875 506.269531 477.746094 489.722656 C 470.652344 478.792969 464.6875 467.386719 459.851562 455.503906 C 450.25 431.898438 443.667969 407.578125 438.074219 384.289062 C 437.058594 380.035156 435.636719 375.695312 433.8125 371.265625 C 431.671875 366.066406 429.167969 362.617188 424.171875 359.808594 C 414.078125 354.121094 402.089844 353.640625 391.1875 356.882812 C 383.839844 359.070312 378.398438 363.515625 375.640625 370.878906 C 373.90625 375.511719 372.375 380.738281 371.039062 386.5625 C 365.832031 409.261719 358.484375 432.148438 349.003906 455.230469 C 344.527344 466.121094 341 474.195312 338.417969 479.457031 C 330.628906 495.324219 319.597656 508.503906 305.320312 518.996094 C 286.496094 532.820312 264.121094 540.585938 240.925781 544.101562 C 219.757812 547.3125 198.628906 547.40625 177.53125 544.378906 C 165.945312 542.71875 154.246094 539.402344 142.425781 534.425781 C 126.777344 527.835938 113.980469 517.875 104.035156 504.539062 C 99.535156 498.507812 95.457031 491.488281 91.796875 483.484375 C 86.933594 472.855469 83.128906 461.792969 80.375 450.289062 C 77.132812 436.746094 73.789062 420.519531 70.351562 401.613281 C 68.445312 391.132812 66.710938 383.21875 64.074219 374.066406 C 62.441406 368.402344 60.859375 363.765625 56.761719 359.675781 C 55.984375 358.898438 53.355469 356.648438 48.871094 352.925781 C 45.722656 350.3125 44.863281 345.292969 44.601562 340.964844 C 44.003906 331.183594 44.414062 321.152344 45.832031 310.875 Z M 45.832031 310.875 " fill-opacity="1" fill-rule="nonzero"/><path fill="#515151" d="M 441.238281 322.050781 C 439.578125 322.050781 437.890625 321.84375 436.183594 321.425781 L 435.128906 321.167969 C 420.214844 317.511719 407.335938 314.355469 394.058594 317.335938 C 384.761719 319.417969 379.191406 320.617188 377.496094 320.90625 C 372.605469 321.730469 369.441406 321.992188 367.820312 321.710938 C 362.796875 320.84375 357.71875 318.320312 352.304688 313.996094 C 349.148438 311.472656 346.089844 309.058594 343.210938 306.816406 C 342.007812 305.878906 338.378906 303.851562 332.417969 300.792969 C 330.410156 299.757812 328.503906 298.628906 326.660156 297.539062 C 324.441406 296.226562 322.347656 294.988281 320.207031 293.976562 C 313.460938 290.78125 308.890625 288.671875 306.632812 287.710938 C 304.285156 286.707031 300.804688 285.5625 296.292969 284.304688 C 292.019531 283.125 288.484375 282.0625 285.785156 281.15625 C 283.296875 280.316406 279.371094 279.292969 274.113281 278.113281 C 270.976562 277.40625 266.984375 276.96875 262.242188 276.808594 C 258.273438 276.671875 254.171875 276.117188 250.203125 275.578125 C 246.0625 275.019531 241.78125 274.441406 237.585938 274.320312 C 219.871094 273.820312 206.375 273.828125 197.460938 274.34375 C 185.074219 275.066406 169.394531 277.292969 150.859375 280.957031 C 146.046875 281.910156 140.550781 283.246094 134.523438 284.929688 C 134.417969 284.957031 131.535156 285.722656 125.871094 287.222656 L 118.234375 289.25 C 100.882812 293.847656 83.730469 299.464844 67.25 305.945312 C 65.621094 306.582031 62.898438 307.867188 59.160156 309.761719 C 56.480469 311.125 53.671875 312.34375 50.8125 313.382812 L 50.382812 312.199219 C 53.191406 311.179688 55.953125 309.980469 58.589844 308.640625 C 62.363281 306.726562 65.125 305.425781 66.789062 304.773438 C 83.3125 298.277344 100.511719 292.644531 117.910156 288.03125 L 125.546875 286.007812 C 131.207031 284.503906 134.089844 283.738281 134.1875 283.714844 C 140.242188 282.023438 145.773438 280.679688 150.613281 279.722656 C 169.207031 276.046875 184.941406 273.8125 197.390625 273.085938 C 206.339844 272.570312 219.875 272.558594 237.621094 273.0625 C 241.886719 273.183594 246.199219 273.765625 250.375 274.332031 C 254.3125 274.863281 258.382812 275.414062 262.285156 275.546875 C 267.105469 275.710938 271.179688 276.160156 274.390625 276.886719 C 279.6875 278.074219 283.65625 279.109375 286.1875 279.964844 C 288.863281 280.863281 292.378906 281.914062 296.628906 283.09375 C 301.199219 284.363281 304.730469 285.527344 307.128906 286.550781 C 309.402344 287.519531 313.984375 289.636719 320.746094 292.839844 C 322.941406 293.875 325.058594 295.128906 327.300781 296.457031 C 329.128906 297.535156 331.019531 298.652344 332.996094 299.671875 C 339.109375 302.8125 342.707031 304.824219 343.988281 305.824219 C 346.871094 308.066406 349.933594 310.484375 353.09375 313.011719 C 358.335938 317.203125 363.226562 319.640625 368.039062 320.46875 C 369.496094 320.722656 372.605469 320.453125 377.285156 319.667969 C 378.960938 319.378906 384.511719 318.183594 393.785156 316.109375 C 407.351562 313.066406 420.992188 316.40625 435.429688 319.945312 L 436.488281 320.203125 C 442.191406 321.597656 447.660156 320.5 452.734375 316.941406 L 465.15625 308.214844 C 468.5625 305.824219 472.429688 303.910156 476.175781 302.058594 C 479.039062 300.636719 482.003906 299.171875 484.746094 297.5 C 489.933594 294.335938 495.574219 291.761719 500.632812 290.25 C 503.65625 289.34375 506.597656 288.125 509.445312 286.949219 C 512.875 285.53125 516.421875 284.066406 520.210938 283.089844 C 526.328125 281.523438 531.804688 280.304688 536.480469 279.46875 C 538.800781 279.054688 541.355469 278.453125 544.058594 277.8125 C 548.351562 276.796875 552.792969 275.75 556.734375 275.363281 C 564.773438 274.582031 572.578125 273.820312 580.148438 273.074219 C 582.226562 272.875 584.164062 272.769531 585.902344 272.765625 C 603.746094 272.753906 616.253906 272.765625 623.085938 272.804688 C 627.558594 272.824219 634.15625 273.410156 642.699219 274.546875 C 665.21875 277.542969 687.507812 283.949219 711.109375 290.734375 L 712.40625 291.105469 C 718.566406 292.875 725.601562 295.769531 733.046875 298.832031 C 736.121094 300.09375 739.300781 301.402344 742.40625 302.621094 C 746.476562 304.214844 750.285156 306.269531 753.726562 308.722656 C 755.523438 310 757.390625 310.65625 759.28125 310.664062 L 759.273438 311.925781 C 757.117188 311.914062 755.003906 311.179688 752.996094 309.746094 C 749.636719 307.351562 745.917969 305.351562 741.945312 303.792969 C 738.828125 302.570312 735.644531 301.261719 732.566406 299.996094 C 725.152344 296.945312 718.152344 294.066406 712.058594 292.316406 L 710.757812 291.941406 C 687.207031 285.171875 664.960938 278.78125 642.53125 275.796875 C 634.042969 274.667969 627.5 274.082031 623.078125 274.0625 C 616.25 274.027344 603.746094 274.011719 585.90625 274.023438 C 584.207031 274.027344 582.3125 274.132812 580.273438 274.328125 C 572.703125 275.074219 564.898438 275.835938 556.855469 276.617188 C 553 276.996094 548.601562 278.035156 544.351562 279.039062 C 541.628906 279.683594 539.058594 280.289062 536.703125 280.710938 C 532.054688 281.539062 526.613281 282.75 520.523438 284.3125 C 516.824219 285.261719 513.316406 286.710938 509.925781 288.113281 C 507.054688 289.304688 504.082031 290.53125 500.992188 291.457031 C 496.039062 292.941406 490.5 295.46875 485.402344 298.574219 C 482.613281 300.277344 479.625 301.757812 476.734375 303.1875 C 473.03125 305.019531 469.207031 306.914062 465.878906 309.246094 L 453.460938 317.972656 C 449.582031 320.6875 445.492188 322.050781 441.238281 322.050781 Z M 441.238281 322.050781 " fill-opacity="1" fill-rule="nonzero"/><path fill="#333334" d="M 740.089844 369.777344 L 738.828125 369.75 C 739.105469 356.941406 747.304688 345.882812 760.230469 340.882812 L 760.683594 342.054688 C 748.246094 346.867188 740.355469 357.488281 740.089844 369.777344 Z M 740.089844 369.777344 " fill-opacity="1" fill-rule="nonzero"/><path fill="#333334" d="M 588.40625 530.339844 C 583.402344 530.339844 578.382812 530.164062 573.675781 529.605469 C 566.664062 528.765625 559.007812 527.605469 550.925781 526.160156 C 542.042969 524.574219 534.917969 521.722656 525.050781 517.777344 C 523.875 517.308594 522.660156 516.824219 521.398438 516.320312 C 517.304688 514.699219 514.421875 513.371094 512.824219 512.375 C 512.011719 511.867188 511.203125 511.359375 510.40625 510.855469 C 504.699219 507.261719 499.308594 503.863281 492.460938 501.109375 L 492.929688 499.941406 C 499.886719 502.738281 505.324219 506.164062 511.078125 509.792969 C 511.878906 510.292969 512.679688 510.800781 513.492188 511.308594 C 515.023438 512.265625 517.839844 513.558594 521.867188 515.152344 C 523.128906 515.652344 524.34375 516.140625 525.519531 516.609375 C 535.316406 520.527344 542.394531 523.359375 551.144531 524.921875 C 559.207031 526.363281 566.835938 527.519531 573.824219 528.355469 C 582.75 529.414062 592.882812 529.082031 601.824219 528.792969 C 605.121094 528.683594 608.234375 528.582031 611.125 528.554688 C 618.859375 528.472656 624.824219 528.074219 628.847656 527.375 C 630.238281 527.132812 631.882812 526.894531 633.792969 526.609375 C 639.449219 525.78125 646.484375 524.742188 652.191406 522.957031 C 662.453125 519.746094 672.390625 515.074219 681.730469 509.070312 C 683.890625 507.679688 688.097656 504.316406 694.234375 499.066406 C 698.671875 495.261719 702.960938 490.175781 706.984375 483.953125 C 708.949219 480.914062 711.980469 477.128906 715.992188 472.699219 L 716.925781 473.542969 C 712.957031 477.921875 709.96875 481.65625 708.042969 484.636719 C 703.953125 490.960938 699.585938 496.136719 695.054688 500.023438 C 688.871094 505.308594 684.621094 508.710938 682.414062 510.128906 C 672.980469 516.195312 662.9375 520.914062 652.566406 524.160156 C 646.765625 525.976562 639.675781 527.019531 633.976562 527.855469 C 632.074219 528.136719 630.433594 528.378906 629.0625 528.617188 C 624.972656 529.328125 618.9375 529.730469 611.136719 529.8125 C 608.257812 529.84375 605.152344 529.941406 601.863281 530.050781 C 597.566406 530.191406 592.992188 530.339844 588.40625 530.339844 Z M 588.40625 530.339844 " fill-opacity="1" fill-rule="nonzero"/><path fill="#333334" d="M 440.511719 373.710938 L 439.402344 373.117188 C 441.925781 368.378906 442.144531 363.53125 440.050781 358.714844 C 437.277344 352.335938 431.46875 347.082031 424.519531 344.667969 C 415.976562 341.695312 407.226562 340.664062 398.5 341.605469 C 393.5 342.148438 389.339844 342.964844 386.140625 344.03125 C 379.542969 346.242188 371 351.777344 368.636719 360.089844 C 367.414062 364.386719 367.941406 368.617188 370.203125 372.65625 L 369.105469 373.273438 C 366.675781 368.925781 366.109375 364.378906 367.425781 359.746094 C 369.921875 350.964844 378.851562 345.148438 385.742188 342.835938 C 389.027344 341.742188 393.273438 340.90625 398.367188 340.355469 C 407.28125 339.394531 416.21875 340.445312 424.933594 343.476562 C 432.210938 346.007812 438.296875 351.515625 441.207031 358.210938 C 443.460938 363.398438 443.226562 368.613281 440.511719 373.710938 Z M 440.511719 373.710938 " fill-opacity="1" fill-rule="nonzero"/><path fill="#333334" d="M 214.8125 531.058594 C 197.582031 531.058594 181.773438 529.863281 166.867188 527.445312 C 162.613281 526.753906 158.324219 525.722656 154.117188 524.371094 C 147.027344 522.09375 142.953125 520.726562 141.65625 520.191406 C 138.171875 518.761719 132.554688 515.792969 124.960938 511.378906 C 121.320312 509.257812 117.871094 506.492188 114.535156 503.816406 C 111.128906 501.082031 107.605469 498.257812 103.929688 496.175781 L 104.550781 495.078125 C 108.316406 497.210938 111.878906 500.070312 115.324219 502.832031 C 118.625 505.480469 122.035156 508.21875 125.597656 510.292969 C 133.136719 514.679688 138.703125 517.617188 142.136719 519.027344 C 143.382812 519.542969 147.542969 520.9375 154.503906 523.171875 C 158.648438 524.503906 162.875 525.523438 167.070312 526.203125 C 186.949219 529.429688 208.453125 530.46875 232.808594 529.390625 C 237.132812 529.199219 241.65625 528.585938 246.253906 527.570312 C 252.265625 526.242188 258.535156 524.941406 264.882812 523.707031 C 266.277344 523.433594 268.441406 522.792969 271.308594 521.792969 C 278.886719 519.15625 287.085938 515.546875 295.679688 511.058594 C 299.4375 509.089844 303.65625 506.261719 307.878906 502.871094 C 312.441406 499.21875 316.867188 495.90625 321.039062 493.023438 C 321.863281 492.453125 323.007812 491.847656 324.4375 491.226562 L 324.941406 492.382812 C 323.585938 492.96875 322.515625 493.535156 321.757812 494.058594 C 317.609375 496.925781 313.207031 500.222656 308.667969 503.851562 C 304.386719 507.292969 300.097656 510.167969 296.265625 512.171875 C 287.617188 516.6875 279.359375 520.324219 271.722656 522.980469 C 268.796875 524 266.578125 524.660156 265.125 524.941406 C 258.785156 526.175781 252.53125 527.476562 246.527344 528.800781 C 241.859375 529.832031 237.261719 530.453125 232.863281 530.648438 C 226.671875 530.921875 220.660156 531.058594 214.8125 531.058594 Z M 214.8125 531.058594 " fill-opacity="1" fill-rule="nonzero"/><path fill="#333334" d="M 68.359375 371.167969 C 68.027344 366.304688 67.613281 363.074219 67.128906 361.570312 C 65.324219 355.9375 62.292969 350.953125 58.121094 346.757812 C 55.921875 344.550781 53.128906 343.03125 49.828125 342.238281 L 50.121094 341.015625 C 53.65625 341.859375 56.644531 343.496094 59.015625 345.871094 C 63.328125 350.207031 66.464844 355.359375 68.328125 361.183594 C 68.851562 362.808594 69.273438 366.046875 69.617188 371.082031 Z M 68.359375 371.167969 " fill-opacity="1" fill-rule="nonzero"/><path fill="#3b3b3b" d="M 759.277344 311.292969 C 760.121094 315.953125 760.613281 319.027344 760.75 320.515625 C 761.195312 325.472656 761.097656 332.457031 760.457031 341.46875 C 748.476562 346.101562 739.742188 356.679688 739.457031 369.761719 C 737.332031 378.355469 736.128906 388.019531 734.75 394.085938 C 732.757812 402.800781 731.539062 409.238281 731.09375 413.394531 C 730.222656 421.523438 728.445312 430.613281 725.761719 440.664062 C 723.171875 450.382812 720.746094 462.617188 716.460938 473.121094 C 712.449219 477.550781 709.464844 481.273438 707.511719 484.296875 C 703.4375 490.601562 699.148438 495.683594 694.644531 499.542969 C 688.457031 504.835938 684.269531 508.1875 682.074219 509.601562 C 672.640625 515.664062 662.746094 520.316406 652.378906 523.558594 C 644.691406 525.964844 634.445312 527.042969 628.957031 527.996094 C 624.882812 528.703125 618.9375 529.101562 611.132812 529.183594 C 600.285156 529.292969 585.976562 530.425781 573.75 528.980469 C 566.726562 528.140625 559.152344 526.996094 551.035156 525.542969 C 541.160156 523.777344 533.378906 520.402344 521.632812 515.738281 C 517.554688 514.121094 514.730469 512.824219 513.160156 511.84375 C 506.535156 507.703125 500.566406 503.691406 492.695312 500.527344 C 490.316406 497.78125 487.074219 494.917969 485.324219 492.242188 C 482.371094 487.695312 480.472656 485.285156 478.636719 481.660156 C 476.527344 477.496094 473.980469 472.996094 470.996094 468.164062 C 469.53125 465.78125 468.5625 463.382812 467.050781 460.660156 C 466.9375 460.449219 466.847656 460.226562 466.785156 459.988281 C 465.390625 454.949219 462.902344 448.535156 459.308594 440.75 C 457.960938 437.832031 456.632812 433.292969 455.511719 428.738281 C 454.378906 424.152344 452.800781 419.082031 450.78125 413.527344 C 449.21875 409.242188 447.847656 404.097656 446.660156 398.097656 C 446.050781 395.050781 445.132812 391.53125 443.902344 387.546875 C 442.433594 382.796875 441.117188 378.089844 439.957031 373.414062 C 442.589844 368.472656 442.8125 363.488281 440.625 358.464844 C 437.710938 351.761719 431.695312 346.496094 424.726562 344.074219 C 416.054688 341.058594 407.292969 340.027344 398.433594 340.980469 C 393.363281 341.53125 389.199219 342.351562 385.941406 343.4375 C 378.222656 346.023438 370.285156 351.988281 368.03125 359.917969 C 366.753906 364.40625 367.296875 368.753906 369.652344 372.964844 C 366.820312 382.375 364.542969 391 362.824219 398.835938 C 361.664062 404.132812 360.507812 408.347656 359.351562 411.472656 C 356.609375 418.894531 354.492188 427.019531 351.734375 434.898438 C 350.089844 439.59375 347.019531 445.433594 345.804688 449.265625 C 344.089844 454.710938 342.671875 458.609375 341.558594 460.964844 C 336.503906 471.703125 332.71875 479.457031 330.210938 484.222656 C 328.890625 486.726562 327.050781 489.253906 324.6875 491.800781 C 323.285156 492.410156 322.191406 492.988281 321.398438 493.539062 C 317.214844 496.429688 312.84375 499.703125 308.273438 503.359375 C 304.101562 506.710938 299.808594 509.609375 295.972656 511.613281 C 287.3125 516.136719 279.160156 519.726562 271.515625 522.386719 C 268.609375 523.398438 266.4375 524.042969 265.003906 524.320312 C 258.628906 525.566406 252.425781 526.851562 246.390625 528.183594 C 241.738281 529.214844 237.222656 529.824219 232.835938 530.019531 C 210.484375 531.007812 188.699219 530.347656 166.96875 526.824219 C 162.722656 526.136719 158.507812 525.117188 154.308594 523.769531 C 147.300781 521.519531 143.164062 520.132812 141.898438 519.609375 C 138.421875 518.183594 132.882812 515.257812 125.277344 510.835938 C 117.953125 506.570312 111.558594 499.773438 104.242188 495.625 C 101.558594 491.359375 99.414062 487.410156 97.8125 483.769531 C 96.757812 481.359375 95.820312 479.382812 95.003906 477.835938 C 93.617188 475.21875 92.648438 473.261719 92.105469 471.964844 C 89.332031 465.425781 88.179688 458.910156 86.371094 452.300781 C 83.9375 443.386719 81.957031 436.058594 80.421875 430.324219 C 79.910156 428.40625 79.414062 425.328125 78.933594 421.097656 C 78.101562 413.691406 76.925781 407.816406 75.226562 400.859375 C 73.398438 393.40625 71.875 385.878906 70.65625 378.277344 C 70.277344 375.933594 69.539062 373.515625 68.988281 371.125 C 68.652344 366.1875 68.230469 362.9375 67.726562 361.375 C 65.882812 355.621094 62.832031 350.601562 58.566406 346.316406 C 56.273438 344.011719 53.40625 342.449219 49.972656 341.625 C 49.007812 331.902344 49.214844 322.289062 50.597656 312.789062 C 53.441406 311.753906 56.203125 310.558594 58.875 309.199219 C 62.648438 307.285156 65.363281 306.007812 67.019531 305.359375 C 83.601562 298.839844 100.617188 293.265625 118.070312 288.640625 C 128.789062 285.796875 134.214844 284.359375 134.351562 284.320312 C 140.425781 282.625 145.886719 281.300781 150.734375 280.339844 C 169.386719 276.652344 184.949219 274.445312 197.425781 273.714844 C 206.398438 273.195312 219.789062 273.1875 237.601562 273.691406 C 245.886719 273.925781 254.21875 275.902344 262.261719 276.175781 C 267.066406 276.339844 271.0625 276.78125 274.25 277.5 C 279.550781 278.6875 283.464844 279.710938 285.984375 280.558594 C 288.6875 281.46875 292.179688 282.511719 296.460938 283.699219 C 301.023438 284.96875 304.496094 286.113281 306.878906 287.128906 C 309.160156 288.101562 313.691406 290.191406 320.476562 293.410156 C 324.460938 295.289062 328.335938 297.980469 332.707031 300.230469 C 338.730469 303.324219 342.359375 305.355469 343.601562 306.320312 C 346.5 308.578125 349.53125 310.972656 352.695312 313.503906 C 357.210938 317.109375 362.351562 320.128906 367.929688 321.089844 C 369.460938 321.355469 372.617188 321.089844 377.390625 320.285156 C 379.078125 320 384.589844 318.808594 393.921875 316.722656 C 407.664062 313.636719 421.257812 317.125 436.335938 320.8125 C 442.25 322.261719 447.839844 321.140625 453.09375 317.453125 C 457.238281 314.542969 461.378906 311.632812 465.515625 308.726562 C 471.46875 304.550781 478.707031 301.914062 485.074219 298.035156 C 489.902344 295.09375 495.445312 292.457031 500.808594 290.851562 C 507.503906 288.84375 513.472656 285.46875 520.367188 283.699219 C 526.5 282.125 531.90625 280.921875 536.589844 280.085938 C 542.632812 279.007812 550.4375 276.609375 556.792969 275.988281 C 564.832031 275.207031 572.636719 274.445312 580.210938 273.699219 C 582.277344 273.5 584.175781 273.398438 585.902344 273.390625 C 603.804688 273.382812 616.195312 273.394531 623.078125 273.429688 C 627.546875 273.453125 634.058594 274.03125 642.613281 275.167969 C 665.5 278.214844 688.328125 284.839844 712.230469 291.710938 C 720.964844 294.21875 731.746094 299.113281 742.175781 303.203125 C 746.214844 304.789062 749.941406 306.796875 753.359375 309.230469 C 755.273438 310.59375 757.242188 311.285156 759.277344 311.292969 Z M 759.277344 311.292969 " fill-opacity="1" fill-rule="nonzero"/><path fill="#666666" d="M 759.277344 311.292969 C 757.242188 311.285156 755.273438 310.59375 753.359375 309.230469 C 749.941406 306.796875 746.214844 304.789062 742.175781 303.203125 C 731.75 299.113281 720.964844 294.21875 712.230469 291.710938 C 688.328125 284.839844 665.5 278.214844 642.613281 275.167969 C 634.058594 274.03125 627.546875 273.453125 623.078125 273.429688 C 616.195312 273.394531 603.804688 273.382812 585.902344 273.390625 C 584.175781 273.398438 582.277344 273.5 580.210938 273.699219 C 572.636719 274.445312 564.832031 275.207031 556.792969 275.988281 C 550.4375 276.609375 542.632812 279.007812 536.589844 280.085938 C 531.90625 280.921875 526.5 282.125 520.367188 283.699219 C 513.472656 285.46875 507.503906 288.84375 500.808594 290.851562 C 495.445312 292.457031 489.902344 295.09375 485.074219 298.035156 C 478.707031 301.914062 471.46875 304.550781 465.515625 308.726562 C 461.378906 311.632812 457.238281 314.542969 453.09375 317.453125 C 447.839844 321.140625 442.25 322.261719 436.335938 320.8125 C 421.257812 317.125 407.664062 313.636719 393.921875 316.722656 C 384.589844 318.808594 379.078125 320 377.390625 320.285156 C 372.617188 321.089844 369.464844 321.355469 367.929688 321.089844 C 362.351562 320.128906 357.210938 317.109375 352.695312 313.503906 C 349.53125 310.972656 346.5 308.578125 343.601562 306.320312 C 342.359375 305.355469 338.730469 303.324219 332.707031 300.230469 C 328.335938 297.980469 324.460938 295.289062 320.476562 293.410156 C 313.691406 290.191406 309.160156 288.101562 306.878906 287.128906 C 304.496094 286.113281 301.023438 284.96875 296.460938 283.699219 C 292.179688 282.511719 288.6875 281.46875 285.984375 280.558594 C 283.464844 279.710938 279.550781 278.6875 274.25 277.5 C 271.0625 276.78125 267.066406 276.339844 262.261719 276.175781 C 254.21875 275.902344 245.886719 273.925781 237.601562 273.691406 C 219.789062 273.1875 206.398438 273.195312 197.425781 273.714844 C 184.949219 274.445312 169.386719 276.652344 150.734375 280.339844 C 145.886719 281.300781 140.425781 282.625 134.351562 284.320312 C 134.214844 284.359375 128.789062 285.796875 118.070312 288.640625 C 100.617188 293.265625 83.601562 298.839844 67.019531 305.359375 C 65.363281 306.007812 62.648438 307.285156 58.875 309.199219 C 56.203125 310.558594 53.441406 311.753906 50.597656 312.789062 C 50.699219 309.546875 52 309.175781 54.644531 307.925781 C 90.035156 291.171875 126.472656 279.632812 163.957031 273.3125 C 184.4375 269.859375 205.902344 268.566406 228.355469 269.433594 C 236.910156 269.765625 244.878906 270.761719 254.226562 271.339844 C 258.6875 271.613281 263.671875 272.542969 268.128906 273.484375 C 275.230469 274.988281 282.84375 276.632812 290.980469 278.425781 C 293.539062 278.988281 296.328125 279.804688 299.335938 280.875 C 310.757812 284.945312 321.292969 289.578125 330.941406 294.769531 C 334.984375 296.941406 338.980469 299.507812 342.921875 302.464844 C 351.925781 309.214844 357.988281 313.644531 361.101562 315.746094 C 365.316406 318.601562 369.488281 318.476562 374.695312 316.824219 C 376.324219 316.3125 379.925781 315.398438 385.5 314.085938 C 396.851562 311.417969 407.269531 310.75 418.265625 312.796875 C 425.308594 314.101562 429.015625 315.125 435.066406 316.972656 C 440.933594 318.769531 445.667969 318.894531 450.363281 315.195312 C 460.84375 306.925781 469.375 300.011719 480.410156 294.171875 C 482.652344 292.984375 488.148438 290.222656 496.902344 285.886719 C 499.148438 284.773438 501.132812 283.925781 502.847656 283.34375 C 509.476562 281.109375 517.28125 278.835938 526.265625 276.515625 C 534.945312 274.28125 542.898438 273.320312 552.785156 271.691406 C 556.402344 271.09375 559.960938 270.605469 563.457031 270.21875 C 590.324219 267.269531 616.582031 267.652344 642.226562 271.378906 C 673.023438 275.847656 703.511719 284.824219 732.9375 296.570312 C 740.453125 299.570312 748.675781 303.761719 757.101562 307.421875 C 758.699219 308.121094 759.421875 309.410156 759.277344 311.292969 Z M 759.277344 311.292969 " fill-opacity="1" fill-rule="nonzero"/><path fill="#2b2b2c" d="M 439.957031 373.414062 C 438.3125 368.246094 436.648438 364.308594 432.640625 360.359375 C 426.886719 354.707031 419.898438 351.355469 411.683594 350.3125 C 410.921875 350.21875 407.808594 350.144531 402.339844 350.09375 C 398.488281 350.054688 395.394531 350.316406 393.070312 350.878906 C 387.578125 352.195312 382.613281 354.734375 378.175781 358.496094 C 373.777344 362.226562 370.9375 367.046875 369.65625 372.964844 C 367.296875 368.753906 366.757812 364.40625 368.03125 359.921875 C 370.285156 351.988281 378.222656 346.023438 385.941406 343.4375 C 389.199219 342.351562 393.363281 341.53125 398.433594 340.980469 C 407.292969 340.027344 416.054688 341.058594 424.726562 344.074219 C 431.695312 346.496094 437.710938 351.761719 440.628906 358.464844 C 442.8125 363.488281 442.589844 368.472656 439.957031 373.414062 Z M 439.957031 373.414062 " fill-opacity="1" fill-rule="nonzero"/><path fill="#2b2b2c" d="M 68.988281 371.125 C 68.570312 369.644531 68.082031 367.773438 67.253906 366.648438 C 65.914062 364.828125 64.882812 361.980469 63.121094 359.574219 C 61.449219 357.300781 58.371094 354.378906 53.878906 350.808594 C 51.214844 348.683594 49.910156 345.625 49.972656 341.625 C 53.40625 342.449219 56.273438 344.011719 58.566406 346.316406 C 62.832031 350.601562 65.882812 355.621094 67.726562 361.375 C 68.230469 362.9375 68.652344 366.1875 68.988281 371.125 Z M 68.988281 371.125 " fill-opacity="1" fill-rule="nonzero"/><path fill="#2b2b2c" d="M 760.457031 341.46875 C 760.300781 344.253906 759.449219 346.347656 757.914062 347.753906 C 755.597656 349.855469 754.140625 351.195312 751.996094 352.839844 C 748.664062 355.394531 746.496094 357.300781 745.5 358.558594 C 743.175781 361.484375 741.863281 363.390625 741.570312 364.277344 C 740.949219 366.136719 740.246094 367.964844 739.457031 369.761719 C 739.742188 356.679688 748.476562 346.101562 760.457031 341.46875 Z M 760.457031 341.46875 " fill-opacity="1" fill-rule="nonzero"/><path fill="#2b2b2c" d="M 716.460938 473.121094 C 715.710938 475.539062 715.113281 477.246094 714.671875 478.238281 C 711.050781 486.292969 707.726562 492.6875 704.699219 497.417969 C 700.976562 503.246094 695.308594 509.585938 687.695312 516.429688 C 685.34375 518.542969 682.140625 520.785156 678.085938 523.148438 C 672.347656 526.492188 668.925781 528.382812 667.816406 528.832031 C 658.972656 532.355469 654.90625 534.425781 648.519531 535.785156 C 644.535156 536.644531 640.824219 537.917969 637.019531 538.53125 C 620.894531 541.148438 605.632812 541.847656 591.226562 540.625 C 584.070312 540.015625 580.289062 539.699219 579.878906 539.671875 C 575.65625 539.453125 571.890625 539.03125 568.578125 538.414062 C 563.691406 537.492188 559.003906 536.359375 554.507812 535.023438 C 553.265625 534.644531 551.847656 534.832031 550.800781 534.203125 C 550.523438 534.035156 550.042969 533.875 549.367188 533.722656 C 541.898438 532.046875 535.140625 530.058594 528.652344 526.570312 C 523.21875 523.652344 517.144531 520.992188 511.945312 517.53125 C 504.800781 512.773438 498.382812 507.105469 492.695312 500.527344 C 500.566406 503.691406 506.535156 507.703125 513.160156 511.84375 C 514.730469 512.824219 517.554688 514.121094 521.632812 515.738281 C 533.378906 520.402344 541.160156 523.777344 551.035156 525.542969 C 559.152344 526.996094 566.726562 528.140625 573.75 528.980469 C 585.976562 530.425781 600.285156 529.292969 611.132812 529.183594 C 618.9375 529.101562 624.882812 528.703125 628.957031 527.996094 C 634.445312 527.042969 644.691406 525.964844 652.378906 523.558594 C 662.746094 520.316406 672.644531 515.664062 682.074219 509.601562 C 684.269531 508.1875 688.457031 504.835938 694.644531 499.542969 C 699.148438 495.683594 703.4375 490.601562 707.511719 484.296875 C 709.464844 481.273438 712.449219 477.550781 716.460938 473.121094 Z M 716.460938 473.121094 " fill-opacity="1" fill-rule="nonzero"/><path fill="#2b2b2c" d="M 324.6875 491.800781 C 322.871094 494.945312 320.71875 497.816406 318.230469 500.417969 C 313.664062 505.1875 309.308594 509.355469 305.164062 512.921875 C 299.273438 517.996094 292.261719 521.292969 284.527344 525.667969 C 280.464844 527.964844 276.527344 529.742188 271.847656 531.121094 C 265.488281 532.988281 259.15625 534.867188 252.851562 536.761719 C 250.078125 537.59375 247.367188 538.125 244.722656 538.351562 C 244.476562 538.371094 244.234375 538.425781 243.996094 538.515625 C 243.21875 538.816406 242.53125 539 241.925781 539.066406 C 232.578125 540.109375 226.738281 540.71875 224.410156 540.890625 C 207.507812 542.144531 189.730469 541.546875 173.449219 538.625 C 169.96875 538.003906 166.371094 537.148438 162.660156 536.0625 C 156.851562 534.367188 153.300781 533.300781 152.011719 532.867188 C 148.320312 531.632812 143.675781 529.582031 138.085938 526.714844 C 124.214844 519.601562 112.164062 509.113281 104.242188 495.625 C 111.558594 499.773438 117.953125 506.570312 125.277344 510.835938 C 132.882812 515.257812 138.421875 518.183594 141.898438 519.609375 C 143.164062 520.132812 147.300781 521.519531 154.308594 523.769531 C 158.507812 525.117188 162.722656 526.136719 166.96875 526.824219 C 188.699219 530.347656 210.484375 531.011719 232.835938 530.019531 C 237.222656 529.824219 241.738281 529.214844 246.390625 528.183594 C 252.425781 526.851562 258.628906 525.566406 265.003906 524.320312 C 266.4375 524.042969 268.609375 523.398438 271.515625 522.386719 C 279.160156 519.726562 287.3125 516.136719 295.972656 511.613281 C 299.808594 509.609375 304.101562 506.710938 308.273438 503.359375 C 312.84375 499.703125 317.214844 496.429688 321.398438 493.539062 C 322.191406 492.988281 323.285156 492.410156 324.6875 491.800781 Z M 324.6875 491.800781 " fill-opacity="1" fill-rule="nonzero"/><path fill="#353535" d="M 618.089844 525.992188 L 617.910156 524.746094 C 628.363281 523.261719 637.15625 521.414062 644.039062 519.253906 C 645.765625 518.707031 649.78125 517.121094 655.980469 514.542969 C 660.507812 512.660156 664.320312 510.695312 667.3125 508.714844 C 673.496094 504.613281 681.394531 498.882812 687.640625 490.902344 C 694.136719 482.597656 699.226562 473.476562 702.769531 463.796875 C 704.1875 459.929688 705.515625 455.902344 706.726562 451.824219 L 707.933594 452.183594 C 706.71875 456.285156 705.378906 460.335938 703.953125 464.226562 C 700.367188 474.035156 695.210938 483.269531 688.632812 491.679688 C 682.277344 499.800781 674.269531 505.609375 668.007812 509.761719 C 664.949219 511.789062 661.066406 513.789062 656.464844 515.707031 C 650.144531 518.335938 646.207031 519.890625 644.417969 520.453125 C 637.46875 522.636719 628.609375 524.5 618.089844 525.992188 Z M 618.089844 525.992188 " fill-opacity="1" fill-rule="nonzero"/><path fill="#353535" d="M 183.925781 524.851562 C 169.738281 522.179688 156.652344 517.582031 145.035156 511.191406 C 137.742188 507.171875 130.617188 501.425781 123.863281 494.101562 C 121.820312 491.886719 119.601562 488.917969 117.273438 485.277344 C 113.648438 479.605469 111.734375 476.574219 111.421875 476.007812 C 107.421875 468.644531 103.84375 459.523438 100.785156 448.894531 L 101.996094 448.550781 C 105.03125 459.089844 108.574219 468.125 112.527344 475.402344 C 112.730469 475.769531 113.902344 477.664062 118.335938 484.601562 C 120.625 488.175781 122.796875 491.085938 124.789062 493.246094 C 131.453125 500.46875 138.46875 506.136719 145.644531 510.085938 C 157.144531 516.414062 170.101562 520.964844 184.160156 523.617188 Z M 183.925781 524.851562 " fill-opacity="1" fill-rule="nonzero"/><path fill="#030303" d="M 707.332031 452.003906 C 706.113281 456.105469 704.789062 460.109375 703.363281 464.011719 C 699.78125 473.796875 694.707031 482.890625 688.136719 491.289062 C 682.394531 498.625 675.277344 504.1875 667.660156 509.238281 C 664.617188 511.253906 660.808594 513.214844 656.222656 515.125 C 649.984375 517.71875 645.984375 519.296875 644.226562 519.851562 C 637.28125 522.035156 628.539062 523.875 618 525.367188 C 609.746094 526.101562 601.351562 526.183594 592.820312 525.613281 C 584.367188 525.046875 576.488281 524.351562 569.183594 523.527344 C 566.160156 523.1875 562.796875 522.46875 559.101562 521.378906 C 551.277344 519.058594 544.5 516.84375 538.773438 514.730469 C 536.394531 513.847656 532.738281 512.085938 530.15625 510.410156 C 521.175781 504.570312 516.117188 501.160156 514.980469 500.171875 C 510.101562 495.949219 506.257812 491.855469 503.449219 487.882812 C 500.496094 483.707031 498.644531 481.09375 497.894531 480.046875 C 494.738281 475.632812 493.648438 473.679688 490.523438 468.832031 C 489.914062 467.890625 488.804688 465.746094 487.199219 462.40625 C 485.058594 457.9375 484.191406 454.535156 481.914062 447.976562 C 481.257812 446.070312 480.238281 443.53125 478.851562 440.359375 C 477.355469 436.9375 476.238281 433.339844 475.503906 429.5625 C 474.667969 425.257812 474.085938 422.675781 473.761719 421.820312 C 472.644531 418.863281 472.09375 415.445312 470.871094 411.640625 C 468.042969 402.84375 467.722656 396.492188 466.390625 385.816406 C 465.601562 379.460938 465.210938 374.535156 465.214844 371.039062 C 465.257812 355.175781 469.269531 340.378906 477.25 326.644531 C 478.621094 324.289062 481.0625 321.214844 484.570312 317.414062 C 487.59375 314.140625 491.285156 310.75 495.640625 307.242188 C 499.148438 304.414062 502.714844 302.140625 506.332031 300.425781 C 511.121094 298.152344 516.578125 295.789062 522.707031 293.34375 C 529.503906 290.640625 534.597656 289.695312 543.964844 287.871094 C 552.644531 286.167969 559.078125 284.925781 567.425781 284.328125 C 585.398438 283.042969 604.03125 283.203125 623.324219 284.808594 C 633.007812 285.617188 641.351562 286.875 648.355469 288.585938 C 665.53125 292.777344 681.015625 299.113281 694.058594 309.910156 C 700.378906 315.132812 705.238281 323.820312 708.6875 329.65625 C 709.851562 331.636719 711.019531 334.605469 712.183594 338.566406 C 712.996094 341.324219 714.496094 347.285156 716.679688 356.449219 C 719.46875 368.117188 719.144531 382.496094 717.769531 395.640625 C 717.484375 398.308594 716.078125 408.742188 713.554688 426.949219 C 712.546875 434.222656 710.472656 442.570312 707.332031 452.003906 Z M 707.332031 452.003906 " fill-opacity="1" fill-rule="nonzero"/><path fill="#030303" d="M 184.042969 524.234375 C 169.855469 521.558594 156.953125 517.027344 145.339844 510.636719 C 138.070312 506.636719 131.066406 500.980469 124.324219 493.675781 C 122.300781 491.476562 120.125 488.566406 117.804688 484.941406 C 114.21875 479.328125 112.273438 476.25 111.976562 475.703125 C 107.980469 468.347656 104.453125 459.355469 101.390625 448.722656 C 98.703125 440.035156 97.191406 434.121094 96.851562 430.980469 C 96.117188 424.09375 95.238281 417.464844 94.207031 411.097656 C 92.640625 401.417969 91.777344 395.304688 91.617188 392.753906 C 91.144531 385.535156 91.015625 379.355469 91.230469 374.214844 C 91.671875 363.671875 93.71875 354.867188 96.578125 342.695312 C 97.523438 338.660156 99.847656 333.5625 102.34375 329.3125 C 106.34375 322.488281 108.910156 317.558594 114.449219 312.574219 C 122.648438 305.1875 133.265625 299.324219 144.921875 294.824219 C 160.792969 288.695312 178.640625 285.925781 195.265625 284.941406 C 209.578125 284.09375 224.257812 283.558594 238.382812 284.847656 C 245.835938 285.53125 252.652344 286.175781 258.820312 286.792969 C 263.199219 287.230469 267.785156 288.199219 272.578125 289.695312 C 277.238281 291.148438 279.675781 291.90625 279.890625 291.96875 C 285.285156 293.519531 289.496094 294.652344 293.820312 296.421875 C 304.738281 300.898438 314.609375 307.621094 323.429688 316.597656 C 327.808594 321.050781 331.179688 325.457031 333.542969 329.816406 C 341.363281 344.253906 345.035156 359.945312 343.820312 376.59375 C 343.328125 383.285156 342.65625 390.0625 341.8125 396.925781 C 340.898438 404.398438 337.511719 413.753906 335.722656 421.347656 C 334.0625 428.394531 332.941406 432.695312 332.359375 434.261719 C 329.746094 441.242188 327.425781 448.042969 325.40625 454.664062 C 324.40625 457.941406 322.613281 462.125 320.019531 467.214844 C 317.125 472.886719 313.542969 478.933594 309.265625 485.347656 C 303.0625 494.679688 294.445312 501.730469 285.488281 508.425781 C 281.707031 511.246094 276.558594 514.023438 271.414062 515.847656 C 268.457031 516.890625 263.835938 518.613281 257.542969 521.015625 C 255.050781 521.972656 251.335938 522.898438 246.398438 523.792969 C 244.078125 524.214844 239.367188 524.816406 232.269531 525.597656 C 216.074219 527.375 200 526.921875 184.042969 524.234375 Z M 184.042969 524.234375 " fill-opacity="1" fill-rule="nonzero"/><path fill="#030303" d="M 720.199219 327.554688 C 720.4375 322.988281 727.71875 319.660156 736.457031 320.117188 C 745.199219 320.574219 752.089844 324.648438 751.851562 329.210938 C 751.609375 333.777344 744.332031 337.105469 735.589844 336.648438 C 726.851562 336.191406 719.960938 332.121094 720.199219 327.554688 Z M 720.199219 327.554688 " fill-opacity="1" fill-rule="nonzero"/><path fill="#030303" d="M 89.597656 329.554688 C 89.671875 334.167969 82.671875 338.019531 73.960938 338.15625 C 65.253906 338.292969 58.136719 334.660156 58.066406 330.046875 C 57.992188 325.433594 64.992188 321.582031 73.699219 321.445312 C 82.40625 321.308594 89.523438 324.9375 89.597656 329.554688 Z M 89.597656 329.554688 " fill-opacity="1" fill-rule="nonzero"/><path fill="#666666" d="M 101.390625 448.722656 C 104.453125 459.355469 107.980469 468.347656 111.976562 475.703125 C 112.273438 476.25 114.21875 479.328125 117.804688 484.941406 C 120.125 488.566406 122.300781 491.476562 124.324219 493.675781 C 131.066406 500.980469 138.070312 506.636719 145.339844 510.636719 C 156.953125 517.027344 169.855469 521.558594 184.042969 524.234375 C 184.011719 524.769531 183.414062 524.976562 182.253906 524.847656 C 177.371094 524.3125 172.300781 523.507812 167.046875 522.433594 C 160.234375 521.03125 156.113281 518.917969 148.472656 515.792969 C 147.265625 515.300781 146.390625 514.855469 145.84375 514.460938 C 143.066406 512.453125 140.335938 510.527344 137.652344 508.679688 C 132.730469 505.296875 128.792969 501.832031 124.601562 497.089844 C 121.351562 493.402344 118.414062 490.003906 115.789062 486.898438 C 114.949219 485.902344 114.003906 484.414062 112.960938 482.429688 C 112.15625 480.898438 109.59375 475.65625 105.273438 466.710938 C 103.5625 463.167969 102.121094 459.007812 101.699219 456.039062 C 101.28125 453.074219 100.902344 450.679688 100.554688 448.847656 C 100.53125 448.695312 100.636719 448.546875 100.785156 448.523438 C 100.835938 448.515625 100.886719 448.523438 100.933594 448.542969 Z M 101.390625 448.722656 " fill-opacity="1" fill-rule="nonzero"/><path fill="#666666" d="M 618 525.367188 C 628.539062 523.875 637.28125 522.035156 644.226562 519.851562 C 645.984375 519.296875 649.984375 517.71875 656.222656 515.125 C 660.808594 513.214844 664.617188 511.253906 667.660156 509.238281 C 675.277344 504.1875 682.394531 498.625 688.136719 491.289062 C 694.707031 482.890625 699.78125 473.796875 703.363281 464.011719 C 704.789062 460.109375 706.113281 456.105469 707.332031 452.003906 C 708.125 452.398438 708.207031 453.269531 707.574219 454.625 C 707.507812 454.777344 707.457031 454.933594 707.425781 455.09375 C 707.058594 456.8125 706.65625 458.566406 706.214844 460.359375 C 705.777344 462.128906 705.25 463.820312 704.628906 465.441406 C 701.714844 473.089844 698.832031 479.691406 694.964844 486.144531 C 693.632812 488.375 691.242188 491.5 687.796875 495.523438 C 681.84375 502.480469 679.054688 506.65625 673.03125 510.410156 C 666.292969 514.613281 661.082031 517.46875 657.398438 518.988281 C 654.347656 520.246094 649.066406 521.851562 641.558594 523.800781 C 634.457031 525.652344 626.605469 526.175781 618 525.367188 Z M 618 525.367188 " fill-opacity="1" fill-rule="nonzero"/><path fill="#f6c640" d="M 736.066406 323.640625 C 736.839844 323.671875 737.605469 323.730469 738.363281 323.824219 C 739.117188 323.914062 739.851562 324.03125 740.5625 324.179688 C 741.273438 324.328125 741.945312 324.5 742.582031 324.699219 C 743.21875 324.894531 743.804688 325.113281 744.34375 325.355469 C 744.882812 325.597656 745.359375 325.855469 745.78125 326.128906 C 746.199219 326.40625 746.550781 326.691406 746.835938 326.988281 C 747.121094 327.285156 747.332031 327.589844 747.46875 327.902344 C 747.609375 328.210938 747.671875 328.519531 747.660156 328.828125 C 747.648438 329.140625 747.558594 329.445312 747.394531 329.742188 C 747.234375 330.039062 746.996094 330.324219 746.691406 330.597656 C 746.382812 330.875 746.007812 331.128906 745.570312 331.371094 C 745.128906 331.613281 744.632812 331.832031 744.074219 332.027344 C 743.519531 332.222656 742.917969 332.394531 742.265625 332.542969 C 741.617188 332.6875 740.929688 332.808594 740.210938 332.898438 C 739.492188 332.988281 738.753906 333.046875 737.992188 333.078125 C 737.230469 333.105469 736.460938 333.105469 735.6875 333.074219 C 734.914062 333.042969 734.152344 332.984375 733.394531 332.890625 C 732.636719 332.800781 731.90625 332.683594 731.195312 332.535156 C 730.484375 332.386719 729.8125 332.214844 729.175781 332.015625 C 728.539062 331.820312 727.953125 331.601562 727.414062 331.359375 C 726.875 331.117188 726.398438 330.859375 725.976562 330.585938 C 725.558594 330.3125 725.207031 330.023438 724.921875 329.726562 C 724.636719 329.429688 724.425781 329.125 724.285156 328.816406 C 724.148438 328.503906 724.085938 328.195312 724.097656 327.886719 C 724.109375 327.574219 724.199219 327.273438 724.359375 326.972656 C 724.523438 326.675781 724.757812 326.390625 725.066406 326.117188 C 725.375 325.839844 725.746094 325.585938 726.1875 325.34375 C 726.628906 325.105469 727.125 324.886719 727.683594 324.6875 C 728.238281 324.492188 728.839844 324.320312 729.492188 324.171875 C 730.140625 324.027344 730.824219 323.910156 731.546875 323.820312 C 732.265625 323.730469 733.003906 323.667969 733.765625 323.640625 C 734.527344 323.609375 735.292969 323.609375 736.066406 323.640625 Z M 736.066406 323.640625 " fill-opacity="1" fill-rule="nonzero"/><path fill="#f6c640" d="M 85.445312 329.78125 C 85.449219 330.082031 85.375 330.382812 85.226562 330.679688 C 85.078125 330.972656 84.859375 331.261719 84.566406 331.542969 C 84.273438 331.820312 83.917969 332.089844 83.492188 332.339844 C 83.066406 332.59375 82.582031 332.828125 82.042969 333.042969 C 81.5 333.257812 80.910156 333.453125 80.273438 333.625 C 79.636719 333.792969 78.964844 333.9375 78.257812 334.058594 C 77.550781 334.175781 76.820312 334.265625 76.066406 334.332031 C 75.316406 334.394531 74.558594 334.425781 73.789062 334.429688 C 73.023438 334.433594 72.261719 334.410156 71.511719 334.355469 C 70.757812 334.300781 70.027344 334.214844 69.316406 334.105469 C 68.609375 333.992188 67.933594 333.855469 67.296875 333.691406 C 66.65625 333.527344 66.066406 333.339844 65.523438 333.128906 C 64.980469 332.917969 64.496094 332.691406 64.066406 332.441406 C 63.640625 332.195312 63.277344 331.929688 62.984375 331.65625 C 62.6875 331.378906 62.464844 331.09375 62.316406 330.796875 C 62.164062 330.503906 62.085938 330.203125 62.085938 329.902344 C 62.085938 329.601562 62.15625 329.304688 62.304688 329.007812 C 62.453125 328.710938 62.671875 328.421875 62.964844 328.144531 C 63.257812 327.863281 63.617188 327.597656 64.039062 327.34375 C 64.464844 327.09375 64.949219 326.859375 65.488281 326.640625 C 66.03125 326.425781 66.621094 326.234375 67.257812 326.0625 C 67.894531 325.890625 68.566406 325.746094 69.273438 325.628906 C 69.980469 325.507812 70.710938 325.417969 71.464844 325.355469 C 72.214844 325.292969 72.976562 325.257812 73.742188 325.253906 C 74.507812 325.25 75.269531 325.277344 76.019531 325.332031 C 76.773438 325.386719 77.503906 325.46875 78.214844 325.582031 C 78.921875 325.691406 79.597656 325.832031 80.234375 325.996094 C 80.875 326.160156 81.464844 326.347656 82.007812 326.554688 C 82.550781 326.765625 83.039062 326.996094 83.464844 327.242188 C 83.890625 327.492188 84.253906 327.753906 84.546875 328.03125 C 84.84375 328.308594 85.066406 328.59375 85.21875 328.886719 C 85.367188 329.183594 85.445312 329.480469 85.445312 329.78125 Z M 85.445312 329.78125 " fill-opacity="1" fill-rule="nonzero"/><path fill="#5b5b5b" d="M 648.03125 328.410156 C 636.769531 335.355469 524.132812 403.535156 518.585938 421.394531 C 513.039062 439.25 629.539062 361.660156 651.113281 349.347656 C 672.6875 337.03125 668.988281 315.476562 648.03125 328.410156 Z M 648.03125 328.410156 " fill-opacity="1" fill-rule="nonzero"/><path fill="#5b5b5b" d="M 623.992188 388.757812 C 605.351562 399.25 557.417969 422.007812 579.609375 428.167969 C 601.800781 434.324219 657.894531 369.667969 623.992188 388.757812 Z M 623.992188 388.757812 " fill-opacity="1" fill-rule="nonzero"/><path fill="#5b5b5b" d="M 660.359375 417.699219 C 618.519531 448.496094 573.445312 461.417969 583.925781 478.660156 C 594.402344 495.902344 687.480469 425.085938 691.179688 410.925781 C 694.878906 396.761719 672.070312 409.078125 660.359375 417.699219 Z M 660.359375 417.699219 " fill-opacity="1" fill-rule="nonzero"/><path fill="#5b5b5b" d="M 274.492188 333.335938 C 255.382812 343.1875 159.84375 387.523438 156.144531 408.460938 C 152.445312 429.398438 333.050781 313.628906 274.492188 333.335938 Z M 274.492188 333.335938 " fill-opacity="1" fill-rule="nonzero"/><path fill="#5b5b5b" d="M 149.363281 452.183594 C 152.445312 468.191406 213.46875 425.703125 229.496094 411.539062 C 245.519531 397.378906 146.28125 436.171875 149.363281 452.183594 Z M 149.363281 452.183594 " fill-opacity="1" fill-rule="nonzero"/><path fill="#5b5b5b" d="M 285.585938 405.382812 C 270.5625 414.386719 191.894531 454.644531 193.742188 470.039062 C 195.59375 485.433594 304.695312 413.386719 308.394531 404.152344 C 312.09375 394.914062 294.832031 399.839844 285.585938 405.382812 Z M 285.585938 405.382812 " fill-opacity="1" fill-rule="nonzero"/></svg>