<svg xmlns="http://www.w3.org/2000/svg" xmlns:xlink="http://www.w3.org/1999/xlink" width="1080" zoomAndPan="magnify" viewBox="0 0 810 809.999993" height="1080" preserveAspectRatio="xMidYMid meet" version="1.0"><path fill="#050302" d="M 412.070312 514.5 C 359.695312 514.5 307.3125 514.480469 254.929688 514.433594 C 251.933594 514.433594 250.644531 515.085938 249.75 518.210938 C 235.269531 568.578125 177.300781 591.191406 131.8125 564.117188 C 114.03125 553.546875 102.230469 537.957031 96.453125 518.027344 C 95.609375 515.105469 94.4375 514.316406 91.453125 514.34375 C 75.007812 514.484375 58.542969 514.777344 42.125 513.703125 C 32.441406 513.066406 23.046875 510.796875 14.820312 505.210938 C 5.980469 499.203125 0.792969 490.875 0.410156 480.167969 C 0.00390625 468.785156 0.203125 457.378906 0.191406 445.980469 C 0.191406 439.144531 2.015625 432.734375 4.933594 426.601562 C 13.65625 408.289062 22.65625 390.097656 30.988281 371.613281 C 38.140625 355.738281 50.816406 348.949219 67.316406 347.78125 C 80.707031 346.832031 94.136719 347.085938 107.546875 347.03125 C 109.609375 347.03125 110.867188 346.457031 112.019531 344.707031 C 131.234375 315.785156 150.484375 286.898438 169.765625 258.046875 C 174.910156 250.328125 180.140625 242.660156 185.128906 234.84375 C 191.769531 224.429688 201.382812 219.511719 213.480469 219.132812 C 218.554688 218.972656 223.605469 219.066406 228.660156 219.066406 C 305.667969 219.082031 382.671875 219.097656 459.683594 219.121094 C 463.449219 219.121094 467.222656 219.121094 470.980469 219.324219 C 480.972656 219.898438 488.402344 225.175781 494.433594 232.671875 C 506.589844 247.777344 518.679688 262.933594 530.707031 278.140625 C 548.464844 300.527344 566.1875 322.941406 583.871094 345.386719 C 585.003906 346.828125 586.210938 347.117188 587.867188 347.113281 C 629.035156 347.050781 670.203125 347.074219 711.371094 346.96875 C 729.902344 346.921875 747.332031 350.921875 762.925781 361.164062 C 786.222656 376.46875 800.757812 397.820312 806.523438 425.21875 C 809.378906 438.902344 809.699219 452.757812 809.921875 466.640625 C 809.976562 469.949219 810.007812 473.257812 809.976562 476.570312 C 809.78125 497.777344 794.222656 513.746094 772.976562 514.214844 C 758.738281 514.527344 744.492188 514.425781 730.25 514.46875 C 728.820312 514.46875 728.035156 514.613281 727.578125 516.328125 C 714.183594 566.414062 658.800781 590.597656 613.101562 566.21875 C 592.972656 555.484375 579.835938 538.875 573.59375 516.898438 C 573.035156 514.929688 572.34375 514.324219 570.3125 514.328125 C 543.941406 514.394531 517.566406 514.410156 491.191406 514.367188 L 412.070312 514.367188 Z M 412.070312 514.5 " fill-opacity="1" fill-rule="nonzero"/><path fill="#e52828" d="M 776.964844 377.292969 C 775.667969 378.082031 774.277344 377.914062 772.921875 377.953125 C 768.703125 378.058594 764.492188 377.839844 760.273438 378.519531 C 754.769531 379.410156 751.726562 382.726562 751.425781 388.40625 C 751.058594 395.320312 753.011719 401.746094 756.152344 407.722656 C 765.753906 426.007812 780.503906 438.023438 800.578125 443.269531 C 805.941406 444.667969 805.871094 444.582031 806.195312 450.359375 C 806.707031 459.179688 806.570312 467.992188 806.519531 476.824219 C 806.417969 494.578125 794.96875 507.859375 777.34375 510.378906 C 767.492188 511.789062 757.527344 510.84375 747.617188 511.066406 C 745.886719 511.105469 745.972656 510.023438 746.082031 508.859375 C 746.847656 501.894531 746.863281 494.925781 746.121094 487.957031 C 745.382812 480.992188 743.90625 474.183594 741.695312 467.53125 C 735.699219 449.40625 725.367188 434.3125 710.410156 422.460938 C 698.269531 412.847656 684.734375 406.0625 669.402344 403.253906 C 636.355469 397.199219 607.589844 405.746094 583.324219 429.015625 C 568.167969 443.546875 559.253906 461.511719 555.421875 482.03125 C 553.875 490.125 553.570312 498.265625 554.507812 506.453125 C 554.558594 506.910156 554.539062 507.378906 554.625 507.828125 C 555.089844 510.246094 554.367188 511.152344 551.667969 511.136719 C 524.191406 511.019531 496.714844 511.039062 469.238281 511.042969 C 403.441406 511.042969 337.640625 511.070312 271.84375 511.132812 C 269.191406 511.132812 268.523438 510.621094 268.800781 507.8125 C 272.988281 465.503906 249.304688 424.910156 209.980469 408.597656 C 180.222656 396.253906 150.972656 398.8125 123.320312 415.398438 C 99.550781 429.660156 84.945312 450.761719 79.058594 477.84375 C 76.898438 487.78125 76.226562 497.835938 77.570312 507.964844 C 77.867188 510.214844 77.488281 511.253906 74.804688 511.160156 C 64.152344 510.796875 53.480469 511.234375 42.84375 510.441406 C 32.414062 509.675781 22.507812 507.210938 14.171875 500.449219 C 7.675781 495.179688 4.125 488.207031 3.820312 479.921875 C 3.402344 468.542969 2.992188 457.148438 3.566406 445.746094 C 3.664062 443.769531 4.167969 443.035156 6.210938 442.933594 C 8.789062 442.839844 11.328125 442.464844 13.824219 441.816406 C 20.515625 440.003906 25.445312 436.101562 28.574219 429.921875 C 33.246094 420.644531 36.917969 410.917969 41.277344 401.496094 C 46.800781 389.582031 51.554688 377.308594 57.871094 365.765625 C 59.859375 362.128906 62.242188 358.738281 65.53125 356.109375 C 69.96875 352.554688 74.9375 350.566406 80.730469 350.527344 C 94.054688 350.441406 107.375 350.199219 120.691406 349.996094 C 126.789062 349.902344 132.734375 348.824219 138.597656 347.21875 C 145.410156 345.347656 150.378906 341.339844 154.011719 335.207031 C 161.832031 322.003906 169.289062 308.589844 176.847656 295.238281 C 186.617188 277.96875 196.347656 260.671875 206.039062 243.355469 C 207.972656 239.910156 207.796875 239.570312 203.863281 239.5625 C 198.992188 239.5625 194.121094 239.5625 189.25 239.511719 C 188.484375 239.511719 187.429688 239.941406 187.019531 239 C 186.648438 238.148438 187.53125 237.496094 187.960938 236.835938 C 194.308594 227.316406 203.183594 222.484375 214.644531 222.480469 C 249.933594 222.480469 285.222656 222.472656 320.511719 222.457031 C 368.570312 222.457031 416.636719 222.683594 464.695312 222.328125 C 477.09375 222.234375 485.953125 227.402344 493.179688 236.675781 C 493.644531 237.273438 494.613281 237.90625 494.070312 238.78125 C 493.675781 239.417969 492.714844 239.148438 492.003906 239.15625 C 488.878906 239.191406 485.753906 239.15625 482.628906 239.207031 C 481.398438 239.230469 479.855469 238.789062 479.148438 240.199219 C 478.445312 241.605469 479.660156 242.65625 480.328125 243.664062 C 485.476562 251.277344 490.699219 258.835938 495.878906 266.421875 C 513.910156 292.828125 531.933594 319.238281 549.953125 345.65625 C 551.207031 347.496094 552.300781 348.742188 555.0625 348.910156 C 608.039062 352.234375 661.066406 349.761719 714.0625 350.367188 C 737.253906 350.625 757.289062 358.546875 774.34375 374.171875 C 775.15625 374.914062 775.90625 375.726562 776.644531 376.539062 C 776.792969 376.773438 776.898438 377.023438 776.964844 377.292969 Z M 776.964844 377.292969 " fill-opacity="1" fill-rule="nonzero"/><path fill="#21201e" d="M 173.066406 572.242188 C 131.3125 573.007812 96.5625 536.390625 96.691406 496.882812 C 96.8125 455.714844 130.585938 419.054688 176.335938 420.550781 C 215.355469 421.828125 250.871094 453.890625 249.574219 499.433594 C 248.464844 538.230469 215.367188 572.535156 173.066406 572.242188 Z M 173.066406 572.242188 " fill-opacity="1" fill-rule="nonzero"/><path fill="#201f1e" d="M 574.441406 496.910156 C 573.710938 454.554688 608.550781 421.242188 649.835938 420.542969 C 692.019531 419.828125 726.808594 454.570312 726.722656 496.511719 C 726.632812 538.34375 692.878906 570.5625 654.355469 572.3125 C 608.742188 574.382812 573.460938 536.152344 574.441406 496.910156 Z M 574.441406 496.910156 " fill-opacity="1" fill-rule="nonzero"/><path fill="#201f1f" d="M 743.183594 498.828125 C 743.121094 502.210938 743.273438 505.589844 742.703125 508.972656 C 742.449219 510.453125 742.121094 511.078125 740.570312 511.039062 C 737.359375 510.953125 734.140625 510.9375 730.925781 511.039062 C 729.234375 511.085938 729.097656 510.554688 729.308594 508.957031 C 731.136719 494.921875 729.871094 481.191406 724.660156 467.964844 C 721.1875 459.101562 716.332031 451.074219 710.101562 443.878906 C 703.066406 435.734375 694.554688 429.640625 685.066406 425.003906 C 676.828125 420.976562 668.003906 418.671875 658.773438 417.703125 C 646 416.363281 633.792969 418.355469 621.890625 422.714844 C 608.761719 427.523438 598.085938 435.785156 589.027344 446.359375 C 581.976562 454.589844 577.257812 464.011719 574.140625 474.273438 C 572.28125 480.246094 571.269531 486.355469 571.105469 492.605469 C 570.984375 498.273438 570.960938 503.925781 571.871094 509.535156 C 572.066406 510.730469 571.710938 511.015625 570.671875 511.011719 C 566.996094 511.011719 563.320312 511.011719 559.644531 511.011719 C 558.550781 511.011719 558.015625 510.652344 557.890625 509.453125 C 556.59375 496.84375 557.511719 484.457031 561.144531 472.261719 C 564.121094 462.15625 568.652344 452.804688 574.730469 444.203125 C 583.332031 432.042969 594.183594 422.484375 607.320312 415.351562 C 617.371094 409.898438 628.066406 406.695312 639.28125 405.203125 C 652.238281 403.476562 664.992188 404.734375 677.503906 408.632812 C 683.210938 410.390625 688.699219 412.664062 693.976562 415.460938 C 699.25 418.257812 704.21875 421.523438 708.875 425.261719 C 721.941406 435.773438 731.195312 449.058594 737.25 464.714844 C 741.515625 475.742188 743.332031 487.089844 743.183594 498.828125 Z M 743.183594 498.828125 " fill-opacity="1" fill-rule="nonzero"/><path fill="#21201f" d="M 80.414062 497.457031 C 80.378906 475.710938 87.117188 456.175781 100.726562 439.316406 C 113.3125 423.714844 129.535156 413.316406 148.921875 407.761719 C 158.941406 404.894531 169.101562 403.957031 179.347656 404.648438 C 193.1875 405.585938 206.292969 409.351562 218.402344 416.386719 C 226.957031 421.355469 234.695312 427.285156 241.332031 434.582031 C 252.460938 446.816406 259.875 461.023438 263.566406 477.195312 C 265.21875 484.394531 265.691406 491.660156 266.03125 498.914062 C 266.1875 502.316406 265.773438 505.847656 265.632812 509.320312 C 265.585938 510.613281 264.75 511.011719 263.589844 511.003906 C 260.285156 511.003906 256.976562 510.988281 253.667969 511.003906 C 251.117188 511.019531 251.785156 509.121094 252.015625 507.867188 C 252.6875 504.355469 253.019531 500.8125 253.015625 497.238281 C 252.867188 478.449219 247.125 461.53125 235.390625 446.925781 C 222.671875 431.101562 206.195312 421.324219 185.96875 418.277344 C 162.867188 414.804688 141.984375 420.207031 123.558594 434.527344 C 108.203125 446.472656 98.691406 462.160156 94.867188 481.226562 C 93.019531 490.425781 92.6875 499.714844 94.265625 508.996094 C 94.550781 510.664062 94.230469 511.085938 92.613281 511.039062 C 89.492188 510.949219 86.367188 510.988281 83.242188 511.019531 C 81.816406 511.039062 81.058594 510.5625 80.945312 508.996094 C 80.636719 505.15625 80.105469 501.335938 80.414062 497.457031 Z M 80.414062 497.457031 " fill-opacity="1" fill-rule="nonzero"/><path fill="#f8f8f7" d="M 202.144531 242.835938 C 202.105469 244.078125 201.34375 244.929688 200.828125 245.851562 C 184.460938 275.050781 167.976562 304.183594 151.375 333.25 C 147.941406 339.226562 143.109375 342.867188 136.496094 344.464844 C 129.40625 346.175781 122.191406 346.679688 114.863281 346.984375 C 115 345.511719 115.980469 344.605469 116.667969 343.574219 C 138.699219 310.5 160.734375 277.433594 182.773438 244.367188 C 183.285156 243.601562 183.617188 242.808594 184.789062 242.816406 C 190.554688 242.859375 196.332031 242.835938 202.144531 242.835938 Z M 202.144531 242.835938 " fill-opacity="1" fill-rule="nonzero"/><path fill="#f8f9f8" d="M 580.769531 346.917969 C 571.828125 346.894531 563.445312 346.007812 555.035156 345.429688 C 554.066406 345.363281 553.582031 344.808594 553.105469 344.105469 C 530.160156 310.546875 507.210938 276.984375 484.261719 243.421875 C 484.121094 243.136719 484.007812 242.84375 483.921875 242.535156 C 488.421875 242.535156 492.785156 242.578125 497.152344 242.515625 C 498.667969 242.496094 499.15625 243.664062 499.859375 244.558594 C 512.601562 260.707031 525.332031 276.859375 538.050781 293.019531 C 551.488281 310.023438 564.945312 327.007812 578.429688 343.96875 Z M 580.769531 346.917969 " fill-opacity="1" fill-rule="nonzero"/><path fill="#fcfcfb" d="M 776.109375 381.195312 C 780.03125 379.960938 782.523438 382.636719 785.152344 385.933594 C 797.523438 401.472656 803.046875 419.558594 805.421875 438.894531 C 805.640625 440.683594 805.164062 441.136719 803.375 440.75 C 801.359375 440.316406 799.542969 439.707031 797.972656 438.28125 C 781.878906 423.652344 772.398438 405.53125 769.160156 384.054688 C 768.800781 381.675781 769.546875 380.917969 771.824219 381.171875 C 773.011719 381.308594 774.214844 381.195312 776.109375 381.195312 Z M 776.109375 381.195312 " fill-opacity="1" fill-rule="nonzero"/><path fill="#e12926" d="M 39.257812 396.796875 C 38.988281 397.800781 38.878906 398.527344 38.597656 399.175781 C 34.636719 408.355469 30.695312 417.539062 26.65625 426.683594 C 22.9375 435.117188 16.171875 439.085938 7.199219 439.714844 C 4.488281 439.90625 4.101562 439.496094 4.835938 436.792969 C 6.472656 430.734375 9.402344 425.199219 12.050781 419.558594 C 15.289062 412.660156 18.707031 405.863281 21.964844 398.984375 C 22.730469 397.359375 23.730469 396.707031 25.570312 396.765625 C 30.054688 396.898438 34.546875 396.796875 39.257812 396.796875 Z M 39.257812 396.796875 " fill-opacity="1" fill-rule="nonzero"/><path fill="#e12b27" d="M 65.035156 351.765625 C 55.40625 358.820312 52.261719 369.808594 47.441406 379.714844 C 45.675781 383.339844 44.070312 387.046875 42.496094 390.757812 C 42.007812 391.917969 41.4375 392.546875 40.105469 392.53125 C 35.34375 392.484375 30.582031 392.515625 25.636719 392.515625 C 26.035156 390.289062 27.015625 388.632812 27.824219 386.929688 C 30.769531 380.714844 33.574219 374.425781 36.789062 368.355469 C 42.75 357.109375 53.132812 353.085938 65.035156 351.765625 Z M 65.035156 351.765625 " fill-opacity="1" fill-rule="nonzero"/><path fill="#edab2b" d="M 789.796875 435.976562 C 787.226562 435.023438 785.027344 433.546875 782.855469 432.105469 C 769.683594 423.359375 759.609375 412.210938 755.609375 396.441406 C 754.949219 393.847656 754.554688 391.214844 754.816406 388.519531 C 754.867188 387.945312 754.980469 387.382812 755.15625 386.832031 C 755.328125 386.28125 755.558594 385.757812 755.839844 385.253906 C 756.125 384.753906 756.460938 384.285156 756.84375 383.855469 C 757.226562 383.425781 757.652344 383.039062 758.117188 382.699219 C 758.582031 382.355469 759.078125 382.070312 759.605469 381.832031 C 760.132812 381.597656 760.679688 381.421875 761.242188 381.300781 C 761.804688 381.179688 762.378906 381.121094 762.953125 381.125 C 763.53125 381.125 764.101562 381.1875 764.664062 381.308594 C 765.464844 381.488281 765.6875 381.898438 765.746094 382.613281 C 767.636719 403.058594 776.582031 420.28125 789.792969 435.578125 C 789.824219 435.605469 789.796875 435.695312 789.796875 435.976562 Z M 789.796875 435.976562 " fill-opacity="1" fill-rule="nonzero"/><path fill="#140100" d="M 417.671875 495.101562 C 378.617188 495.101562 339.5625 495.101562 300.507812 495.101562 C 295.949219 495.101562 295.945312 495.101562 295.945312 490.582031 C 295.957031 444.988281 295.992188 399.390625 296.050781 353.789062 C 296.050781 351.070312 295.285156 350.46875 292.671875 350.480469 C 274.113281 350.527344 255.542969 350.675781 236.988281 350.226562 C 227.34375 349.988281 217.707031 351.007812 208.082031 350.039062 C 195.703125 348.789062 189.261719 338.683594 193.777344 327.113281 C 197.59375 317.355469 202.554688 308.097656 207.132812 298.679688 C 214.285156 283.96875 221.777344 269.417969 228.492188 254.515625 C 233.257812 243.945312 241.695312 240.050781 252.246094 239.777344 C 267.492188 239.390625 282.753906 239.625 298.007812 239.503906 C 300.789062 239.480469 300.816406 241.140625 300.816406 243.117188 C 300.816406 261.59375 300.824219 280.074219 300.84375 298.550781 C 300.84375 314.90625 302.210938 331.417969 300.515625 347.601562 C 298.898438 363.070312 299.863281 378.402344 299.453125 393.78125 C 299.046875 409.21875 299.335938 424.671875 299.324219 440.117188 C 299.3125 455.648438 299.308594 471.183594 299.304688 486.722656 C 299.304688 491.789062 299.304688 491.777344 304.441406 491.777344 C 380.253906 491.777344 456.070312 491.765625 531.878906 491.746094 C 537.046875 491.746094 536.453125 492.429688 536.449219 487.257812 C 536.4375 442.761719 536.410156 398.265625 536.378906 353.773438 C 536.378906 352.414062 536.632812 351.019531 536.011719 349.699219 C 535.53125 348.675781 535.695312 347.839844 536.949219 347.652344 C 538.046875 347.5 539.261719 347.417969 539.597656 348.886719 C 539.722656 349.613281 539.761719 350.347656 539.71875 351.082031 C 539.738281 398.0625 539.777344 445.039062 539.828125 492.015625 C 539.828125 495.234375 538.011719 495.011719 535.910156 495.007812 C 497.132812 495.007812 458.355469 495.007812 419.574219 495.007812 L 417.644531 495.007812 Z M 417.671875 495.101562 " fill-opacity="1" fill-rule="nonzero"/><path fill="#060101" d="M 408.761719 350.558594 L 319.175781 350.558594 C 315.210938 350.558594 314.886719 350.304688 314.886719 346.402344 C 314.875 312.578125 314.875 278.75 314.886719 244.925781 C 314.886719 244.648438 314.886719 244.375 314.902344 244.097656 C 315.140625 239.59375 315.140625 239.554688 319.707031 239.554688 C 365.28125 239.554688 410.855469 239.542969 456.425781 239.519531 C 458.414062 239.519531 459.632812 240.207031 460.71875 241.800781 C 477.40625 266.335938 494.105469 290.867188 510.8125 315.398438 C 512.417969 317.761719 514.261719 319.363281 517.011719 320.445312 C 524.222656 323.273438 530.027344 327.945312 533.671875 334.964844 C 536.855469 341.097656 535.503906 348.800781 530.300781 353.308594 C 525.417969 357.542969 519.757812 360.300781 513.332031 361.320312 C 507.296875 362.277344 503.304688 359.6875 502.453125 353.671875 C 502.039062 350.738281 500.75 350.46875 498.335938 350.476562 C 468.476562 350.535156 438.617188 350.546875 408.753906 350.515625 Z M 408.761719 350.558594 " fill-opacity="1" fill-rule="nonzero"/><path fill="#1c0000" d="M 345.816406 371.472656 C 352.714844 371.472656 359.59375 371.445312 366.480469 371.472656 C 370.722656 371.496094 372.066406 372.859375 372.203125 377.074219 C 372.480469 385.46875 371.789062 386.191406 363.359375 386.199219 C 350.871094 386.214844 338.378906 386.21875 325.886719 386.214844 C 320.371094 386.214844 319.089844 384.890625 319.140625 379.347656 C 319.140625 378.519531 319.140625 377.695312 319.191406 376.867188 C 319.386719 372.894531 320.65625 371.574219 324.601562 371.542969 C 331.671875 371.484375 338.746094 371.527344 345.804688 371.527344 Z M 345.816406 371.472656 " fill-opacity="1" fill-rule="nonzero"/><path fill="#030303" d="M 173.519531 455.835938 C 196.125 455.417969 213.753906 473.265625 213.808594 496.515625 C 213.863281 518.324219 195.835938 537.707031 171.558594 537 C 151.257812 536.40625 131.199219 518.992188 132.242188 494.664062 C 133.148438 473.546875 150.207031 455.378906 173.519531 455.835938 Z M 173.519531 455.835938 " fill-opacity="1" fill-rule="nonzero"/><path fill="#020202" d="M 651.050781 536.9375 C 627.011719 537.269531 609.792969 517.894531 609.746094 496.640625 C 609.695312 473.421875 627.785156 455.375 650.957031 455.523438 C 673.761719 455.667969 690.601562 471.96875 691.058594 496.351562 C 691.5 518.667969 673.441406 537.160156 651.050781 536.9375 Z M 651.050781 536.9375 " fill-opacity="1" fill-rule="nonzero"/><path fill="#f8f8f8" d="M 297.433594 295.011719 C 297.433594 311.457031 297.398438 327.902344 297.472656 344.34375 C 297.472656 346.347656 297.21875 347.144531 294.882812 347.128906 C 267.515625 347.003906 240.152344 347.019531 212.785156 346.96875 C 211.039062 346.964844 209.300781 346.847656 207.570312 346.617188 C 197.722656 345.339844 192.914062 336.804688 197.097656 327.789062 C 201.277344 318.777344 205.609375 309.902344 209.914062 300.992188 C 216.691406 286.953125 223.964844 273.136719 230.144531 258.839844 C 234.929688 247.738281 243.144531 243.238281 254.46875 243.058594 C 268.148438 242.835938 281.832031 242.867188 295.511719 242.675781 C 297.675781 242.644531 297.300781 243.886719 297.300781 245.136719 C 297.300781 261.761719 297.300781 278.390625 297.300781 295.019531 Z M 297.433594 295.011719 " fill-opacity="1" fill-rule="nonzero"/><path fill="#f9f9f8" d="M 508.660156 318.445312 C 503.976562 319.191406 502.953125 322.722656 502.332031 326.3125 C 501.320312 332.328125 501.03125 338.375 501.460938 344.457031 C 501.511719 345.289062 502.210938 346.546875 501.144531 346.917969 C 500.078125 347.292969 498.664062 347.34375 497.785156 346.347656 C 492.453125 340.292969 485.699219 335.949219 479.515625 330.917969 C 476.125 328.15625 476.105469 328.226562 478.675781 324.761719 C 480.914062 321.738281 483.164062 318.714844 485.277344 315.605469 C 487.109375 312.898438 486.585938 310.390625 484.050781 308.703125 C 481.925781 307.285156 479.847656 307.777344 477.921875 310.292969 C 470.511719 320.003906 463.171875 329.761719 455.746094 339.457031 C 453.921875 341.839844 452.152344 344.097656 455.382812 347.238281 L 432.902344 347.238281 C 395.511719 347.238281 358.121094 347.257812 320.730469 347.292969 C 318.859375 347.292969 318.261719 346.910156 318.261719 344.925781 C 318.308594 311.839844 318.289062 278.753906 318.210938 245.667969 C 318.210938 243.441406 318.699219 242.757812 321.042969 242.761719 C 365.691406 242.828125 410.339844 242.835938 454.992188 242.78125 C 456.269531 242.78125 457.292969 242.75 458.234375 244.121094 C 472.980469 265.832031 487.769531 287.515625 502.605469 309.171875 C 504.625 312.125 506.523438 315.160156 508.660156 318.445312 Z M 508.660156 318.445312 " fill-opacity="1" fill-rule="nonzero"/><path fill="#e52e28" d="M 504.492188 341.660156 C 504.492188 335.695312 504.859375 331.304688 505.683594 326.972656 C 506.566406 322.359375 508.425781 321.128906 512.871094 322.449219 C 519.886719 324.523438 525.625 328.535156 529.601562 334.738281 C 533.789062 341.28125 532.363281 348.097656 526.023438 352.574219 C 521.988281 355.429688 517.453125 357.171875 512.609375 358.023438 C 508.640625 358.714844 506.222656 357.015625 505.527344 353 C 504.808594 348.746094 504.464844 344.441406 504.492188 341.660156 Z M 504.492188 341.660156 " fill-opacity="1" fill-rule="nonzero"/><path fill="#f6f6f6" d="M 485.539062 347.097656 L 461.5 347.097656 C 464.492188 343.398438 467.480469 339.988281 469.914062 336.175781 C 470.421875 335.375 470.902344 335.628906 471.464844 336.066406 C 476.039062 339.65625 480.605469 343.234375 485.539062 347.097656 Z M 485.539062 347.097656 " fill-opacity="1" fill-rule="nonzero"/><path fill="#db2f2c" d="M 345.894531 382.898438 C 339.199219 382.898438 332.5 382.828125 325.804688 382.9375 C 323.363281 382.976562 322.121094 382.257812 322.503906 379.644531 C 322.59375 379.007812 322.597656 378.371094 322.519531 377.730469 C 322.261719 375.511719 323.339844 374.871094 325.410156 374.886719 C 331.738281 374.933594 338.070312 374.839844 344.40625 374.832031 C 351.46875 374.820312 358.539062 374.832031 365.605469 374.859375 C 368.742188 374.878906 368.773438 375.136719 368.925781 379.355469 C 369.011719 381.796875 368.339844 382.769531 365.707031 382.699219 C 359.109375 382.527344 352.503906 382.644531 345.902344 382.644531 Z M 345.894531 382.898438 " fill-opacity="1" fill-rule="nonzero"/><path fill="#b4b4b4" d="M 172.921875 533.714844 C 152.347656 533.683594 135.425781 516.8125 135.460938 496.359375 C 135.5 475.679688 152.640625 458.753906 173.410156 458.882812 C 194.355469 459.011719 210.496094 475.304688 210.5 496.328125 C 210.503906 517.214844 193.890625 533.742188 172.921875 533.714844 Z M 172.921875 533.714844 " fill-opacity="1" fill-rule="nonzero"/><path fill="#b3b3b3" d="M 650.503906 533.6875 C 629.695312 533.765625 613.179688 517.164062 613.148438 496.140625 C 613.117188 475.773438 630.09375 458.847656 650.613281 458.78125 C 671.019531 458.714844 687.785156 475.546875 687.90625 496.207031 C 688 517.058594 671.484375 533.613281 650.503906 533.6875 Z M 650.503906 533.6875 " fill-opacity="1" fill-rule="nonzero"/><path fill="#020202" d="M 155.414062 496.125 C 155.433594 486.097656 163.242188 478.324219 173.273438 478.34375 C 183.140625 478.359375 190.902344 486.34375 190.855469 496.429688 C 190.816406 506.199219 182.863281 513.992188 172.976562 513.9375 C 163.089844 513.882812 155.390625 506.027344 155.414062 496.125 Z M 155.414062 496.125 " fill-opacity="1" fill-rule="nonzero"/><path fill="#020202" d="M 668.339844 495.792969 C 668.375 505.757812 660.539062 513.769531 650.714844 513.828125 C 640.792969 513.894531 632.945312 506.050781 632.90625 496.027344 C 632.902344 495.449219 632.925781 494.871094 632.980469 494.296875 C 633.035156 493.71875 633.117188 493.144531 633.226562 492.578125 C 633.335938 492.007812 633.472656 491.449219 633.636719 490.894531 C 633.804688 490.335938 633.996094 489.792969 634.214844 489.257812 C 634.433594 488.722656 634.679688 488.195312 634.949219 487.683594 C 635.21875 487.171875 635.515625 486.675781 635.835938 486.195312 C 636.15625 485.710938 636.5 485.246094 636.863281 484.796875 C 637.230469 484.347656 637.617188 483.917969 638.027344 483.507812 C 638.433594 483.097656 638.863281 482.710938 639.308594 482.339844 C 639.753906 481.972656 640.21875 481.628906 640.699219 481.304688 C 641.179688 480.984375 641.675781 480.6875 642.1875 480.414062 C 642.695312 480.140625 643.21875 479.890625 643.753906 479.667969 C 644.289062 479.449219 644.832031 479.253906 645.386719 479.085938 C 645.941406 478.917969 646.5 478.777344 647.066406 478.664062 C 647.636719 478.550781 648.207031 478.46875 648.785156 478.410156 C 649.359375 478.355469 649.9375 478.328125 650.515625 478.328125 C 660.425781 478.328125 668.308594 486.046875 668.339844 495.792969 Z M 668.339844 495.792969 " fill-opacity="1" fill-rule="nonzero"/><path fill="#acacac" d="M 187.324219 496.074219 C 187.359375 504.265625 181.25 510.453125 173.148438 510.429688 C 172.21875 510.429688 171.296875 510.335938 170.386719 510.152344 C 169.472656 509.972656 168.585938 509.703125 167.726562 509.34375 C 166.867188 508.988281 166.050781 508.550781 165.273438 508.035156 C 164.5 507.519531 163.785156 506.933594 163.125 506.273438 C 162.464844 505.617188 161.875 504.902344 161.355469 504.128906 C 160.835938 503.359375 160.398438 502.542969 160.039062 501.683594 C 159.679688 500.824219 159.40625 499.9375 159.21875 499.027344 C 159.035156 498.113281 158.9375 497.191406 158.933594 496.261719 C 158.859375 488.421875 165.148438 481.949219 172.921875 481.867188 C 180.945312 481.78125 187.292969 488.039062 187.324219 496.074219 Z M 187.324219 496.074219 " fill-opacity="1" fill-rule="nonzero"/><path fill="#ababab" d="M 650.367188 481.847656 C 658.183594 481.792969 664.632812 488.097656 664.710938 495.863281 C 664.789062 503.632812 658.449219 510.246094 650.757812 510.359375 C 643.070312 510.472656 636.605469 504.039062 636.515625 496.234375 C 636.4375 488.230469 642.527344 481.902344 650.367188 481.847656 Z M 650.367188 481.847656 " fill-opacity="1" fill-rule="nonzero"/></svg>
